<svg width="14" height="17" viewBox="0 0 14 17" fill="none" xmlns="http://www.w3.org/2000/svg">
<path fill-rule="evenodd" clip-rule="evenodd" d="M6.66667 5.79532L11.3627 4.85613C12.5085 4.62696 13.3333 3.62084 13.3333 2.45228C13.3333 0.905306 11.9181 -0.254952 10.4011 0.0484395L7.00975 0.726715C5.84117 0.960431 5 1.98646 5 3.17816V9.90791C4.50971 9.62433 3.94047 9.462 3.33333 9.462C1.49238 9.462 0 10.9544 0 12.7953C0 14.6362 1.49238 16.1287 3.33333 16.1287C5.17425 16.1287 6.66667 14.6362 6.66667 12.7953V5.79532ZM10.728 1.68274L7.33658 2.36101C6.94708 2.43892 6.66667 2.78093 6.66667 3.17816V4.09566L11.0358 3.22183C11.4026 3.14846 11.6667 2.82637 11.6667 2.45228C11.6667 1.95705 11.2136 1.58561 10.728 1.68274ZM5 12.7953C5 11.8748 4.25381 11.1287 3.33333 11.1287C2.41286 11.1287 1.66667 11.8748 1.66667 12.7953C1.66667 13.7158 2.41286 14.462 3.33333 14.462C4.25381 14.462 5 13.7158 5 12.7953Z" fill="#9033D6"/>
</svg>
