<svg width="12" height="16" viewBox="0 0 12 16" fill="none" xmlns="http://www.w3.org/2000/svg">
<path d="M8 0V4H12L8 0ZM7 4V0H1.5C0.671562 0 0 0.671562 0 1.5V14.5C0 15.3281 0.671562 16 1.5 16H10.5C11.3284 16 12 15.3284 12 14.5V5H8.02812C7.44687 5 7 4.55313 7 4ZM3 1H5V2H3V1ZM3 3H5V4H3V3ZM3 5H5V6H3V5ZM4.00938 12.9719C2.74188 12.9719 1.79813 11.8328 2.04594 10.6141L3 7H5L5.96688 10.6531C6.20938 11.8656 5.26563 12.9719 4.00938 12.9719ZM4.5 10.5H3.5C3.225 10.5 3 10.725 3 11C3 11.275 3.22387 11.5 3.5 11.5H4.5C4.775 11.5 5 11.275 5 11C5 10.725 4.775 10.5 4.5 10.5Z" fill="#561603"/>
</svg>
