<svg width="16" height="16" viewBox="0 0 16 16" fill="none" xmlns="http://www.w3.org/2000/svg">
<path d="M15.9541 5.20625C16.0635 5.475 15.9707 5.77812 15.7452 5.975L14.3096 7.20625C14.3461 7.46563 14.366 7.73125 14.366 8C14.366 8.26875 14.3461 8.53437 14.3096 8.79375L15.7452 10.025C15.9707 10.2219 16.0635 10.525 15.9541 10.7937C15.8082 11.1656 15.6325 11.525 15.4336 11.8656L15.2778 12.1187C15.0589 12.4625 14.8136 12.7875 14.545 13.0969C14.3461 13.3188 14.0245 13.3969 13.7327 13.3094L11.886 12.7531C11.4417 13.075 10.9212 13.3438 10.4272 13.55L10.0127 15.3344C9.94644 15.6156 9.71435 15.8156 9.40933 15.8906C8.95179 15.9625 8.48099 16 7.9704 16C7.51949 16 7.04869 15.9625 6.59115 15.8906C6.28613 15.8156 6.05404 15.6156 5.98773 15.3344L5.57329 13.55C5.04944 13.3438 4.55875 13.075 4.11447 12.7531L2.26906 13.3094C1.97597 13.3969 1.65271 13.3188 1.45644 13.0969C1.18755 12.7875 0.942202 12.4625 0.723379 12.1187L0.568213 11.8656C0.366962 11.525 0.191904 11.1656 0.0450271 10.7937C-0.0623951 10.525 0.0281181 10.2219 0.255561 10.025L1.68985 8.79375C1.65338 8.53437 1.63448 8.26875 1.63448 8C1.63448 7.73125 1.65338 7.46563 1.68985 7.20625L0.255561 5.975C0.0281181 5.77812 -0.0623951 5.47813 0.0450271 5.20625C0.191904 4.83438 0.367294 4.475 0.568213 4.13438L0.723047 3.88125C0.942202 3.5375 1.18755 3.2125 1.45644 2.90469C1.65271 2.68125 1.97597 2.60375 2.26906 2.69187L4.11447 3.24688C4.55875 2.92375 5.04944 2.655 5.57329 2.45094L5.98773 0.666562C6.05404 0.382812 6.28613 0.1575 6.59115 0.109688C7.04869 0.0375312 7.51949 0 8.00024 0C8.48099 0 8.95179 0.0375312 9.40933 0.109688C9.71435 0.1575 9.94644 0.382812 10.0127 0.666562L10.4272 2.45094C10.9212 2.655 11.4417 2.92375 11.886 3.24688L13.7327 2.69187C14.0245 2.60375 14.3461 2.68125 14.545 2.90469C14.8136 3.2125 15.0589 3.5375 15.2778 3.88125L15.4336 4.13438C15.6325 4.475 15.8082 4.83438 15.9541 5.20625ZM8.00024 10.5C9.46569 10.5 10.6526 9.38125 10.6526 7.97188C10.6526 6.61875 9.46569 5.47188 8.00024 5.47188C6.53479 5.47188 5.34784 6.61875 5.34784 7.97188C5.34784 9.38125 6.53479 10.5 8.00024 10.5Z" fill="#484163"/>
</svg>
