<svg width="16" height="14" viewBox="0 0 16 14" fill="none" xmlns="http://www.w3.org/2000/svg">
<path d="M13.9968 0H1.97563C0.896861 0 0 0.895313 0 2V12C0 13.1047 0.896889 14 1.97535 14H13.9965C15.1031 14 16 13.1047 16 12V2C16.0003 0.895313 15.13 0 13.9968 0ZM3.47827 2C4.30817 2 4.98091 2.67156 4.98091 3.5C4.98091 4.32844 4.33603 5 3.47827 5C2.62052 5 1.97563 4.32844 1.97563 3.5C1.97563 2.67156 2.67624 2 3.47827 2ZM13.9655 11.7375C13.8778 11.9 13.7088 12 13.5241 12H2.56761C2.37912 12 2.20666 11.8944 2.1212 11.7266C2.03574 11.5588 2.05186 11.3575 2.16296 11.2053L4.35431 8.20531C4.44873 8.075 4.59899 8 4.75865 8C4.9183 8 5.06907 8.07628 5.16342 8.20544L6.17958 9.59638L9.10034 5.2495C9.19457 5.08437 9.3511 5 9.51701 5C9.68293 5 9.84102 5.0835 9.93368 5.22266L13.9407 11.2227C14.0437 11.375 14.0531 11.5719 13.9655 11.7375Z" fill="#D90F0F"/>
</svg>
