<svg width="19" height="15" viewBox="0 0 19 15" fill="none" xmlns="http://www.w3.org/2000/svg">
<path d="M12.3144 1.19525L8.51437 14.3205C8.36891 14.8186 7.84344 15.1057 7.33875 14.9651C6.83406 14.8215 6.54312 14.303 6.68562 13.8049L10.4856 0.680209C10.6311 0.182338 11.1566 -0.105943 11.6612 0.0363224C12.1659 0.178559 12.4569 0.697494 12.3144 1.19525ZM15.3959 3.55687L18.7209 6.83812C19.092 7.20433 19.092 7.79613 18.7209 8.16234L15.3959 11.4436C15.0248 11.8098 14.4252 11.8098 14.0541 11.4436C13.683 11.0774 13.683 10.4856 14.0541 10.1194L16.7052 7.50023L14.0541 4.88109C13.683 4.51488 13.683 3.92308 14.0541 3.55687C14.4252 3.19066 15.0248 3.19066 15.3959 3.55687ZM4.94594 4.88109L2.29336 7.50023L4.94594 10.1194C5.31703 10.4856 5.31703 11.0774 4.94594 11.4436C4.57484 11.8098 3.97516 11.8098 3.60406 11.4436L0.278231 8.16234C-0.0927438 7.79613 -0.0927438 7.20433 0.278231 6.83812L3.60406 3.55687C3.97516 3.19066 4.57484 3.19066 4.94594 3.55687C5.31703 3.92308 5.31703 4.51488 4.94594 4.88109Z" fill="#FBAD16"/>
</svg>
