<svg width="16" height="14" viewBox="0 0 16 14" fill="none" xmlns="http://www.w3.org/2000/svg">
<path d="M14.4974 0H1.47447C0.672748 0 0 0.671562 0 1.5V12.5C0 13.3284 0.672745 14 1.47447 14H14.4974C15.3273 14 16 13.3284 16 12.5V1.5C16 0.671562 15.3551 0 14.4974 0ZM3.47799 11.75C3.47799 11.8881 3.36586 12 3.22755 12H1.72491C1.5866 12 1.47447 11.8881 1.47447 11.75V10.25C1.47447 10.1119 1.5866 10 1.72491 10H3.19938C3.33768 10 3.44982 10.1119 3.44982 10.25L3.47799 11.75ZM3.47799 7.75C3.47799 7.88806 3.36586 8 3.22755 8H1.72491C1.5866 8 1.47447 7.88806 1.47447 7.75V6.25C1.47447 6.11194 1.5866 6 1.72491 6H3.19938C3.33768 6 3.44982 6.11194 3.44982 6.25V7.75H3.47799ZM3.47799 3.75C3.47799 3.88806 3.36586 4 3.22755 4H1.72491C1.5866 4 1.47447 3.88806 1.47447 3.75V2.25C1.47447 2.11194 1.5866 2 1.72491 2H3.19938C3.33768 2 3.44982 2.11194 3.44982 2.25L3.47799 3.75ZM10.9912 11.5C10.9912 11.7761 10.7669 12 10.4903 12H5.48151C5.2049 12 4.98063 11.7761 4.98063 11.5V8.5C4.98063 8.22381 5.2049 8 5.48151 8H10.4903C10.7669 8 10.9912 8.22381 10.9912 8.5V11.5ZM10.9912 5.5C10.9912 5.77613 10.7669 6 10.4903 6H5.48151C5.2049 6 4.98063 5.77613 4.98063 5.5V2.5C4.98063 2.22381 5.2049 2 5.48151 2H10.4903C10.7669 2 10.9912 2.22381 10.9912 2.5V5.5ZM14.4974 11.75C14.4974 11.8881 14.3852 12 14.2469 12H12.7725C12.6341 12 12.5502 11.8881 12.5502 11.75V10.25C12.5502 10.1119 12.6623 10 12.8006 10H14.2751C14.4134 10 14.5255 10.1119 14.5255 10.25V11.75H14.4974ZM14.4974 7.75C14.4974 7.88806 14.3852 8 14.2469 8H12.7725C12.6341 8 12.522 7.88806 12.522 7.75V6.25C12.522 6.11194 12.6341 6 12.7725 6H14.2469C14.3852 6 14.4974 6.11194 14.4974 6.25V7.75ZM14.4974 3.75C14.4974 3.88806 14.3852 4 14.2469 4H12.7725C12.6341 4 12.522 3.88806 12.522 3.75V2.25C12.522 2.11194 12.6341 2 12.7443 2H14.2187C14.3571 2 14.4692 2.11194 14.4692 2.25V3.75H14.4974Z" fill="#D14382"/>
</svg>
