<svg width="217" height="202" viewBox="0 0 217 202" fill="none" xmlns="http://www.w3.org/2000/svg">
<g clip-path="url(#clip0_83_872)">
<path d="M209.093 24.2484H211.248C212.899 11.573 200.197 1.94742 185.627 0.772339C191.349 2.08519 196.585 4.98379 200.736 9.13591C204.886 13.288 207.782 18.5256 209.093 24.2484V24.2484Z" fill="#F2F2F2"/>
<path d="M175.56 62.0666C174.34 62.0517 173.172 62.0105 172.054 61.9431C173.214 62.1219 174.39 62.1633 175.56 62.0666V62.0666Z" fill="#F2F2F2"/>
<path d="M148.444 31.1406C148.725 14.4445 162.028 0.856876 178.725 0.856876C181.018 0.613364 183.329 0.585075 185.627 0.772376C181.068 -0.262361 176.334 -0.257374 171.777 0.786966C167.22 1.8313 162.957 3.8882 159.303 6.80513C155.649 9.72205 152.699 13.4242 150.67 17.6369C148.642 21.8497 147.588 26.465 147.587 31.1406C147.587 46.9722 148.153 60.4789 172.054 61.9431C159.945 60.1038 148.223 44.2508 148.444 31.1406Z" fill="#F2F2F2"/>
<path d="M208.736 31.6284C203.263 40.9929 181.742 47.8606 178.725 61.4248C177.699 61.7618 176.636 61.9772 175.559 62.0666C176.551 62.0787 177.574 62.0748 178.637 62.0504C195.644 62.0504 209.593 48.5711 209.857 31.6284L208.736 31.6284Z" fill="#F2F2F2"/>
<path d="M181.169 53.8973C177.189 45.2625 175.446 35.9566 176.667 25.7615C176.478 24.5755 177.139 23.3869 178.144 23.1047L196.163 18.0701C197.169 17.7905 198.137 18.5237 198.328 19.7091L202.83 47.8449C203.019 49.0309 202.358 50.2195 201.353 50.5017L183.334 55.5363C182.328 55.8159 181.36 55.0827 181.169 53.8973Z" fill="#F2F2F2"/>
<path d="M189.703 21.1826C189.963 19.1724 188.813 17.367 187.135 17.1502C185.457 16.9334 183.887 18.3873 183.627 20.3975C183.367 22.4077 184.517 24.2131 186.195 24.4299C187.873 24.6467 189.443 23.1929 189.703 21.1826Z" fill="#F2F2F2"/>
<path d="M156.752 40.1382C152.772 31.5034 151.029 22.1974 152.25 12.0023C152.061 10.8163 152.722 9.62778 153.728 9.3455L171.746 4.31092C172.752 4.03133 173.721 4.76454 173.912 5.94994L178.414 34.0857C178.602 35.2718 177.941 36.4603 176.936 36.7426L158.917 41.7772C157.912 42.0567 156.943 41.3235 156.752 40.1382Z" fill="#F2F2F2"/>
<path d="M165.286 7.42348C165.546 5.41326 164.396 3.60788 162.719 3.39107C161.041 3.17427 159.47 4.62814 159.21 6.63837C158.951 8.64859 160.1 10.454 161.778 10.6708C163.456 10.8876 165.027 9.43371 165.286 7.42348Z" fill="#F2F2F2"/>
<path d="M181.415 133.618H0V134.208H181.415V133.618Z" fill="#3F3D56"/>
<path d="M73.793 63.951C73.579 63.202 76.5709 70.0675 75.8592 70.1502C72.6174 70.5221 65.4341 72.1989 63.1763 73.1022C63.0746 73.0904 62.9729 73.0786 62.8742 73.0638C62.632 73.0372 62.3957 72.9989 62.1625 72.9546C56.905 71.9598 52.9276 67.641 52.8199 62.4278C52.8139 62.354 52.8139 62.2773 52.8139 62.2035C52.8133 61.8435 52.8322 61.4838 52.8708 61.126C52.9203 60.6373 53.0052 60.1529 53.125 59.6766L53.113 59.6736C51.0196 57.7076 51.9018 54.0619 54.5694 52.5239C55.7285 51.8574 57.0139 51.4401 58.3435 51.2988C58.704 51.2597 59.0664 51.24 59.4291 51.2398H62.8353C63.5402 51.0879 64.2546 50.9843 64.9736 50.9298H64.9796C71.8369 50.4073 77.2439 54.5874 76.7385 59.6736C76.7355 59.6795 76.7295 59.6854 76.7265 59.6913C76.58 59.9098 76.4514 60.1164 76.3377 60.3142C76.2271 60.5002 76.1344 60.6773 76.0536 60.8456C75.4286 62.1444 77.0353 63.7788 75.9699 64.0839C74.553 64.4896 79.6964 77.8254 74.0882 77.8254C76.8161 78.601 74.3833 66.0174 73.793 63.951Z" fill="#2F2E41"/>
<path d="M105.083 192.853L109.506 192.815L111.463 175.358L104.937 175.413L105.083 192.853Z" fill="#FFB6B6"/>
<path d="M119.249 199.886C119.253 200.41 119.049 200.915 118.682 201.289C118.314 201.663 117.813 201.875 117.289 201.881L108.496 201.954L106.957 198.834L106.391 201.97L103.074 202L103.911 190.814L105.066 190.737L109.774 190.412L111.293 190.31L111.32 193.476L118.383 198.267C118.648 198.446 118.865 198.688 119.016 198.97C119.166 199.252 119.247 199.566 119.249 199.886Z" fill="#2F2E41"/>
<path d="M110.69 184.097C108.93 183.884 104.491 183.506 104.491 183.506C104.491 183.506 102.395 179.132 102.735 177.771C103.068 176.404 103.901 176.126 103.127 175.412C101.244 168.451 101.545 157.145 101.545 157.145C101.545 157.145 91.4089 152.236 81.1458 146.553C71.1129 140.995 60.959 134.698 60.041 131.525C59.4351 129.255 59.0282 126.937 58.8248 124.597C58.6714 123.062 58.5769 121.556 58.5179 120.207C58.3791 117.119 58.4352 114.837 58.4352 114.837L71.225 114.625L79.6965 114.43H80.582V115.906L82.8076 119.69C82.8076 119.69 86.6537 124.163 86.202 124.579C85.656 125.084 85.8213 125.532 87.7606 125.898C88.312 125.995 88.8738 126.018 89.4312 125.966C92.563 125.727 93.8736 127.519 93.9503 127.912C94.4757 130.684 99.7445 136.706 104.68 141.845H104.683C109.237 146.592 113.505 150.583 113.505 150.583L113.747 155.675L114.884 179.483C114.884 179.483 112.753 178.29 114.657 180.861C116.56 183.436 112.449 184.306 110.69 184.097Z" fill="#2F2E41"/>
<path d="M158.673 128.738L160.479 124.7L145.418 115.659L142.753 121.618L158.673 128.738Z" fill="#FFB6B6"/>
<path d="M170.96 118.779C171.439 118.994 171.812 119.389 172 119.879C172.187 120.369 172.172 120.913 171.959 121.392L168.368 129.42L164.89 129.522L167.507 131.34L166.155 134.37L156.331 128.956L156.741 127.874L158.405 123.457L158.944 122.033L161.833 123.325L169.128 118.894C169.401 118.728 169.711 118.631 170.03 118.611C170.349 118.591 170.668 118.649 170.96 118.779V118.779Z" fill="#2F2E41"/>
<path d="M150.926 118.964C150.916 118.987 150.903 119.008 150.893 119.027C150.07 120.538 148.72 124.032 148.636 124.248C148.633 124.252 148.632 124.256 148.631 124.261C148.631 124.261 144.176 124.031 143.037 123.214C141.896 122.391 143.623 123.692 140.992 121.971C139.631 121.076 134.972 119.679 130.798 118.537C126.915 117.475 123.455 116.64 123.455 116.64C123.455 116.64 120.397 119.424 115.966 123.271L115.964 123.273C111.849 126.838 106.545 131.321 101.406 135.336C90.4021 138.572 78.7884 141.377 75.8852 139.801C73.8443 138.638 71.9086 137.299 70.1002 135.8L73.0899 127.963L80.9962 119.682L89.3187 116.3L92.5744 114.977L97.1333 113.126L121.816 103.097L149.15 112.566C149.15 112.566 147.246 114.104 150.344 113.292C153.401 112.494 151.786 117.345 150.926 118.964Z" fill="#2F2E41"/>
<path d="M64.6426 73.3973H73.4978L74.892 76.475L80.8223 79.1176C81.5935 79.4618 82.2731 79.9825 82.8062 80.6376C83.3392 81.2927 83.7109 82.064 83.8912 82.8891C86.0266 92.6517 83.3255 94.6801 83.2385 97.8988C82.9433 108.821 81.4224 110.994 81.5925 113.69C81.6434 114.497 82.136 117.688 83.7203 117.387C85.3047 117.087 84.4506 118.348 84.8256 118.838C85.1496 119.262 86.8535 118.7 85.7839 120.107C84.7144 121.515 89.287 125.352 86.4854 125.352C81.1723 125.352 70.5461 128.009 66.4137 128.009C62.2813 128.009 59.0878 129.234 57.2634 129.19C56.1514 129.163 56.499 123.977 56.9435 119.486C57.0441 118.469 58.9966 118.496 57.2445 116.61C55.4923 114.725 57.5548 113.745 57.5585 113.249C57.5625 112.722 58.5518 111.394 57.3172 109.222C56.0827 107.05 57.2207 107.949 57.1671 107.267C56.7539 102.011 56.1617 95.309 56.1617 95.309L53.5513 87.9616C52.8841 86.0836 52.9723 84.0197 53.7974 82.2055C54.6224 80.3912 56.1198 78.9684 57.9737 78.237L61.0357 77.0291L64.6426 73.3973Z" fill="#23A390"/>
<path d="M126.834 70.6873C126.637 71.0545 126.363 71.3745 126.031 71.6252C125.698 71.876 125.315 72.0515 124.908 72.1396C124.501 72.2277 124.079 72.2263 123.673 72.1355C123.266 72.0448 122.884 71.8668 122.553 71.6138L110.079 78.6767L107.277 75.7063L122.154 67.426C122.622 66.9005 123.265 66.5646 123.963 66.482C124.662 66.3995 125.366 66.5759 125.943 66.9779C126.52 67.3799 126.929 67.9795 127.093 68.6632C127.257 69.3469 127.165 70.0671 126.834 70.6873V70.6873Z" fill="#FFB6B6"/>
<path d="M70.6682 87.3588L70.4783 89.6333L95.3123 89.314L120.032 75.4159L116.418 69.8531L94.6909 78.9892L79.2487 79.3024C77.0755 79.3464 74.9957 80.1943 73.411 81.6822C71.8263 83.1701 70.8492 85.1925 70.6682 87.3588V87.3588Z" fill="#23A390"/>
<path d="M67.6715 71.7759C72.1255 71.7759 75.7362 68.1649 75.7362 63.7105C75.7362 59.256 72.1255 55.645 67.6715 55.645C63.2175 55.645 59.6068 59.256 59.6068 63.7105C59.6068 68.1649 63.2175 71.7759 67.6715 71.7759Z" fill="#FFB6B6"/>
<path d="M76.7385 60.1135C76.6039 60.1843 76.4723 60.2493 76.3378 60.3142C76.1972 60.3821 76.0566 60.45 75.9161 60.512C73.2156 61.7371 71.0176 61.8728 69.6838 60.1135C69.648 59.1877 69.4401 58.2767 69.0707 57.4272C69.1359 58.3766 68.8857 59.3209 68.3589 60.1135H65.6734C62.9071 61.9496 61.4866 62.1415 63.4065 68.1694C63.9419 69.8491 66.0704 79.6231 65.233 81.0726C64.9908 81.046 62.3957 72.9989 62.1625 72.9546C56.905 71.9598 52.9276 67.641 52.8199 62.4278C52.8259 62.1621 52.8439 61.8965 52.8708 61.6367C53.2171 61.116 53.5978 60.619 54.0102 60.1489C54.0081 58.7554 54.3285 57.3803 54.9462 56.1312C55.7278 54.5488 56.9461 53.2232 58.4572 52.3114C59.3578 51.8746 60.2969 51.5218 61.2623 51.2575C61.2862 51.2516 61.3072 51.2457 61.3311 51.2398C61.6271 51.1601 61.9292 51.0863 62.2312 51.0243C62.8552 50.8925 63.4863 50.7969 64.1213 50.738C64.1662 50.735 64.211 50.7321 64.2529 50.7321C64.5064 50.7326 64.7552 50.8009 64.9736 50.9298C64.9766 50.9298 64.9766 50.9328 64.9796 50.9328C65.1356 51.024 65.2719 51.1454 65.3803 51.29C65.5713 51.5332 65.6746 51.8338 65.6734 52.1431H68.664C68.7746 52.1431 68.8853 52.1461 68.9959 52.152C70.9919 52.2202 72.8905 53.0308 74.3203 54.4253C75.7501 55.8197 76.6082 57.6975 76.7265 59.6913C76.7355 59.833 76.7385 59.9718 76.7385 60.1135Z" fill="#2F2E41"/>
<path d="M56.673 61.5894C59.6074 61.5894 61.9861 59.2105 61.9861 56.2759C61.9861 53.3412 59.6074 50.9623 56.673 50.9623C53.7387 50.9623 51.3599 53.3412 51.3599 56.2759C51.3599 59.2105 53.7387 61.5894 56.673 61.5894Z" fill="#2F2E41"/>
<path d="M63.1668 52.143C63.2682 55.0759 60.788 57.4566 57.8537 57.4566C56.4446 57.4566 55.0932 56.8968 54.0968 55.9003C53.1004 54.9038 52.5406 53.5523 52.5406 52.143C52.5406 49.2084 56.0943 49.1781 57.8537 46.8295C60.3426 43.5071 63.0299 48.1879 63.1668 52.143Z" fill="#2F2E41"/>
<path d="M70.1136 135.265C69.2886 123.023 71.7037 111.506 78.4112 100.953C78.5799 100.259 79.0171 99.6596 79.6269 99.2873C80.2367 98.915 80.9692 98.7998 81.6638 98.967L107.575 105.234C108.269 105.403 108.868 105.84 109.24 106.45C109.613 107.06 109.728 107.792 109.561 108.487L101.263 142.799C101.094 143.494 100.657 144.093 100.047 144.465C99.4377 144.837 98.7051 144.953 98.0105 144.785L72.0994 138.518C71.4051 138.35 70.8062 137.912 70.4339 137.302C70.0616 136.693 69.9464 135.96 70.1136 135.265V135.265Z" fill="#F2F2F2"/>
<path opacity="0.2" d="M75.1915 137.865C74.4972 137.697 73.8983 137.259 73.526 136.65C73.1537 136.04 73.0385 135.307 73.2057 134.612C72.3807 122.37 74.7959 110.853 81.5032 100.3C81.6163 99.8447 81.8476 99.4274 82.1737 99.0902L81.6639 98.9669C80.9693 98.7997 80.2367 98.9149 79.6269 99.2872C79.0172 99.6595 78.5799 100.258 78.4112 100.953C71.7038 111.506 69.2886 123.022 70.1136 135.265C69.9465 135.96 70.0617 136.693 70.4339 137.302C70.8062 137.912 71.4052 138.349 72.0994 138.518L98.0105 144.785C98.4712 144.895 98.9526 144.881 99.4061 144.745C99.8595 144.608 100.269 144.355 100.593 144.009L75.1915 137.865Z" fill="black"/>
<path d="M98.6516 123.421L81.2764 119.269C81.0001 119.203 80.7615 119.03 80.6129 118.788C80.4643 118.546 80.4179 118.254 80.4839 117.978C80.5499 117.702 80.723 117.463 80.965 117.314C81.207 117.165 81.4981 117.119 81.7745 117.184L99.1497 121.336C99.4254 121.403 99.6633 121.576 99.8113 121.818C99.9594 122.06 100.005 122.351 99.9396 122.627C99.8737 122.903 99.7011 123.141 99.4597 123.29C99.2183 123.439 98.9277 123.486 98.6516 123.421L98.6516 123.421Z" fill="white"/>
<path d="M86.4649 114.465L82.6423 113.552C82.366 113.486 82.1269 113.314 81.9776 113.072C81.8283 112.83 81.7811 112.539 81.8462 112.263C81.9113 111.986 82.0835 111.747 82.325 111.597C82.5664 111.448 82.8574 111.4 83.1339 111.465L83.1405 111.466L86.963 112.38C87.2387 112.447 87.4765 112.62 87.6246 112.862C87.7726 113.104 87.8188 113.395 87.7528 113.671C87.6869 113.947 87.5144 114.185 87.273 114.334C87.0315 114.483 86.741 114.53 86.4649 114.465V114.465Z" fill="white"/>
<path d="M96.4616 132.588L79.0864 128.437C78.8107 128.37 78.5726 128.196 78.4245 127.954C78.2764 127.712 78.2302 127.422 78.2961 127.146C78.3621 126.87 78.5347 126.631 78.7762 126.482C79.0177 126.333 79.3084 126.286 79.5846 126.351L96.9598 130.503C97.097 130.535 97.2265 130.594 97.3409 130.676C97.4554 130.758 97.5525 130.862 97.6267 130.982C97.7009 131.102 97.7508 131.235 97.7735 131.374C97.7962 131.513 97.7912 131.655 97.7589 131.792C97.7266 131.93 97.6676 132.059 97.5852 132.173C97.5028 132.288 97.3987 132.385 97.2788 132.459C97.1589 132.533 97.0257 132.582 96.8866 132.605C96.7475 132.627 96.6053 132.622 96.4682 132.59L96.4616 132.588Z" fill="white"/>
<path d="M97.5566 128.005L80.1814 123.853C79.9048 123.787 79.6657 123.614 79.5166 123.372C79.3675 123.13 79.3207 122.839 79.3864 122.562C79.4521 122.286 79.625 122.047 79.8671 121.897C80.1091 121.748 80.4005 121.701 80.6771 121.767L80.6795 121.768L98.0547 125.919C98.3305 125.986 98.5685 126.16 98.7166 126.401C98.8648 126.643 98.9109 126.934 98.845 127.21C98.7791 127.486 98.6065 127.725 98.3649 127.874C98.1234 128.023 97.8327 128.07 97.5566 128.005L97.5566 128.005Z" fill="white"/>
<path d="M93.8836 106.474C96.3518 106.474 98.3528 104.473 98.3528 102.004C98.3528 99.5358 96.3518 97.5347 93.8836 97.5347C91.4153 97.5347 89.4144 99.5358 89.4144 102.004C89.4144 104.473 91.4153 106.474 93.8836 106.474Z" fill="#3F3D56"/>
<path d="M71.3493 137.824C70.9847 137.623 70.6683 137.344 70.4218 137.008C70.1754 136.673 70.0048 136.287 69.922 135.879C69.8391 135.471 69.8459 135.049 69.9419 134.644C70.0379 134.239 70.2208 133.859 70.4779 133.531L63.5767 120.966L66.5825 118.203L74.6702 133.186C75.1895 133.66 75.5171 134.308 75.5907 135.007C75.6643 135.707 75.4788 136.409 75.0695 136.98C74.6602 137.552 74.0553 137.954 73.3697 138.109C72.684 138.265 71.9651 138.163 71.3493 137.824H71.3493Z" fill="#FFB6B6"/>
<path d="M63.2886 82.2045L55.8659 81.4882C55.5196 81.4548 55.1702 81.4942 54.84 81.6038C54.5099 81.7134 54.2062 81.8909 53.9487 82.1248C53.6912 82.3587 53.4854 82.6439 53.3446 82.9621C53.2037 83.2802 53.131 83.6243 53.131 83.9722V106.063L66.7089 130.961L72.3172 127.419L63.462 105.574L63.2886 82.2045Z" fill="#23A390"/>
<path d="M121.887 80.4119C123.608 68.2626 128.35 57.4936 137.092 48.5531C137.4 47.9087 137.952 47.4129 138.625 47.1745C139.299 46.9362 140.04 46.9748 140.685 47.2818L164.743 58.7657C165.387 59.0742 165.883 59.6258 166.121 60.2993C166.36 60.9729 166.321 61.7135 166.014 62.3587L150.809 94.2175C150.501 94.862 149.95 95.3578 149.276 95.5961C148.602 95.8344 147.862 95.7958 147.217 95.4888L123.159 84.0049C122.514 83.6964 122.018 83.1449 121.78 82.4713C121.542 81.7977 121.58 81.0571 121.887 80.4119V80.4119Z" fill="#F2F2F2"/>
<path opacity="0.2" d="M126.319 84.0047C125.674 83.6963 125.179 83.1447 124.94 82.4711C124.702 81.7976 124.741 81.0569 125.048 80.4118C126.769 68.2624 131.51 57.4935 140.252 48.553C140.457 48.1308 140.769 47.7702 141.158 47.5077L140.685 47.2817C140.04 46.9747 139.299 46.9361 138.626 47.1744C137.952 47.4127 137.4 47.9085 137.092 48.553C128.35 57.4935 123.608 68.2624 121.887 80.4118C121.58 81.0569 121.542 81.7976 121.78 82.4711C122.018 83.1447 122.514 83.6963 123.159 84.0047L147.217 95.4887C147.645 95.6912 148.119 95.777 148.591 95.7373C149.062 95.6976 149.515 95.5339 149.904 95.2627L126.319 84.0047Z" fill="black"/>
<path d="M152.256 74.7174L136.113 67.0665C135.856 66.9448 135.658 66.726 135.562 66.4582C135.467 66.1905 135.482 65.8957 135.603 65.6388C135.725 65.3819 135.944 65.1838 136.212 65.0883C136.479 64.9927 136.774 65.0074 137.031 65.1291L153.174 72.78C153.43 72.9024 153.627 73.1212 153.722 73.3885C153.817 73.6558 153.802 73.9498 153.68 74.2061C153.559 74.4624 153.341 74.6602 153.074 74.756C152.807 74.8518 152.513 74.8379 152.256 74.7174L152.256 74.7174Z" fill="white"/>
<path d="M142.182 63.4374L138.63 61.7542C138.503 61.6945 138.388 61.6101 138.293 61.506C138.198 61.402 138.125 61.2802 138.077 61.1477C138.029 61.0152 138.008 60.8746 138.014 60.7339C138.021 60.5932 138.055 60.4551 138.115 60.3276C138.175 60.2001 138.259 60.0857 138.364 59.9909C138.468 59.8961 138.59 59.8227 138.722 59.775C138.855 59.7273 138.995 59.7062 139.136 59.7129C139.277 59.7196 139.415 59.7539 139.542 59.814L139.548 59.8169L143.1 61.5001C143.356 61.6223 143.553 61.8411 143.648 62.1085C143.743 62.3759 143.728 62.6701 143.606 62.9265C143.485 63.1829 143.267 63.3807 143 63.4765C142.733 63.5722 142.438 63.5582 142.182 63.4374V63.4374Z" fill="white"/>
<path d="M148.22 83.2346L132.077 75.5837C131.821 75.4615 131.624 75.2427 131.529 74.9753C131.434 74.7079 131.449 74.4138 131.57 74.1573C131.692 73.9009 131.91 73.7031 132.177 73.6073C132.444 73.5116 132.738 73.5256 132.995 73.6464L149.138 81.2973C149.266 81.3571 149.38 81.4415 149.475 81.5456C149.57 81.6497 149.643 81.7714 149.691 81.9038C149.738 82.0363 149.76 82.1768 149.753 82.3174C149.746 82.458 149.712 82.596 149.652 82.7234C149.592 82.8508 149.508 82.9651 149.404 83.0599C149.3 83.1547 149.178 83.2281 149.046 83.2758C148.913 83.3236 148.773 83.3447 148.632 83.3382C148.492 83.3316 148.354 83.2974 148.226 83.2375L148.22 83.2346Z" fill="white"/>
<path d="M150.238 78.976L134.095 71.3251C133.838 71.2037 133.64 70.9851 133.544 70.7175C133.448 70.4498 133.462 70.1551 133.584 69.898C133.705 69.6409 133.924 69.4427 134.191 69.3468C134.459 69.2509 134.754 69.2652 135.011 69.3867L135.013 69.3878L151.156 77.0386C151.412 77.161 151.609 77.3798 151.704 77.6471C151.799 77.9144 151.784 78.2085 151.663 78.4649C151.541 78.7212 151.323 78.919 151.056 79.0148C150.789 79.1106 150.495 79.0966 150.238 78.976L150.238 78.976Z" fill="white"/>
<path d="M152.014 57.2472C154.482 57.2472 156.483 55.2461 156.483 52.7776C156.483 50.3091 154.482 48.308 152.014 48.308C149.545 48.308 147.544 50.3091 147.544 52.7776C147.544 55.2461 149.545 57.2472 152.014 57.2472Z" fill="#3F3D56"/>
<path d="M190.58 96.151C185.733 85.6352 183.611 74.302 185.098 61.886C184.868 60.4416 185.673 58.9942 186.897 58.6504L208.841 52.5191C210.066 52.1786 211.246 53.0715 211.478 54.5151L216.961 88.7801C217.191 90.2245 216.386 91.6719 215.161 92.0157L193.217 98.147C191.992 98.4875 190.813 97.5946 190.58 96.151Z" fill="#F2F2F2"/>
<path opacity="0.2" d="M195.353 96.1697C194.129 96.5102 192.949 95.6173 192.717 94.1736C187.87 83.6578 185.747 72.3246 187.234 59.9087C187.163 59.4476 187.196 58.9768 187.329 58.5298L186.897 58.6504C185.673 58.9942 184.868 60.4416 185.097 61.886C183.611 74.302 185.733 85.6352 190.58 96.151C190.813 97.5946 191.992 98.4875 193.217 98.147L215.161 92.0157C215.579 91.8755 215.954 91.6317 216.253 91.307C216.551 90.9823 216.761 90.5874 216.866 90.159L195.353 96.1697Z" fill="black"/>
<path d="M208.292 72.7252L193.594 76.882C193.107 77.0191 192.637 76.6645 192.545 76.0901C192.492 75.8259 192.534 75.5516 192.665 75.3158C192.795 75.0801 193.005 74.8982 193.257 74.8024L207.954 70.6457C208.441 70.5097 208.911 70.8654 209.003 71.4401C209.055 71.7037 209.012 71.9773 208.882 72.2125C208.752 72.4477 208.543 72.6293 208.292 72.7252H208.292Z" fill="white"/>
<path d="M195.901 70.2653L192.668 71.1797C192.181 71.3193 191.71 70.9672 191.615 70.3934C191.561 70.129 191.603 69.854 191.733 69.6175C191.863 69.381 192.073 69.1982 192.325 69.1017L192.33 69.1002L195.564 68.1857C196.051 68.0498 196.52 68.4055 196.612 68.9801C196.664 69.2438 196.622 69.5173 196.491 69.7525C196.361 69.9877 196.152 70.1693 195.901 70.2653Z" fill="white"/>
<path d="M209.777 81.8675L195.08 86.0243C194.593 86.1603 194.123 85.8046 194.031 85.2299C193.979 84.9663 194.022 84.6927 194.152 84.4575C194.282 84.2223 194.491 84.0407 194.742 83.9448L209.439 79.788C209.926 79.6484 210.398 80.0005 210.492 80.5743C210.546 80.8388 210.504 81.1137 210.374 81.3502C210.244 81.5868 210.035 81.7695 209.783 81.866L209.777 81.8675Z" fill="white"/>
<path d="M209.034 77.2964L194.337 81.4532C193.85 81.5916 193.379 81.2384 193.285 80.6644C193.232 80.3999 193.274 80.125 193.405 79.8887C193.535 79.6525 193.745 79.4701 193.997 79.3742L193.999 79.3736L208.697 75.2168C209.184 75.0809 209.653 75.4366 209.745 76.0113C209.797 76.2749 209.755 76.5485 209.625 76.7836C209.494 77.0188 209.285 77.2004 209.034 77.2964L209.034 77.2964Z" fill="white"/>
<path d="M200.974 56.3097C201.29 53.8615 199.89 51.6629 197.847 51.3988C195.803 51.1348 193.891 52.9054 193.574 55.3535C193.258 57.8016 194.658 60.0003 196.701 60.2643C198.745 60.5284 200.657 58.7578 200.974 56.3097Z" fill="#3F3D56"/>
</g>
<defs>
<clipPath id="clip0_83_872">
<rect width="217" height="202" fill="white"/>
</clipPath>
</defs>
</svg>
