<svg width="32" height="32" viewBox="0 0 32 32" fill="none" xmlns="http://www.w3.org/2000/svg">
<path d="M26 30H14C13.4696 30 12.9609 29.7893 12.5858 29.4142C12.2107 29.0391 12 28.5304 12 28V25H14V28H26V4H14V7H12V4C12 3.46957 12.2107 2.96086 12.5858 2.58579C12.9609 2.21071 13.4696 2 14 2H26C26.5304 2 27.0391 2.21071 27.4142 2.58579C27.7893 2.96086 28 3.46957 28 4V28C28 28.5304 27.7893 29.0391 27.4142 29.4142C27.0391 29.7893 26.5304 30 26 30Z" fill="#115046"/>
<path d="M14.59 20.59L18.17 17H4V15H18.17L14.59 11.41L16 10L22 16L16 22L14.59 20.59Z" fill="#115046"/>
</svg>
