<svg width="95" height="42" viewBox="0 0 95 42" fill="none" xmlns="http://www.w3.org/2000/svg">
<path d="M9.50063 14.0155L9.49013 16H0.061125V0.879999H9.49013V2.8645H2.52863V7.4215H8.09363V9.343H2.52863V14.0155H9.50063ZM13.6051 6.7075C13.8361 6.4695 14.0741 6.256 14.3191 6.067C14.5711 5.871 14.8371 5.703 15.1171 5.563C15.3971 5.423 15.6946 5.3145 16.0096 5.2375C16.3246 5.1605 16.6676 5.122 17.0386 5.122C17.6266 5.122 18.1411 5.22 18.5821 5.416C19.0301 5.612 19.4046 5.8885 19.7056 6.2455C20.0136 6.6025 20.2446 7.033 20.3986 7.537C20.5526 8.034 20.6296 8.5835 20.6296 9.1855V16H18.3826V9.1855C18.3826 8.4645 18.2146 7.9045 17.8786 7.5055C17.5496 7.1065 17.0456 6.907 16.3666 6.907C15.8626 6.907 15.3936 7.0225 14.9596 7.2535C14.5326 7.4845 14.1301 7.7995 13.7521 8.1985V16H11.4946V5.29H12.8596C13.1676 5.29 13.3636 5.4335 13.4476 5.7205L13.6051 6.7075ZM26.5561 16.168C25.6671 16.168 24.9811 15.9195 24.4981 15.4225C24.0221 14.9185 23.7841 14.2115 23.7841 13.3015V7.0645H22.6081C22.4821 7.0645 22.3736 7.026 22.2826 6.949C22.1916 6.865 22.1461 6.7425 22.1461 6.5815V5.668L23.8786 5.416L24.3721 2.3185C24.4071 2.1995 24.4666 2.105 24.5506 2.035C24.6346 1.958 24.7466 1.9195 24.8866 1.9195H26.0416V5.437H29.0131V7.0645H26.0416V13.144C26.0416 13.529 26.1361 13.823 26.3251 14.026C26.5141 14.229 26.7661 14.3305 27.0811 14.3305C27.2561 14.3305 27.4066 14.3095 27.5326 14.2675C27.6586 14.2185 27.7671 14.1695 27.8581 14.1205C27.9491 14.0645 28.0261 14.0155 28.0891 13.9735C28.1591 13.9245 28.2256 13.9 28.2886 13.9C28.4146 13.9 28.5161 13.97 28.5931 14.11L29.2651 15.2125C28.9151 15.5205 28.5021 15.7585 28.0261 15.9265C27.5501 16.0875 27.0601 16.168 26.5561 16.168ZM37.735 9.4375C37.735 9.0595 37.679 8.7095 37.567 8.3875C37.462 8.0585 37.3045 7.775 37.0945 7.537C36.8845 7.292 36.622 7.103 36.307 6.97C35.999 6.83 35.642 6.76 35.236 6.76C34.417 6.76 33.773 6.9945 33.304 7.4635C32.835 7.9325 32.5375 8.5905 32.4115 9.4375H37.735ZM32.3485 10.8235C32.3765 11.4325 32.471 11.961 32.632 12.409C32.793 12.85 33.0065 13.2175 33.2725 13.5115C33.5455 13.8055 33.8675 14.026 34.2385 14.173C34.6165 14.313 35.0365 14.383 35.4985 14.383C35.9395 14.383 36.321 14.334 36.643 14.236C36.965 14.131 37.245 14.019 37.483 13.9C37.721 13.774 37.924 13.662 38.092 13.564C38.26 13.459 38.414 13.4065 38.554 13.4065C38.736 13.4065 38.876 13.4765 38.974 13.6165L39.6145 14.446C39.3485 14.761 39.0475 15.027 38.7115 15.244C38.3755 15.461 38.0185 15.6395 37.6405 15.7795C37.2625 15.9125 36.874 16.007 36.475 16.063C36.076 16.126 35.6875 16.1575 35.3095 16.1575C34.5675 16.1575 33.878 16.035 33.241 15.79C32.611 15.538 32.0615 15.1705 31.5925 14.6875C31.1305 14.2045 30.7665 13.606 30.5005 12.892C30.2415 12.178 30.112 11.3555 30.112 10.4245C30.112 9.6825 30.2275 8.9895 30.4585 8.3455C30.6965 7.7015 31.0325 7.1415 31.4665 6.6655C31.9075 6.1895 32.4395 5.815 33.0625 5.542C33.6925 5.262 34.403 5.122 35.194 5.122C35.852 5.122 36.461 5.2305 37.021 5.4475C37.581 5.6575 38.064 5.969 38.47 6.382C38.876 6.795 39.191 7.3025 39.415 7.9045C39.646 8.4995 39.7615 9.1785 39.7615 9.9415C39.7615 10.2915 39.723 10.526 39.646 10.645C39.569 10.764 39.429 10.8235 39.226 10.8235H32.3485ZM43.9982 7.2745C44.3342 6.5955 44.7402 6.0635 45.2162 5.6785C45.6922 5.2865 46.2627 5.0905 46.9277 5.0905C47.1587 5.0905 47.3757 5.1185 47.5787 5.1745C47.7817 5.2235 47.9637 5.3005 48.1247 5.4055L47.9672 7.1065C47.9392 7.2255 47.8937 7.3095 47.8307 7.3585C47.7747 7.4005 47.6977 7.4215 47.5997 7.4215C47.4947 7.4215 47.3442 7.404 47.1482 7.369C46.9522 7.327 46.7457 7.306 46.5287 7.306C46.2137 7.306 45.9337 7.3515 45.6887 7.4425C45.4507 7.5335 45.2337 7.6665 45.0377 7.8415C44.8487 8.0165 44.6807 8.23 44.5337 8.482C44.3867 8.734 44.2502 9.021 44.1242 9.343V16H41.8667V5.29H43.1792C43.4172 5.29 43.5817 5.3355 43.6727 5.4265C43.7637 5.5105 43.8267 5.661 43.8617 5.878L43.9982 7.2745ZM60.0872 10.078V16H57.6407V10.078L52.1177 0.879999H54.2702C54.4872 0.879999 54.6587 0.932499 54.7847 1.0375C54.9107 1.1425 55.0157 1.2755 55.0997 1.4365L58.1972 6.8545C58.3372 7.1275 58.4632 7.3865 58.5752 7.6315C58.6942 7.8765 58.7992 8.118 58.8902 8.356C58.9672 8.111 59.0617 7.8695 59.1737 7.6315C59.2857 7.3865 59.4117 7.1275 59.5517 6.8545L62.6282 1.4365C62.6982 1.2965 62.7997 1.1705 62.9327 1.0585C63.0657 0.939499 63.2372 0.879999 63.4472 0.879999H65.6102L60.0872 10.078ZM69.2199 5.122C70.0109 5.122 70.7249 5.2515 71.3619 5.5105C72.0059 5.7695 72.5519 6.137 72.9999 6.613C73.4549 7.089 73.8049 7.6665 74.0499 8.3455C74.2949 9.0245 74.4174 9.7875 74.4174 10.6345C74.4174 11.4815 74.2949 12.2445 74.0499 12.9235C73.8049 13.6025 73.4549 14.1835 72.9999 14.6665C72.5519 15.1425 72.0059 15.51 71.3619 15.769C70.7249 16.028 70.0109 16.1575 69.2199 16.1575C68.4219 16.1575 67.7009 16.028 67.0569 15.769C66.4199 15.51 65.8739 15.1425 65.4189 14.6665C64.9639 14.1835 64.6139 13.6025 64.3689 12.9235C64.1239 12.2445 64.0014 11.4815 64.0014 10.6345C64.0014 9.7875 64.1239 9.0245 64.3689 8.3455C64.6139 7.6665 64.9639 7.089 65.4189 6.613C65.8739 6.137 66.4199 5.7695 67.0569 5.5105C67.7009 5.2515 68.4219 5.122 69.2199 5.122ZM69.2199 14.3935C70.1859 14.3935 70.9034 14.0715 71.3724 13.4275C71.8484 12.7765 72.0864 11.849 72.0864 10.645C72.0864 9.441 71.8484 8.5135 71.3724 7.8625C70.9034 7.2045 70.1859 6.8755 69.2199 6.8755C68.2399 6.8755 67.5119 7.2045 67.0359 7.8625C66.5599 8.5135 66.3219 9.441 66.3219 10.645C66.3219 11.849 66.5599 12.7765 67.0359 13.4275C67.5119 14.0715 68.2399 14.3935 69.2199 14.3935ZM85.6164 5.29V16H84.2514C83.9504 16 83.7579 15.8565 83.6739 15.5695L83.5059 14.572C83.2819 14.81 83.0439 15.027 82.7919 15.223C82.5469 15.419 82.2844 15.587 82.0044 15.727C81.7244 15.867 81.4234 15.9755 81.1014 16.0525C80.7864 16.1295 80.4469 16.168 80.0829 16.168C79.4949 16.168 78.9769 16.07 78.5289 15.874C78.0809 15.678 77.7029 15.4015 77.3949 15.0445C77.0939 14.6875 76.8664 14.2605 76.7124 13.7635C76.5584 13.2595 76.4814 12.7065 76.4814 12.1045V5.29H78.7389V12.1045C78.7389 12.8255 78.9034 13.3855 79.2324 13.7845C79.5684 14.1835 80.0759 14.383 80.7549 14.383C81.2519 14.383 81.7139 14.271 82.1409 14.047C82.5749 13.816 82.9809 13.501 83.3589 13.102V5.29H85.6164ZM90.4894 7.2745C90.8254 6.5955 91.2314 6.0635 91.7074 5.6785C92.1834 5.2865 92.7539 5.0905 93.4189 5.0905C93.6499 5.0905 93.8669 5.1185 94.0699 5.1745C94.2729 5.2235 94.4549 5.3005 94.6159 5.4055L94.4584 7.1065C94.4304 7.2255 94.3849 7.3095 94.3219 7.3585C94.2659 7.4005 94.1889 7.4215 94.0909 7.4215C93.9859 7.4215 93.8354 7.404 93.6394 7.369C93.4434 7.327 93.2369 7.306 93.0199 7.306C92.7049 7.306 92.4249 7.3515 92.1799 7.4425C91.9419 7.5335 91.7249 7.6665 91.5289 7.8415C91.3399 8.0165 91.1719 8.23 91.0249 8.482C90.8779 8.734 90.7414 9.021 90.6154 9.343V16H88.3579V5.29H89.6704C89.9084 5.29 90.0729 5.3355 90.1639 5.4265C90.2549 5.5105 90.3179 5.661 90.3529 5.878L90.4894 7.2745ZM8.41552 33.587C8.96152 33.587 9.44102 33.517 9.85402 33.377C10.274 33.237 10.6205 33.041 10.8935 32.789C11.1735 32.53 11.3835 32.2185 11.5235 31.8545C11.6635 31.4905 11.7335 31.0845 11.7335 30.6365C11.7335 30.1955 11.6635 29.8 11.5235 29.45C11.3905 29.1 11.1875 28.8025 10.9145 28.5575C10.6415 28.3125 10.295 28.127 9.87502 28.001C9.46202 27.868 8.97552 27.8015 8.41552 27.8015H6.16852V33.587H8.41552ZM8.41552 25.88C9.40252 25.88 10.2565 25.9955 10.9775 26.2265C11.7055 26.4575 12.304 26.783 12.773 27.203C13.249 27.616 13.6025 28.1165 13.8335 28.7045C14.0645 29.2855 14.18 29.9295 14.18 30.6365C14.18 31.3575 14.0575 32.019 13.8125 32.621C13.5675 33.216 13.2035 33.7305 12.7205 34.1645C12.2375 34.5915 11.6355 34.9275 10.9145 35.1725C10.2005 35.4105 9.36752 35.5295 8.41552 35.5295H6.16852V41H3.71152V25.88H8.41552ZM21.5033 36.317C20.6983 36.345 20.0193 36.4115 19.4663 36.5165C18.9133 36.6145 18.4653 36.744 18.1223 36.905C17.7793 37.059 17.5308 37.2445 17.3768 37.4615C17.2298 37.6785 17.1563 37.9165 17.1563 38.1755C17.1563 38.4275 17.1948 38.6445 17.2718 38.8265C17.3558 39.0015 17.4678 39.1485 17.6078 39.2675C17.7548 39.3795 17.9228 39.4635 18.1118 39.5195C18.3078 39.5685 18.5213 39.593 18.7523 39.593C19.3403 39.593 19.8443 39.4845 20.2643 39.2675C20.6913 39.0435 21.1043 38.7215 21.5033 38.3015V36.317ZM15.5183 31.781C16.7293 30.654 18.1713 30.0905 19.8443 30.0905C20.4603 30.0905 21.0063 30.192 21.4823 30.395C21.9653 30.591 22.3678 30.871 22.6898 31.235C23.0188 31.599 23.2673 32.033 23.4353 32.537C23.6103 33.034 23.6978 33.587 23.6978 34.196V41H22.6898C22.4728 41 22.3083 40.9685 22.1963 40.9055C22.0843 40.8355 21.9898 40.699 21.9128 40.496L21.6923 39.6245C21.4193 39.8695 21.1498 40.09 20.8838 40.286C20.6178 40.475 20.3413 40.636 20.0543 40.769C19.7743 40.902 19.4698 41 19.1408 41.063C18.8188 41.133 18.4618 41.168 18.0698 41.168C17.6358 41.168 17.2298 41.1085 16.8518 40.9895C16.4808 40.8705 16.1588 40.692 15.8858 40.454C15.6128 40.209 15.3958 39.908 15.2348 39.551C15.0808 39.194 15.0038 38.774 15.0038 38.291C15.0038 37.878 15.1123 37.4755 15.3293 37.0835C15.5533 36.6915 15.9173 36.3415 16.4213 36.0335C16.9323 35.7185 17.6008 35.4595 18.4268 35.2565C19.2598 35.0535 20.2853 34.938 21.5033 34.91V34.196C21.5033 33.426 21.3388 32.852 21.0098 32.474C20.6808 32.096 20.1978 31.907 19.5608 31.907C19.1268 31.907 18.7628 31.963 18.4688 32.075C18.1748 32.18 17.9193 32.2955 17.7023 32.4215C17.4853 32.5475 17.2928 32.6665 17.1248 32.7785C16.9568 32.8835 16.7783 32.936 16.5893 32.936C16.4353 32.936 16.3023 32.8975 16.1903 32.8205C16.0853 32.7365 15.9978 32.635 15.9278 32.516L15.5183 31.781ZM32.7368 32.2325C32.6808 32.3305 32.6178 32.4005 32.5478 32.4425C32.4778 32.4845 32.3903 32.5055 32.2853 32.5055C32.1663 32.5055 32.0368 32.4705 31.8968 32.4005C31.7568 32.3235 31.5923 32.2395 31.4033 32.1485C31.2143 32.0575 30.9903 31.977 30.7313 31.907C30.4793 31.83 30.1818 31.7915 29.8388 31.7915C29.5588 31.7915 29.3033 31.8265 29.0723 31.8965C28.8483 31.9595 28.6558 32.054 28.4948 32.18C28.3408 32.299 28.2218 32.4425 28.1378 32.6105C28.0538 32.7715 28.0118 32.9465 28.0118 33.1355C28.0118 33.3875 28.0888 33.5975 28.2428 33.7655C28.3968 33.9335 28.5998 34.0805 28.8518 34.2065C29.1038 34.3255 29.3908 34.434 29.7128 34.532C30.0348 34.63 30.3638 34.735 30.6998 34.847C31.0358 34.959 31.3648 35.0885 31.6868 35.2355C32.0088 35.3825 32.2958 35.5645 32.5478 35.7815C32.7998 35.9915 33.0028 36.2505 33.1568 36.5585C33.3108 36.8595 33.3878 37.227 33.3878 37.661C33.3878 38.165 33.2968 38.6305 33.1148 39.0575C32.9328 39.4845 32.6668 39.8555 32.3168 40.1705C31.9668 40.4855 31.5293 40.7305 31.0043 40.9055C30.4863 41.0805 29.8913 41.168 29.2193 41.168C28.8483 41.168 28.4878 41.133 28.1378 41.063C27.7948 41 27.4658 40.9125 27.1508 40.8005C26.8428 40.6815 26.5523 40.5415 26.2793 40.3805C26.0133 40.2195 25.7753 40.0445 25.5653 39.8555L26.0903 38.9945C26.1533 38.8895 26.2303 38.809 26.3213 38.753C26.4193 38.69 26.5383 38.6585 26.6783 38.6585C26.8253 38.6585 26.9688 38.7075 27.1088 38.8055C27.2558 38.8965 27.4238 38.998 27.6128 39.11C27.8088 39.222 28.0433 39.327 28.3163 39.425C28.5893 39.516 28.9288 39.5615 29.3348 39.5615C29.6708 39.5615 29.9613 39.523 30.2063 39.446C30.4513 39.362 30.6543 39.25 30.8153 39.11C30.9763 38.97 31.0953 38.8125 31.1723 38.6375C31.2493 38.4555 31.2878 38.263 31.2878 38.06C31.2878 37.787 31.2108 37.563 31.0568 37.388C30.9028 37.213 30.6963 37.0625 30.4373 36.9365C30.1853 36.8105 29.8948 36.6985 29.5658 36.6005C29.2438 36.5025 28.9148 36.3975 28.5788 36.2855C28.2428 36.1735 27.9103 36.044 27.5813 35.897C27.2593 35.75 26.9688 35.5645 26.7098 35.3405C26.4578 35.1095 26.2548 34.833 26.1008 34.511C25.9468 34.182 25.8698 33.783 25.8698 33.314C25.8698 32.887 25.9538 32.481 26.1218 32.096C26.2968 31.711 26.5488 31.3715 26.8778 31.0775C27.2138 30.7835 27.6233 30.5525 28.1063 30.3845C28.5963 30.2095 29.1598 30.122 29.7968 30.122C30.5178 30.122 31.1723 30.2375 31.7603 30.4685C32.3483 30.6995 32.8418 31.0145 33.2408 31.4135L32.7368 32.2325ZM41.9038 32.2325C41.8478 32.3305 41.7848 32.4005 41.7148 32.4425C41.6448 32.4845 41.5573 32.5055 41.4523 32.5055C41.3333 32.5055 41.2038 32.4705 41.0638 32.4005C40.9238 32.3235 40.7593 32.2395 40.5703 32.1485C40.3813 32.0575 40.1573 31.977 39.8983 31.907C39.6463 31.83 39.3488 31.7915 39.0058 31.7915C38.7258 31.7915 38.4703 31.8265 38.2393 31.8965C38.0153 31.9595 37.8228 32.054 37.6618 32.18C37.5078 32.299 37.3888 32.4425 37.3048 32.6105C37.2208 32.7715 37.1788 32.9465 37.1788 33.1355C37.1788 33.3875 37.2558 33.5975 37.4098 33.7655C37.5638 33.9335 37.7668 34.0805 38.0188 34.2065C38.2708 34.3255 38.5578 34.434 38.8798 34.532C39.2018 34.63 39.5308 34.735 39.8668 34.847C40.2028 34.959 40.5318 35.0885 40.8538 35.2355C41.1758 35.3825 41.4628 35.5645 41.7148 35.7815C41.9668 35.9915 42.1698 36.2505 42.3238 36.5585C42.4778 36.8595 42.5548 37.227 42.5548 37.661C42.5548 38.165 42.4638 38.6305 42.2818 39.0575C42.0998 39.4845 41.8338 39.8555 41.4838 40.1705C41.1338 40.4855 40.6963 40.7305 40.1713 40.9055C39.6533 41.0805 39.0583 41.168 38.3863 41.168C38.0153 41.168 37.6548 41.133 37.3048 41.063C36.9618 41 36.6328 40.9125 36.3178 40.8005C36.0098 40.6815 35.7193 40.5415 35.4463 40.3805C35.1803 40.2195 34.9423 40.0445 34.7323 39.8555L35.2573 38.9945C35.3203 38.8895 35.3973 38.809 35.4883 38.753C35.5863 38.69 35.7053 38.6585 35.8453 38.6585C35.9923 38.6585 36.1358 38.7075 36.2758 38.8055C36.4228 38.8965 36.5908 38.998 36.7798 39.11C36.9758 39.222 37.2103 39.327 37.4833 39.425C37.7563 39.516 38.0958 39.5615 38.5018 39.5615C38.8378 39.5615 39.1283 39.523 39.3733 39.446C39.6183 39.362 39.8213 39.25 39.9823 39.11C40.1433 38.97 40.2623 38.8125 40.3393 38.6375C40.4163 38.4555 40.4548 38.263 40.4548 38.06C40.4548 37.787 40.3778 37.563 40.2238 37.388C40.0698 37.213 39.8633 37.0625 39.6043 36.9365C39.3523 36.8105 39.0618 36.6985 38.7328 36.6005C38.4108 36.5025 38.0818 36.3975 37.7458 36.2855C37.4098 36.1735 37.0773 36.044 36.7483 35.897C36.4263 35.75 36.1358 35.5645 35.8768 35.3405C35.6248 35.1095 35.4218 34.833 35.2678 34.511C35.1138 34.182 35.0368 33.783 35.0368 33.314C35.0368 32.887 35.1208 32.481 35.2888 32.096C35.4638 31.711 35.7158 31.3715 36.0448 31.0775C36.3808 30.7835 36.7903 30.5525 37.2733 30.3845C37.7633 30.2095 38.3268 30.122 38.9638 30.122C39.6848 30.122 40.3393 30.2375 40.9273 30.4685C41.5153 30.6995 42.0088 31.0145 42.4078 31.4135L41.9038 32.2325ZM59.7228 30.29L56.2893 41H54.4938C54.2838 41 54.1368 40.8635 54.0528 40.5905L51.9213 33.923C51.8653 33.734 51.8128 33.545 51.7638 33.356C51.7218 33.167 51.6833 32.9815 51.6483 32.7995C51.5713 33.1775 51.4768 33.5555 51.3648 33.9335L49.2018 40.5905C49.1248 40.8635 48.9603 41 48.7083 41H46.9968L43.5633 30.29H45.3483C45.5233 30.29 45.6668 30.3355 45.7788 30.4265C45.8978 30.5105 45.9748 30.612 46.0098 30.731L47.7948 36.968C47.8648 37.255 47.9243 37.535 47.9733 37.808C48.0293 38.074 48.0783 38.34 48.1203 38.606C48.1903 38.34 48.2638 38.074 48.3408 37.808C48.4178 37.535 48.4983 37.255 48.5823 36.968L50.5878 30.6995C50.6228 30.5735 50.6928 30.472 50.7978 30.395C50.9098 30.311 51.0428 30.269 51.1968 30.269H52.1838C52.3448 30.269 52.4813 30.311 52.5933 30.395C52.7053 30.472 52.7788 30.5735 52.8138 30.6995L54.7668 36.968C54.8508 37.255 54.9278 37.535 54.9978 37.808C55.0748 38.081 55.1448 38.354 55.2078 38.627C55.2568 38.361 55.3093 38.0915 55.3653 37.8185C55.4213 37.5455 55.4878 37.262 55.5648 36.968L57.3813 30.731C57.4233 30.605 57.5003 30.5 57.6123 30.416C57.7243 30.332 57.8608 30.29 58.0218 30.29H59.7228ZM65.8361 30.122C66.6271 30.122 67.3411 30.2515 67.9781 30.5105C68.6221 30.7695 69.1681 31.137 69.6161 31.613C70.0711 32.089 70.4211 32.6665 70.6661 33.3455C70.9111 34.0245 71.0336 34.7875 71.0336 35.6345C71.0336 36.4815 70.9111 37.2445 70.6661 37.9235C70.4211 38.6025 70.0711 39.1835 69.6161 39.6665C69.1681 40.1425 68.6221 40.51 67.9781 40.769C67.3411 41.028 66.6271 41.1575 65.8361 41.1575C65.0381 41.1575 64.3171 41.028 63.6731 40.769C63.0361 40.51 62.4901 40.1425 62.0351 39.6665C61.5801 39.1835 61.2301 38.6025 60.9851 37.9235C60.7401 37.2445 60.6176 36.4815 60.6176 35.6345C60.6176 34.7875 60.7401 34.0245 60.9851 33.3455C61.2301 32.6665 61.5801 32.089 62.0351 31.613C62.4901 31.137 63.0361 30.7695 63.6731 30.5105C64.3171 30.2515 65.0381 30.122 65.8361 30.122ZM65.8361 39.3935C66.8021 39.3935 67.5196 39.0715 67.9886 38.4275C68.4646 37.7765 68.7026 36.849 68.7026 35.645C68.7026 34.441 68.4646 33.5135 67.9886 32.8625C67.5196 32.2045 66.8021 31.8755 65.8361 31.8755C64.8561 31.8755 64.1281 32.2045 63.6521 32.8625C63.1761 33.5135 62.9381 34.441 62.9381 35.645C62.9381 36.849 63.1761 37.7765 63.6521 38.4275C64.1281 39.0715 64.8561 39.3935 65.8361 39.3935ZM75.3341 32.2745C75.6701 31.5955 76.0761 31.0635 76.5521 30.6785C77.0281 30.2865 77.5986 30.0905 78.2636 30.0905C78.4946 30.0905 78.7116 30.1185 78.9146 30.1745C79.1176 30.2235 79.2996 30.3005 79.4606 30.4055L79.3031 32.1065C79.2751 32.2255 79.2296 32.3095 79.1666 32.3585C79.1106 32.4005 79.0336 32.4215 78.9356 32.4215C78.8306 32.4215 78.6801 32.404 78.4841 32.369C78.2881 32.327 78.0816 32.306 77.8646 32.306C77.5496 32.306 77.2696 32.3515 77.0246 32.4425C76.7866 32.5335 76.5696 32.6665 76.3736 32.8415C76.1846 33.0165 76.0166 33.23 75.8696 33.482C75.7226 33.734 75.5861 34.021 75.4601 34.343V41H73.2026V30.29H74.5151C74.7531 30.29 74.9176 30.3355 75.0086 30.4265C75.0996 30.5105 75.1626 30.661 75.1976 30.878L75.3341 32.2745ZM87.4415 32.9255C87.1265 32.5195 86.78 32.236 86.402 32.075C86.024 31.914 85.6145 31.8335 85.1735 31.8335C84.2915 31.8335 83.602 32.159 83.105 32.81C82.608 33.454 82.3595 34.4095 82.3595 35.6765C82.3595 36.3345 82.4155 36.898 82.5275 37.367C82.6395 37.829 82.8005 38.207 83.0105 38.501C83.2205 38.795 83.476 39.0085 83.777 39.1415C84.078 39.2745 84.4175 39.341 84.7955 39.341C85.3695 39.341 85.863 39.2185 86.276 38.9735C86.696 38.7215 87.0845 38.368 87.4415 37.913V32.9255ZM89.699 25.46V41H88.334C88.033 41 87.8405 40.8565 87.7565 40.5695L87.557 39.404C87.109 39.929 86.598 40.3525 86.024 40.6745C85.457 40.9965 84.7955 41.1575 84.0395 41.1575C83.4375 41.1575 82.8915 41.0385 82.4015 40.8005C81.9115 40.5555 81.4915 40.202 81.1415 39.74C80.7915 39.278 80.5185 38.7075 80.3225 38.0285C80.1335 37.3425 80.039 36.5585 80.039 35.6765C80.039 34.8785 80.144 34.14 80.354 33.461C80.571 32.782 80.879 32.194 81.278 31.697C81.677 31.193 82.16 30.801 82.727 30.521C83.301 30.234 83.9415 30.0905 84.6485 30.0905C85.2785 30.0905 85.814 30.192 86.255 30.395C86.696 30.591 87.0915 30.8675 87.4415 31.2245V25.46H89.699Z" fill="black"/>
</svg>
