<svg width="119" height="42" viewBox="0 0 119 42" fill="none" xmlns="http://www.w3.org/2000/svg">
<path d="M19.6115 14.0155L19.601 16H10.172V0.879999H19.601V2.8645H12.6395V7.4215H18.2045V9.343H12.6395V14.0155H19.6115ZM23.716 6.7075C23.947 6.4695 24.185 6.256 24.43 6.067C24.682 5.871 24.948 5.703 25.228 5.563C25.508 5.423 25.8055 5.3145 26.1205 5.2375C26.4355 5.1605 26.7785 5.122 27.1495 5.122C27.7375 5.122 28.252 5.22 28.693 5.416C29.141 5.612 29.5155 5.8885 29.8165 6.2455C30.1245 6.6025 30.3555 7.033 30.5095 7.537C30.6635 8.034 30.7405 8.5835 30.7405 9.1855V16H28.4935V9.1855C28.4935 8.4645 28.3255 7.9045 27.9895 7.5055C27.6605 7.1065 27.1565 6.907 26.4775 6.907C25.9735 6.907 25.5045 7.0225 25.0705 7.2535C24.6435 7.4845 24.241 7.7995 23.863 8.1985V16H21.6055V5.29H22.9705C23.2785 5.29 23.4745 5.4335 23.5585 5.7205L23.716 6.7075ZM36.6669 16.168C35.7779 16.168 35.0919 15.9195 34.6089 15.4225C34.1329 14.9185 33.8949 14.2115 33.8949 13.3015V7.0645H32.7189C32.5929 7.0645 32.4844 7.026 32.3934 6.949C32.3024 6.865 32.2569 6.7425 32.2569 6.5815V5.668L33.9894 5.416L34.4829 2.3185C34.5179 2.1995 34.5774 2.105 34.6614 2.035C34.7454 1.958 34.8574 1.9195 34.9974 1.9195H36.1524V5.437H39.1239V7.0645H36.1524V13.144C36.1524 13.529 36.2469 13.823 36.4359 14.026C36.6249 14.229 36.8769 14.3305 37.1919 14.3305C37.3669 14.3305 37.5174 14.3095 37.6434 14.2675C37.7694 14.2185 37.8779 14.1695 37.9689 14.1205C38.0599 14.0645 38.1369 14.0155 38.1999 13.9735C38.2699 13.9245 38.3364 13.9 38.3994 13.9C38.5254 13.9 38.6269 13.97 38.7039 14.11L39.3759 15.2125C39.0259 15.5205 38.6129 15.7585 38.1369 15.9265C37.6609 16.0875 37.1709 16.168 36.6669 16.168ZM47.8458 9.4375C47.8458 9.0595 47.7898 8.7095 47.6778 8.3875C47.5728 8.0585 47.4153 7.775 47.2053 7.537C46.9953 7.292 46.7328 7.103 46.4178 6.97C46.1098 6.83 45.7528 6.76 45.3468 6.76C44.5278 6.76 43.8838 6.9945 43.4148 7.4635C42.9458 7.9325 42.6483 8.5905 42.5223 9.4375H47.8458ZM42.4593 10.8235C42.4873 11.4325 42.5818 11.961 42.7428 12.409C42.9038 12.85 43.1173 13.2175 43.3833 13.5115C43.6563 13.8055 43.9783 14.026 44.3493 14.173C44.7273 14.313 45.1473 14.383 45.6093 14.383C46.0503 14.383 46.4318 14.334 46.7538 14.236C47.0758 14.131 47.3558 14.019 47.5938 13.9C47.8318 13.774 48.0348 13.662 48.2028 13.564C48.3708 13.459 48.5248 13.4065 48.6648 13.4065C48.8468 13.4065 48.9868 13.4765 49.0848 13.6165L49.7253 14.446C49.4593 14.761 49.1583 15.027 48.8223 15.244C48.4863 15.461 48.1293 15.6395 47.7513 15.7795C47.3733 15.9125 46.9848 16.007 46.5858 16.063C46.1868 16.126 45.7983 16.1575 45.4203 16.1575C44.6783 16.1575 43.9888 16.035 43.3518 15.79C42.7218 15.538 42.1723 15.1705 41.7033 14.6875C41.2413 14.2045 40.8773 13.606 40.6113 12.892C40.3523 12.178 40.2228 11.3555 40.2228 10.4245C40.2228 9.6825 40.3383 8.9895 40.5693 8.3455C40.8073 7.7015 41.1433 7.1415 41.5773 6.6655C42.0183 6.1895 42.5503 5.815 43.1733 5.542C43.8033 5.262 44.5138 5.122 45.3048 5.122C45.9628 5.122 46.5718 5.2305 47.1318 5.4475C47.6918 5.6575 48.1748 5.969 48.5808 6.382C48.9868 6.795 49.3018 7.3025 49.5258 7.9045C49.7568 8.4995 49.8723 9.1785 49.8723 9.9415C49.8723 10.2915 49.8338 10.526 49.7568 10.645C49.6798 10.764 49.5398 10.8235 49.3368 10.8235H42.4593ZM54.1091 7.2745C54.4451 6.5955 54.8511 6.0635 55.3271 5.6785C55.8031 5.2865 56.3736 5.0905 57.0386 5.0905C57.2696 5.0905 57.4866 5.1185 57.6896 5.1745C57.8926 5.2235 58.0746 5.3005 58.2356 5.4055L58.0781 7.1065C58.0501 7.2255 58.0046 7.3095 57.9416 7.3585C57.8856 7.4005 57.8086 7.4215 57.7106 7.4215C57.6056 7.4215 57.4551 7.404 57.2591 7.369C57.0631 7.327 56.8566 7.306 56.6396 7.306C56.3246 7.306 56.0446 7.3515 55.7996 7.4425C55.5616 7.5335 55.3446 7.6665 55.1486 7.8415C54.9596 8.0165 54.7916 8.23 54.6446 8.482C54.4976 8.734 54.3611 9.021 54.2351 9.343V16H51.9776V5.29H53.2901C53.5281 5.29 53.6926 5.3355 53.7836 5.4265C53.8746 5.5105 53.9376 5.661 53.9726 5.878L54.1091 7.2745ZM70.198 10.078V16H67.7515V10.078L62.2285 0.879999H64.381C64.598 0.879999 64.7695 0.932499 64.8955 1.0375C65.0215 1.1425 65.1265 1.2755 65.2105 1.4365L68.308 6.8545C68.448 7.1275 68.574 7.3865 68.686 7.6315C68.805 7.8765 68.91 8.118 69.001 8.356C69.078 8.111 69.1725 7.8695 69.2845 7.6315C69.3965 7.3865 69.5225 7.1275 69.6625 6.8545L72.739 1.4365C72.809 1.2965 72.9105 1.1705 73.0435 1.0585C73.1765 0.939499 73.348 0.879999 73.558 0.879999H75.721L70.198 10.078ZM79.3307 5.122C80.1217 5.122 80.8357 5.2515 81.4727 5.5105C82.1167 5.7695 82.6627 6.137 83.1107 6.613C83.5657 7.089 83.9157 7.6665 84.1607 8.3455C84.4057 9.0245 84.5282 9.7875 84.5282 10.6345C84.5282 11.4815 84.4057 12.2445 84.1607 12.9235C83.9157 13.6025 83.5657 14.1835 83.1107 14.6665C82.6627 15.1425 82.1167 15.51 81.4727 15.769C80.8357 16.028 80.1217 16.1575 79.3307 16.1575C78.5327 16.1575 77.8117 16.028 77.1677 15.769C76.5307 15.51 75.9847 15.1425 75.5297 14.6665C75.0747 14.1835 74.7247 13.6025 74.4797 12.9235C74.2347 12.2445 74.1122 11.4815 74.1122 10.6345C74.1122 9.7875 74.2347 9.0245 74.4797 8.3455C74.7247 7.6665 75.0747 7.089 75.5297 6.613C75.9847 6.137 76.5307 5.7695 77.1677 5.5105C77.8117 5.2515 78.5327 5.122 79.3307 5.122ZM79.3307 14.3935C80.2967 14.3935 81.0142 14.0715 81.4832 13.4275C81.9592 12.7765 82.1972 11.849 82.1972 10.645C82.1972 9.441 81.9592 8.5135 81.4832 7.8625C81.0142 7.2045 80.2967 6.8755 79.3307 6.8755C78.3507 6.8755 77.6227 7.2045 77.1467 7.8625C76.6707 8.5135 76.4327 9.441 76.4327 10.645C76.4327 11.849 76.6707 12.7765 77.1467 13.4275C77.6227 14.0715 78.3507 14.3935 79.3307 14.3935ZM95.7273 5.29V16H94.3623C94.0613 16 93.8688 15.8565 93.7848 15.5695L93.6168 14.572C93.3928 14.81 93.1548 15.027 92.9028 15.223C92.6578 15.419 92.3953 15.587 92.1153 15.727C91.8353 15.867 91.5343 15.9755 91.2123 16.0525C90.8973 16.1295 90.5578 16.168 90.1938 16.168C89.6058 16.168 89.0878 16.07 88.6398 15.874C88.1918 15.678 87.8138 15.4015 87.5058 15.0445C87.2048 14.6875 86.9773 14.2605 86.8233 13.7635C86.6693 13.2595 86.5923 12.7065 86.5923 12.1045V5.29H88.8498V12.1045C88.8498 12.8255 89.0143 13.3855 89.3433 13.7845C89.6793 14.1835 90.1868 14.383 90.8658 14.383C91.3628 14.383 91.8248 14.271 92.2518 14.047C92.6858 13.816 93.0918 13.501 93.4698 13.102V5.29H95.7273ZM100.6 7.2745C100.936 6.5955 101.342 6.0635 101.818 5.6785C102.294 5.2865 102.865 5.0905 103.53 5.0905C103.761 5.0905 103.978 5.1185 104.181 5.1745C104.384 5.2235 104.566 5.3005 104.727 5.4055L104.569 7.1065C104.541 7.2255 104.496 7.3095 104.433 7.3585C104.377 7.4005 104.3 7.4215 104.202 7.4215C104.097 7.4215 103.946 7.404 103.75 7.369C103.554 7.327 103.348 7.306 103.131 7.306C102.816 7.306 102.536 7.3515 102.291 7.4425C102.053 7.5335 101.836 7.6665 101.64 7.8415C101.451 8.0165 101.283 8.23 101.136 8.482C100.989 8.734 100.852 9.021 100.726 9.343V16H98.4688V5.29H99.7813C100.019 5.29 100.184 5.3355 100.275 5.4265C100.366 5.5105 100.429 5.661 100.464 5.878L100.6 7.2745ZM4.7246 33.587C5.2706 33.587 5.7501 33.517 6.1631 33.377C6.5831 33.237 6.9296 33.041 7.2026 32.789C7.4826 32.53 7.6926 32.2185 7.8326 31.8545C7.9726 31.4905 8.0426 31.0845 8.0426 30.6365C8.0426 30.1955 7.9726 29.8 7.8326 29.45C7.6996 29.1 7.4966 28.8025 7.2236 28.5575C6.9506 28.3125 6.6041 28.127 6.1841 28.001C5.7711 27.868 5.2846 27.8015 4.7246 27.8015H2.4776V33.587H4.7246ZM4.7246 25.88C5.7116 25.88 6.5656 25.9955 7.2866 26.2265C8.0146 26.4575 8.6131 26.783 9.0821 27.203C9.5581 27.616 9.9116 28.1165 10.1426 28.7045C10.3736 29.2855 10.4891 29.9295 10.4891 30.6365C10.4891 31.3575 10.3666 32.019 10.1216 32.621C9.8766 33.216 9.5126 33.7305 9.0296 34.1645C8.5466 34.5915 7.9446 34.9275 7.2236 35.1725C6.5096 35.4105 5.6766 35.5295 4.7246 35.5295H2.4776V41H0.0205977V25.88H4.7246ZM18.9093 34.4375C18.9093 34.0595 18.8533 33.7095 18.7413 33.3875C18.6363 33.0585 18.4788 32.775 18.2688 32.537C18.0588 32.292 17.7963 32.103 17.4813 31.97C17.1733 31.83 16.8163 31.76 16.4103 31.76C15.5913 31.76 14.9473 31.9945 14.4783 32.4635C14.0093 32.9325 13.7118 33.5905 13.5858 34.4375H18.9093ZM13.5228 35.8235C13.5508 36.4325 13.6453 36.961 13.8063 37.409C13.9673 37.85 14.1808 38.2175 14.4468 38.5115C14.7198 38.8055 15.0418 39.026 15.4128 39.173C15.7908 39.313 16.2108 39.383 16.6728 39.383C17.1138 39.383 17.4953 39.334 17.8173 39.236C18.1393 39.131 18.4193 39.019 18.6573 38.9C18.8953 38.774 19.0983 38.662 19.2663 38.564C19.4343 38.459 19.5883 38.4065 19.7283 38.4065C19.9103 38.4065 20.0503 38.4765 20.1483 38.6165L20.7888 39.446C20.5228 39.761 20.2218 40.027 19.8858 40.244C19.5498 40.461 19.1928 40.6395 18.8148 40.7795C18.4368 40.9125 18.0483 41.007 17.6493 41.063C17.2503 41.126 16.8618 41.1575 16.4838 41.1575C15.7418 41.1575 15.0523 41.035 14.4153 40.79C13.7853 40.538 13.2358 40.1705 12.7668 39.6875C12.3048 39.2045 11.9408 38.606 11.6748 37.892C11.4158 37.178 11.2863 36.3555 11.2863 35.4245C11.2863 34.6825 11.4018 33.9895 11.6328 33.3455C11.8708 32.7015 12.2068 32.1415 12.6408 31.6655C13.0818 31.1895 13.6138 30.815 14.2368 30.542C14.8668 30.262 15.5773 30.122 16.3683 30.122C17.0263 30.122 17.6353 30.2305 18.1953 30.4475C18.7553 30.6575 19.2383 30.969 19.6443 31.382C20.0503 31.795 20.3653 32.3025 20.5893 32.9045C20.8203 33.4995 20.9358 34.1785 20.9358 34.9415C20.9358 35.2915 20.8973 35.526 20.8203 35.645C20.7433 35.764 20.6033 35.8235 20.4003 35.8235H13.5228ZM25.1725 32.2745C25.5085 31.5955 25.9145 31.0635 26.3905 30.6785C26.8665 30.2865 27.437 30.0905 28.102 30.0905C28.333 30.0905 28.55 30.1185 28.753 30.1745C28.956 30.2235 29.138 30.3005 29.299 30.4055L29.1415 32.1065C29.1135 32.2255 29.068 32.3095 29.005 32.3585C28.949 32.4005 28.872 32.4215 28.774 32.4215C28.669 32.4215 28.5185 32.404 28.3225 32.369C28.1265 32.327 27.92 32.306 27.703 32.306C27.388 32.306 27.108 32.3515 26.863 32.4425C26.625 32.5335 26.408 32.6665 26.212 32.8415C26.023 33.0165 25.855 33.23 25.708 33.482C25.561 33.734 25.4245 34.021 25.2985 34.343V41H23.041V30.29H24.3535C24.5915 30.29 24.756 30.3355 24.847 30.4265C24.938 30.5105 25.001 30.661 25.036 30.878L25.1725 32.2745ZM37.126 32.2325C37.07 32.3305 37.007 32.4005 36.937 32.4425C36.867 32.4845 36.7795 32.5055 36.6745 32.5055C36.5555 32.5055 36.426 32.4705 36.286 32.4005C36.146 32.3235 35.9815 32.2395 35.7925 32.1485C35.6035 32.0575 35.3795 31.977 35.1205 31.907C34.8685 31.83 34.571 31.7915 34.228 31.7915C33.948 31.7915 33.6925 31.8265 33.4615 31.8965C33.2375 31.9595 33.045 32.054 32.884 32.18C32.73 32.299 32.611 32.4425 32.527 32.6105C32.443 32.7715 32.401 32.9465 32.401 33.1355C32.401 33.3875 32.478 33.5975 32.632 33.7655C32.786 33.9335 32.989 34.0805 33.241 34.2065C33.493 34.3255 33.78 34.434 34.102 34.532C34.424 34.63 34.753 34.735 35.089 34.847C35.425 34.959 35.754 35.0885 36.076 35.2355C36.398 35.3825 36.685 35.5645 36.937 35.7815C37.189 35.9915 37.392 36.2505 37.546 36.5585C37.7 36.8595 37.777 37.227 37.777 37.661C37.777 38.165 37.686 38.6305 37.504 39.0575C37.322 39.4845 37.056 39.8555 36.706 40.1705C36.356 40.4855 35.9185 40.7305 35.3935 40.9055C34.8755 41.0805 34.2805 41.168 33.6085 41.168C33.2375 41.168 32.877 41.133 32.527 41.063C32.184 41 31.855 40.9125 31.54 40.8005C31.232 40.6815 30.9415 40.5415 30.6685 40.3805C30.4025 40.2195 30.1645 40.0445 29.9545 39.8555L30.4795 38.9945C30.5425 38.8895 30.6195 38.809 30.7105 38.753C30.8085 38.69 30.9275 38.6585 31.0675 38.6585C31.2145 38.6585 31.358 38.7075 31.498 38.8055C31.645 38.8965 31.813 38.998 32.002 39.11C32.198 39.222 32.4325 39.327 32.7055 39.425C32.9785 39.516 33.318 39.5615 33.724 39.5615C34.06 39.5615 34.3505 39.523 34.5955 39.446C34.8405 39.362 35.0435 39.25 35.2045 39.11C35.3655 38.97 35.4845 38.8125 35.5615 38.6375C35.6385 38.4555 35.677 38.263 35.677 38.06C35.677 37.787 35.6 37.563 35.446 37.388C35.292 37.213 35.0855 37.0625 34.8265 36.9365C34.5745 36.8105 34.284 36.6985 33.955 36.6005C33.633 36.5025 33.304 36.3975 32.968 36.2855C32.632 36.1735 32.2995 36.044 31.9705 35.897C31.6485 35.75 31.358 35.5645 31.099 35.3405C30.847 35.1095 30.644 34.833 30.49 34.511C30.336 34.182 30.259 33.783 30.259 33.314C30.259 32.887 30.343 32.481 30.511 32.096C30.686 31.711 30.938 31.3715 31.267 31.0775C31.603 30.7835 32.0125 30.5525 32.4955 30.3845C32.9855 30.2095 33.549 30.122 34.186 30.122C34.907 30.122 35.5615 30.2375 36.1495 30.4685C36.7375 30.6995 37.231 31.0145 37.63 31.4135L37.126 32.2325ZM44.5289 30.122C45.3199 30.122 46.0339 30.2515 46.6709 30.5105C47.3149 30.7695 47.8609 31.137 48.3089 31.613C48.7639 32.089 49.1139 32.6665 49.3589 33.3455C49.6039 34.0245 49.7264 34.7875 49.7264 35.6345C49.7264 36.4815 49.6039 37.2445 49.3589 37.9235C49.1139 38.6025 48.7639 39.1835 48.3089 39.6665C47.8609 40.1425 47.3149 40.51 46.6709 40.769C46.0339 41.028 45.3199 41.1575 44.5289 41.1575C43.7309 41.1575 43.0099 41.028 42.3659 40.769C41.7289 40.51 41.1829 40.1425 40.7279 39.6665C40.2729 39.1835 39.9229 38.6025 39.6779 37.9235C39.4329 37.2445 39.3104 36.4815 39.3104 35.6345C39.3104 34.7875 39.4329 34.0245 39.6779 33.3455C39.9229 32.6665 40.2729 32.089 40.7279 31.613C41.1829 31.137 41.7289 30.7695 42.3659 30.5105C43.0099 30.2515 43.7309 30.122 44.5289 30.122ZM44.5289 39.3935C45.4949 39.3935 46.2124 39.0715 46.6814 38.4275C47.1574 37.7765 47.3954 36.849 47.3954 35.645C47.3954 34.441 47.1574 33.5135 46.6814 32.8625C46.2124 32.2045 45.4949 31.8755 44.5289 31.8755C43.5489 31.8755 42.8209 32.2045 42.3449 32.8625C41.8689 33.5135 41.6309 34.441 41.6309 35.645C41.6309 36.849 41.8689 37.7765 42.3449 38.4275C42.8209 39.0715 43.5489 39.3935 44.5289 39.3935ZM54.006 31.7075C54.237 31.4695 54.475 31.256 54.72 31.067C54.972 30.871 55.238 30.703 55.518 30.563C55.798 30.423 56.0955 30.3145 56.4105 30.2375C56.7255 30.1605 57.0685 30.122 57.4395 30.122C58.0275 30.122 58.542 30.22 58.983 30.416C59.431 30.612 59.8055 30.8885 60.1065 31.2455C60.4145 31.6025 60.6455 32.033 60.7995 32.537C60.9535 33.034 61.0305 33.5835 61.0305 34.1855V41H58.7835V34.1855C58.7835 33.4645 58.6155 32.9045 58.2795 32.5055C57.9505 32.1065 57.4465 31.907 56.7675 31.907C56.2635 31.907 55.7945 32.0225 55.3605 32.2535C54.9335 32.4845 54.531 32.7995 54.153 33.1985V41H51.8955V30.29H53.2605C53.5685 30.29 53.7645 30.4335 53.8485 30.7205L54.006 31.7075ZM69.3895 36.317C68.5845 36.345 67.9055 36.4115 67.3525 36.5165C66.7995 36.6145 66.3515 36.744 66.0085 36.905C65.6655 37.059 65.417 37.2445 65.263 37.4615C65.116 37.6785 65.0425 37.9165 65.0425 38.1755C65.0425 38.4275 65.081 38.6445 65.158 38.8265C65.242 39.0015 65.354 39.1485 65.494 39.2675C65.641 39.3795 65.809 39.4635 65.998 39.5195C66.194 39.5685 66.4075 39.593 66.6385 39.593C67.2265 39.593 67.7305 39.4845 68.1505 39.2675C68.5775 39.0435 68.9905 38.7215 69.3895 38.3015V36.317ZM63.4045 31.781C64.6155 30.654 66.0575 30.0905 67.7305 30.0905C68.3465 30.0905 68.8925 30.192 69.3685 30.395C69.8515 30.591 70.254 30.871 70.576 31.235C70.905 31.599 71.1535 32.033 71.3215 32.537C71.4965 33.034 71.584 33.587 71.584 34.196V41H70.576C70.359 41 70.1945 40.9685 70.0825 40.9055C69.9705 40.8355 69.876 40.699 69.799 40.496L69.5785 39.6245C69.3055 39.8695 69.036 40.09 68.77 40.286C68.504 40.475 68.2275 40.636 67.9405 40.769C67.6605 40.902 67.356 41 67.027 41.063C66.705 41.133 66.348 41.168 65.956 41.168C65.522 41.168 65.116 41.1085 64.738 40.9895C64.367 40.8705 64.045 40.692 63.772 40.454C63.499 40.209 63.282 39.908 63.121 39.551C62.967 39.194 62.89 38.774 62.89 38.291C62.89 37.878 62.9985 37.4755 63.2155 37.0835C63.4395 36.6915 63.8035 36.3415 64.3075 36.0335C64.8185 35.7185 65.487 35.4595 66.313 35.2565C67.146 35.0535 68.1715 34.938 69.3895 34.91V34.196C69.3895 33.426 69.225 32.852 68.896 32.474C68.567 32.096 68.084 31.907 67.447 31.907C67.013 31.907 66.649 31.963 66.355 32.075C66.061 32.18 65.8055 32.2955 65.5885 32.4215C65.3715 32.5475 65.179 32.6665 65.011 32.7785C64.843 32.8835 64.6645 32.936 64.4755 32.936C64.3215 32.936 64.1885 32.8975 64.0765 32.8205C63.9715 32.7365 63.884 32.635 63.814 32.516L63.4045 31.781ZM76.528 25.46V41H74.2705V25.46H76.528ZM87.4315 41H84.964V25.88H87.4315V41ZM92.5402 31.7075C92.7712 31.4695 93.0092 31.256 93.2542 31.067C93.5062 30.871 93.7722 30.703 94.0522 30.563C94.3322 30.423 94.6297 30.3145 94.9447 30.2375C95.2597 30.1605 95.6027 30.122 95.9737 30.122C96.5617 30.122 97.0762 30.22 97.5172 30.416C97.9652 30.612 98.3397 30.8885 98.6407 31.2455C98.9487 31.6025 99.1797 32.033 99.3337 32.537C99.4877 33.034 99.5647 33.5835 99.5647 34.1855V41H97.3177V34.1855C97.3177 33.4645 97.1497 32.9045 96.8137 32.5055C96.4847 32.1065 95.9807 31.907 95.3017 31.907C94.7977 31.907 94.3287 32.0225 93.8947 32.2535C93.4677 32.4845 93.0652 32.7995 92.6872 33.1985V41H90.4297V30.29H91.7947C92.1027 30.29 92.2987 30.4335 92.3827 30.7205L92.5402 31.7075ZM102.741 41V32.0855L101.691 31.9385C101.516 31.9035 101.373 31.8405 101.261 31.7495C101.156 31.6585 101.103 31.529 101.103 31.361V30.437H102.741V29.534C102.741 28.925 102.829 28.379 103.004 27.896C103.186 27.413 103.441 27.0035 103.77 26.6675C104.106 26.3315 104.512 26.076 104.988 25.901C105.464 25.719 106 25.628 106.595 25.628C106.84 25.628 107.071 25.6455 107.288 25.6805C107.512 25.7155 107.729 25.768 107.939 25.838L107.897 26.972C107.883 27.161 107.788 27.273 107.613 27.308C107.445 27.343 107.232 27.3605 106.973 27.3605C106.658 27.3605 106.374 27.399 106.122 27.476C105.87 27.546 105.653 27.6685 105.471 27.8435C105.296 28.0185 105.16 28.2495 105.062 28.5365C104.971 28.8235 104.925 29.1805 104.925 29.6075V30.437H107.855V32.0645H104.999V41H102.741ZM113.784 30.122C114.575 30.122 115.289 30.2515 115.926 30.5105C116.57 30.7695 117.116 31.137 117.564 31.613C118.019 32.089 118.369 32.6665 118.614 33.3455C118.859 34.0245 118.981 34.7875 118.981 35.6345C118.981 36.4815 118.859 37.2445 118.614 37.9235C118.369 38.6025 118.019 39.1835 117.564 39.6665C117.116 40.1425 116.57 40.51 115.926 40.769C115.289 41.028 114.575 41.1575 113.784 41.1575C112.986 41.1575 112.265 41.028 111.621 40.769C110.984 40.51 110.438 40.1425 109.983 39.6665C109.528 39.1835 109.178 38.6025 108.933 37.9235C108.688 37.2445 108.565 36.4815 108.565 35.6345C108.565 34.7875 108.688 34.0245 108.933 33.3455C109.178 32.6665 109.528 32.089 109.983 31.613C110.438 31.137 110.984 30.7695 111.621 30.5105C112.265 30.2515 112.986 30.122 113.784 30.122ZM113.784 39.3935C114.75 39.3935 115.467 39.0715 115.936 38.4275C116.412 37.7765 116.65 36.849 116.65 35.645C116.65 34.441 116.412 33.5135 115.936 32.8625C115.467 32.2045 114.75 31.8755 113.784 31.8755C112.804 31.8755 112.076 32.2045 111.6 32.8625C111.124 33.5135 110.886 34.441 110.886 35.645C110.886 36.849 111.124 37.7765 111.6 38.4275C112.076 39.0715 112.804 39.3935 113.784 39.3935Z" fill="black"/>
</svg>
