<svg width="36" height="31" viewBox="0 0 36 31" fill="none" xmlns="http://www.w3.org/2000/svg">
<path d="M0 1.77143C0 0.793095 0.776758 0 1.73494 0H8.24096C10.1573 0 11.7108 1.58619 11.7108 3.54286V22.5857C11.7108 26.4991 8.60383 29.6714 4.77108 29.6714C2.13609 29.6714 0 27.4904 0 24.8V1.77143Z" fill="#23A390"/>
<path fill-rule="evenodd" clip-rule="evenodd" d="M3.03615 3.10001H32.9639C34.6407 3.10001 36 4.48792 36 6.2V27.9C36 29.6121 34.6407 31 32.9639 31H3.03615C1.35933 31 0 29.6121 0 27.9V6.2C0 4.48792 1.35933 3.10001 3.03615 3.10001ZM11.2771 26.5714H24.7229C25.202 26.5714 25.5904 26.968 25.5904 27.4571C25.5904 27.9463 25.202 28.3428 24.7229 28.3428H11.2771C10.798 28.3428 10.4097 27.9463 10.4097 27.4571C10.4097 26.968 10.798 26.5714 11.2771 26.5714Z" fill="#23A390"/>
</svg>
