<svg width="27" height="31" viewBox="0 0 27 31" fill="none" xmlns="http://www.w3.org/2000/svg">
<path fill-rule="evenodd" clip-rule="evenodd" d="M22.25 13.3125C24.6663 13.3125 26.625 15.2712 26.625 17.6875V26.4375C26.625 28.8538 24.6663 30.8125 22.25 30.8125H4.75C2.33376 30.8125 0.375 28.8538 0.375 26.4375V17.6875C0.375 15.2712 2.33376 13.3125 4.75 13.3125V8.9375C4.75 4.10501 8.66751 0.1875 13.5 0.1875C18.3325 0.1875 22.25 4.10501 22.25 8.9375V13.3125ZM13.5 3.10417C16.7216 3.10417 19.3333 5.71584 19.3333 8.9375V13.3125H7.66667V8.9375C7.66667 5.71584 10.2783 3.10417 13.5 3.10417ZM22.25 16.2292H4.75C3.94459 16.2292 3.29167 16.8821 3.29167 17.6875V26.4375C3.29167 27.2429 3.94459 27.8958 4.75 27.8958H22.25C23.0554 27.8958 23.7083 27.2429 23.7083 26.4375V17.6875C23.7083 16.8821 23.0554 16.2292 22.25 16.2292Z" fill="#115046"/>
</svg>
