<svg width="390" height="132" viewBox="0 0 390 132" fill="none" xmlns="http://www.w3.org/2000/svg">
<path d="M-12.7375 11.1522C-6.52481 12.1147 3.56164 16.3222 17.0833 15.7722C30.605 15.2222 37.5486 8.30596 52.1667 8.51221C66.7847 8.71846 72.632 17.5872 87.25 16.7622C101.868 15.9372 107.715 5.17096 122.333 4.55221C136.951 3.93346 142.799 13.2766 157.417 13.7922C172.035 14.3078 177.882 6.20221 192.5 7.02721C207.118 7.85221 212.965 17.7522 227.583 17.7522C242.201 17.7522 248.049 7.09596 262.667 7.02721C277.285 6.95846 283.132 17.4566 297.75 17.4222C312.368 17.3878 318.215 7.41221 332.833 6.86221C347.451 6.31221 354.395 13.8885 367.917 14.7822C381.438 15.676 391.525 11.9085 397.738 11.1522" stroke="url(#paint0_linear_34_84)" stroke-opacity="0.3" stroke-width="2" stroke-linecap="round"/>
<path d="M-12.7375 120.877C-6.52481 121.84 3.56164 126.047 17.0833 125.497C30.605 124.947 37.5486 118.031 52.1667 118.237C66.7847 118.443 72.632 127.312 87.25 126.487C101.868 125.662 107.715 114.896 122.333 114.277C136.951 113.658 142.799 123.002 157.417 123.517C172.035 124.033 177.882 115.927 192.5 116.752C207.118 117.577 212.965 127.477 227.583 127.477C242.201 127.477 248.049 116.821 262.667 116.752C277.285 116.683 283.132 127.182 297.75 127.147C312.368 127.113 318.215 117.137 332.833 116.587C347.451 116.037 354.395 123.613 367.917 124.507C381.438 125.401 391.525 121.633 397.738 120.877" stroke="url(#paint1_linear_34_84)" stroke-opacity="0.3" stroke-width="2" stroke-linecap="round"/>
<path d="M-12.7375 115.102C-6.52481 116.065 3.56164 120.272 17.0833 119.722C30.605 119.172 37.5486 112.256 52.1667 112.462C66.7847 112.668 72.632 121.537 87.25 120.712C101.868 119.887 107.715 109.121 122.333 108.502C136.951 107.883 142.799 117.227 157.417 117.742C172.035 118.258 177.882 110.152 192.5 110.977C207.118 111.802 212.965 121.702 227.583 121.702C242.201 121.702 248.049 111.046 262.667 110.977C277.285 110.908 283.132 121.407 297.75 121.372C312.368 121.338 318.215 111.362 332.833 110.812C347.451 110.262 354.395 117.838 367.917 118.732C381.438 119.626 391.525 115.858 397.738 115.102" stroke="url(#paint2_linear_34_84)" stroke-opacity="0.3" stroke-width="2" stroke-linecap="round"/>
<path d="M-12.7375 109.327C-6.52481 110.29 3.56164 114.497 17.0833 113.947C30.605 113.397 37.5486 106.481 52.1667 106.687C66.7847 106.893 72.632 115.762 87.25 114.937C101.868 114.112 107.715 103.346 122.333 102.727C136.951 102.108 142.799 111.452 157.417 111.967C172.035 112.483 177.882 104.377 192.5 105.202C207.118 106.027 212.965 115.927 227.583 115.927C242.201 115.927 248.049 105.271 262.667 105.202C277.285 105.133 283.132 115.632 297.75 115.597C312.368 115.563 318.215 105.587 332.833 105.037C347.451 104.487 354.395 112.063 367.917 112.957C381.438 113.851 391.525 110.083 397.738 109.327" stroke="url(#paint3_linear_34_84)" stroke-opacity="0.3" stroke-width="2" stroke-linecap="round"/>
<path d="M-12.7375 103.552C-6.52481 104.515 3.56164 108.722 17.0833 108.172C30.605 107.622 37.5486 100.706 52.1667 100.912C66.7847 101.118 72.632 109.987 87.25 109.162C101.868 108.337 107.715 97.571 122.333 96.9522C136.951 96.3335 142.799 105.677 157.417 106.192C172.035 106.708 177.882 98.6022 192.5 99.4272C207.118 100.252 212.965 110.152 227.583 110.152C242.201 110.152 248.049 99.496 262.667 99.4272C277.285 99.3585 283.132 109.857 297.75 109.822C312.368 109.788 318.215 99.8122 332.833 99.2622C347.451 98.7122 354.395 106.288 367.917 107.182C381.438 108.076 391.525 104.308 397.738 103.552" stroke="url(#paint4_linear_34_84)" stroke-opacity="0.3" stroke-width="2" stroke-linecap="round"/>
<path d="M-12.7375 97.7772C-6.52481 98.7397 3.56164 102.947 17.0833 102.397C30.605 101.847 37.5486 94.931 52.1667 95.1372C66.7847 95.3435 72.632 104.212 87.25 103.387C101.868 102.562 107.715 91.796 122.333 91.1772C136.951 90.5585 142.799 99.9016 157.417 100.417C172.035 100.933 177.882 92.8272 192.5 93.6522C207.118 94.4772 212.965 104.377 227.583 104.377C242.201 104.377 248.049 93.721 262.667 93.6522C277.285 93.5835 283.132 104.082 297.75 104.047C312.368 104.013 318.215 94.0372 332.833 93.4872C347.451 92.9372 354.395 100.513 367.917 101.407C381.438 102.301 391.525 98.5335 397.738 97.7772" stroke="url(#paint5_linear_34_84)" stroke-opacity="0.3" stroke-width="2" stroke-linecap="round"/>
<path d="M-12.7375 92.0022C-6.52481 92.9647 3.56164 97.1722 17.0833 96.6222C30.605 96.0722 37.5486 89.156 52.1667 89.3622C66.7847 89.5685 72.632 98.4372 87.25 97.6122C101.868 96.7872 107.715 86.021 122.333 85.4022C136.951 84.7835 142.799 94.1266 157.417 94.6422C172.035 95.1578 177.882 87.0522 192.5 87.8772C207.118 88.7022 212.965 98.6022 227.583 98.6022C242.201 98.6022 248.049 87.946 262.667 87.8772C277.285 87.8085 283.132 98.3066 297.75 98.2722C312.368 98.2378 318.215 88.2622 332.833 87.7122C347.451 87.1622 354.395 94.7385 367.917 95.6322C381.438 96.526 391.525 92.7585 397.738 92.0022" stroke="url(#paint6_linear_34_84)" stroke-opacity="0.3" stroke-width="2" stroke-linecap="round"/>
<path d="M-12.7375 86.2272C-6.52481 87.1897 3.56164 91.3972 17.0833 90.8472C30.605 90.2972 37.5486 83.381 52.1667 83.5872C66.7847 83.7935 72.632 92.6622 87.25 91.8372C101.868 91.0122 107.715 80.246 122.333 79.6272C136.951 79.0085 142.799 88.3516 157.417 88.8672C172.035 89.3828 177.882 81.2772 192.5 82.1022C207.118 82.9272 212.965 92.8272 227.583 92.8272C242.201 92.8272 248.049 82.171 262.667 82.1022C277.285 82.0335 283.132 92.5316 297.75 92.4972C312.368 92.4628 318.215 82.4872 332.833 81.9372C347.451 81.3872 354.395 88.9635 367.917 89.8572C381.438 90.751 391.525 86.9835 397.738 86.2272" stroke="url(#paint7_linear_34_84)" stroke-opacity="0.3" stroke-width="2" stroke-linecap="round"/>
<path d="M-12.7375 80.4522C-6.52481 81.4147 3.56164 85.6222 17.0833 85.0722C30.605 84.5222 37.5486 77.606 52.1667 77.8122C66.7847 78.0185 72.632 86.8872 87.25 86.0622C101.868 85.2372 107.715 74.471 122.333 73.8522C136.951 73.2335 142.799 82.5766 157.417 83.0922C172.035 83.6078 177.882 75.5022 192.5 76.3272C207.118 77.1522 212.965 87.0522 227.583 87.0522C242.201 87.0522 248.049 76.396 262.667 76.3272C277.285 76.2585 283.132 86.7566 297.75 86.7222C312.368 86.6878 318.215 76.7122 332.833 76.1622C347.451 75.6122 354.395 83.1885 367.917 84.0822C381.438 84.976 391.525 81.2085 397.738 80.4522" stroke="url(#paint8_linear_34_84)" stroke-opacity="0.3" stroke-width="2" stroke-linecap="round"/>
<path d="M-12.7375 74.6772C-6.52481 75.6397 3.56164 79.8472 17.0833 79.2972C30.605 78.7472 37.5486 71.831 52.1667 72.0372C66.7847 72.2435 72.632 81.1122 87.25 80.2872C101.868 79.4622 107.715 68.696 122.333 68.0772C136.951 67.4585 142.799 76.8016 157.417 77.3172C172.035 77.8328 177.882 69.7272 192.5 70.5522C207.118 71.3772 212.965 81.2772 227.583 81.2772C242.201 81.2772 248.049 70.621 262.667 70.5522C277.285 70.4835 283.132 80.9816 297.75 80.9472C312.368 80.9128 318.215 70.9372 332.833 70.3872C347.451 69.8372 354.395 77.4135 367.917 78.3072C381.438 79.201 391.525 75.4335 397.738 74.6772" stroke="url(#paint9_linear_34_84)" stroke-opacity="0.3" stroke-width="2" stroke-linecap="round"/>
<path d="M-12.7375 68.9022C-6.52481 69.8647 3.56164 74.0722 17.0833 73.5222C30.605 72.9722 37.5486 66.056 52.1667 66.2622C66.7847 66.4685 72.632 75.3372 87.25 74.5122C101.868 73.6872 107.715 62.921 122.333 62.3022C136.951 61.6835 142.799 71.0266 157.417 71.5422C172.035 72.0578 177.882 63.9522 192.5 64.7772C207.118 65.6022 212.965 75.5022 227.583 75.5022C242.201 75.5022 248.049 64.846 262.667 64.7772C277.285 64.7085 283.132 75.2066 297.75 75.1722C312.368 75.1378 318.215 65.1622 332.833 64.6122C347.451 64.0622 354.395 71.6385 367.917 72.5322C381.438 73.426 391.525 69.6585 397.738 68.9022" stroke="url(#paint10_linear_34_84)" stroke-opacity="0.3" stroke-width="2" stroke-linecap="round"/>
<path d="M-12.7375 63.1272C-6.52481 64.0897 3.56164 68.2972 17.0833 67.7472C30.605 67.1972 37.5486 60.281 52.1667 60.4872C66.7847 60.6935 72.632 69.5622 87.25 68.7372C101.868 67.9122 107.715 57.146 122.333 56.5272C136.951 55.9085 142.799 65.2516 157.417 65.7672C172.035 66.2828 177.882 58.1772 192.5 59.0022C207.118 59.8272 212.965 69.7272 227.583 69.7272C242.201 69.7272 248.049 59.071 262.667 59.0022C277.285 58.9335 283.132 69.4316 297.75 69.3972C312.368 69.3628 318.215 59.3872 332.833 58.8372C347.451 58.2872 354.395 65.8635 367.917 66.7572C381.438 67.651 391.525 63.8835 397.738 63.1272" stroke="url(#paint11_linear_34_84)" stroke-opacity="0.3" stroke-width="2" stroke-linecap="round"/>
<path d="M-12.7375 57.3522C-6.52481 58.3147 3.56164 62.5222 17.0833 61.9722C30.605 61.4222 37.5486 54.506 52.1667 54.7122C66.7847 54.9185 72.632 63.7872 87.25 62.9622C101.868 62.1372 107.715 51.371 122.333 50.7522C136.951 50.1335 142.799 59.4766 157.417 59.9922C172.035 60.5078 177.882 52.4022 192.5 53.2272C207.118 54.0522 212.965 63.9522 227.583 63.9522C242.201 63.9522 248.049 53.296 262.667 53.2272C277.285 53.1585 283.132 63.6566 297.75 63.6222C312.368 63.5878 318.215 53.6122 332.833 53.0622C347.451 52.5122 354.395 60.0885 367.917 60.9822C381.438 61.876 391.525 58.1085 397.738 57.3522" stroke="url(#paint12_linear_34_84)" stroke-opacity="0.3" stroke-width="2" stroke-linecap="round"/>
<path d="M-12.7375 51.5772C-6.52481 52.5397 3.56164 56.7472 17.0833 56.1972C30.605 55.6472 37.5486 48.731 52.1667 48.9372C66.7847 49.1435 72.632 58.0122 87.25 57.1872C101.868 56.3622 107.715 45.596 122.333 44.9772C136.951 44.3585 142.799 53.7016 157.417 54.2172C172.035 54.7328 177.882 46.6272 192.5 47.4522C207.118 48.2772 212.965 58.1772 227.583 58.1772C242.201 58.1772 248.049 47.521 262.667 47.4522C277.285 47.3835 283.132 57.8816 297.75 57.8472C312.368 57.8128 318.215 47.8372 332.833 47.2872C347.451 46.7372 354.395 54.3135 367.917 55.2072C381.438 56.101 391.525 52.3335 397.738 51.5772" stroke="url(#paint13_linear_34_84)" stroke-opacity="0.3" stroke-width="2" stroke-linecap="round"/>
<path d="M-12.7375 45.8022C-6.52481 46.7647 3.56164 50.9722 17.0833 50.4222C30.605 49.8722 37.5486 42.956 52.1667 43.1622C66.7847 43.3685 72.632 52.2372 87.25 51.4122C101.868 50.5872 107.715 39.821 122.333 39.2022C136.951 38.5835 142.799 47.9266 157.417 48.4422C172.035 48.9578 177.882 40.8522 192.5 41.6772C207.118 42.5022 212.965 52.4022 227.583 52.4022C242.201 52.4022 248.049 41.746 262.667 41.6772C277.285 41.6085 283.132 52.1066 297.75 52.0722C312.368 52.0378 318.215 42.0622 332.833 41.5122C347.451 40.9622 354.395 48.5385 367.917 49.4322C381.438 50.326 391.525 46.5585 397.738 45.8022" stroke="url(#paint14_linear_34_84)" stroke-opacity="0.3" stroke-width="2" stroke-linecap="round"/>
<path d="M-12.7375 40.0272C-6.52481 40.9897 3.56164 45.1972 17.0833 44.6472C30.605 44.0972 37.5486 37.181 52.1667 37.3872C66.7847 37.5935 72.632 46.4622 87.25 45.6372C101.868 44.8122 107.715 34.046 122.333 33.4272C136.951 32.8085 142.799 42.1516 157.417 42.6672C172.035 43.1828 177.882 35.0772 192.5 35.9022C207.118 36.7272 212.965 46.6272 227.583 46.6272C242.201 46.6272 248.049 35.971 262.667 35.9022C277.285 35.8335 283.132 46.3316 297.75 46.2972C312.368 46.2628 318.215 36.2872 332.833 35.7372C347.451 35.1872 354.395 42.7635 367.917 43.6572C381.438 44.551 391.525 40.7835 397.738 40.0272" stroke="url(#paint15_linear_34_84)" stroke-opacity="0.3" stroke-width="2" stroke-linecap="round"/>
<path d="M-12.7375 34.2522C-6.52481 35.2147 3.56164 39.4222 17.0833 38.8722C30.605 38.3222 37.5486 31.406 52.1667 31.6122C66.7847 31.8185 72.632 40.6872 87.25 39.8622C101.868 39.0372 107.715 28.271 122.333 27.6522C136.951 27.0335 142.799 36.3766 157.417 36.8922C172.035 37.4078 177.882 29.3022 192.5 30.1272C207.118 30.9522 212.965 40.8522 227.583 40.8522C242.201 40.8522 248.049 30.196 262.667 30.1272C277.285 30.0585 283.132 40.5566 297.75 40.5222C312.368 40.4878 318.215 30.5122 332.833 29.9622C347.451 29.4122 354.395 36.9885 367.917 37.8822C381.438 38.776 391.525 35.0085 397.738 34.2522" stroke="url(#paint16_linear_34_84)" stroke-opacity="0.3" stroke-width="2" stroke-linecap="round"/>
<path d="M-12.7375 28.4772C-6.52481 29.4397 3.56164 33.6472 17.0833 33.0972C30.605 32.5472 37.5486 25.631 52.1667 25.8372C66.7847 26.0435 72.632 34.9122 87.25 34.0872C101.868 33.2622 107.715 22.496 122.333 21.8772C136.951 21.2585 142.799 30.6016 157.417 31.1172C172.035 31.6328 177.882 23.5272 192.5 24.3522C207.118 25.1772 212.965 35.0772 227.583 35.0772C242.201 35.0772 248.049 24.421 262.667 24.3522C277.285 24.2835 283.132 34.7816 297.75 34.7472C312.368 34.7128 318.215 24.7372 332.833 24.1872C347.451 23.6372 354.395 31.2135 367.917 32.1072C381.438 33.001 391.525 29.2335 397.738 28.4772" stroke="url(#paint17_linear_34_84)" stroke-opacity="0.3" stroke-width="2" stroke-linecap="round"/>
<path d="M-12.7375 22.7022C-6.52481 23.6647 3.56164 27.8722 17.0833 27.3222C30.605 26.7722 37.5486 19.8559 52.1667 20.0622C66.7847 20.2684 72.632 29.1372 87.25 28.3122C101.868 27.4872 107.715 16.7209 122.333 16.1022C136.951 15.4834 142.799 24.8266 157.417 25.3422C172.035 25.8578 177.882 17.7522 192.5 18.5772C207.118 19.4022 212.965 29.3022 227.583 29.3022C242.201 29.3022 248.049 18.6459 262.667 18.5772C277.285 18.5084 283.132 29.0066 297.75 28.9722C312.368 28.9378 318.215 18.9622 332.833 18.4122C347.451 17.8622 354.395 25.4384 367.917 26.3322C381.438 27.2259 391.525 23.4584 397.738 22.7022" stroke="url(#paint18_linear_34_84)" stroke-opacity="0.3" stroke-width="2" stroke-linecap="round"/>
<path d="M-12.7375 16.9272C-6.52481 17.8897 3.56164 22.0972 17.0833 21.5472C30.605 20.9972 37.5486 14.081 52.1667 14.2872C66.7847 14.4935 72.632 23.3622 87.25 22.5372C101.868 21.7122 107.715 10.946 122.333 10.3272C136.951 9.70845 142.799 19.0516 157.417 19.5672C172.035 20.0828 177.882 11.9772 192.5 12.8022C207.118 13.6272 212.965 23.5272 227.583 23.5272C242.201 23.5272 248.049 12.871 262.667 12.8022C277.285 12.7335 283.132 23.2316 297.75 23.1972C312.368 23.1628 318.215 13.1872 332.833 12.6372C347.451 12.0872 354.395 19.6635 367.917 20.5572C381.438 21.451 391.525 17.6835 397.738 16.9272" stroke="url(#paint19_linear_34_84)" stroke-opacity="0.3" stroke-width="2" stroke-linecap="round"/>
<defs>
<linearGradient id="paint0_linear_34_84" x1="-33.8813" y1="-56.4978" x2="8.31251" y2="-56.4978" gradientUnits="userSpaceOnUse">
<stop stop-color="#115046"/>
<stop offset="1" stop-color="#5BC2AA"/>
</linearGradient>
<linearGradient id="paint1_linear_34_84" x1="-33.8813" y1="53.2272" x2="8.31251" y2="53.2272" gradientUnits="userSpaceOnUse">
<stop stop-color="#115046"/>
<stop offset="1" stop-color="#5BC2AA"/>
</linearGradient>
<linearGradient id="paint2_linear_34_84" x1="-33.8813" y1="47.4522" x2="8.31251" y2="47.4522" gradientUnits="userSpaceOnUse">
<stop stop-color="#115046"/>
<stop offset="1" stop-color="#5BC2AA"/>
</linearGradient>
<linearGradient id="paint3_linear_34_84" x1="-33.8813" y1="41.6772" x2="8.31251" y2="41.6772" gradientUnits="userSpaceOnUse">
<stop stop-color="#115046"/>
<stop offset="1" stop-color="#5BC2AA"/>
</linearGradient>
<linearGradient id="paint4_linear_34_84" x1="-33.8813" y1="35.9022" x2="8.31251" y2="35.9022" gradientUnits="userSpaceOnUse">
<stop stop-color="#115046"/>
<stop offset="1" stop-color="#5BC2AA"/>
</linearGradient>
<linearGradient id="paint5_linear_34_84" x1="-33.8813" y1="30.1272" x2="8.31251" y2="30.1272" gradientUnits="userSpaceOnUse">
<stop stop-color="#115046"/>
<stop offset="1" stop-color="#5BC2AA"/>
</linearGradient>
<linearGradient id="paint6_linear_34_84" x1="-33.8813" y1="24.3522" x2="8.31251" y2="24.3522" gradientUnits="userSpaceOnUse">
<stop stop-color="#115046"/>
<stop offset="1" stop-color="#5BC2AA"/>
</linearGradient>
<linearGradient id="paint7_linear_34_84" x1="-33.8813" y1="18.5772" x2="8.31251" y2="18.5772" gradientUnits="userSpaceOnUse">
<stop stop-color="#115046"/>
<stop offset="1" stop-color="#5BC2AA"/>
</linearGradient>
<linearGradient id="paint8_linear_34_84" x1="-33.8813" y1="12.8022" x2="8.31251" y2="12.8022" gradientUnits="userSpaceOnUse">
<stop stop-color="#115046"/>
<stop offset="1" stop-color="#5BC2AA"/>
</linearGradient>
<linearGradient id="paint9_linear_34_84" x1="-33.8813" y1="7.0272" x2="8.31251" y2="7.0272" gradientUnits="userSpaceOnUse">
<stop stop-color="#115046"/>
<stop offset="1" stop-color="#5BC2AA"/>
</linearGradient>
<linearGradient id="paint10_linear_34_84" x1="-33.8813" y1="1.25221" x2="8.31251" y2="1.25221" gradientUnits="userSpaceOnUse">
<stop stop-color="#115046"/>
<stop offset="1" stop-color="#5BC2AA"/>
</linearGradient>
<linearGradient id="paint11_linear_34_84" x1="-33.8813" y1="-4.52279" x2="8.31251" y2="-4.52279" gradientUnits="userSpaceOnUse">
<stop stop-color="#115046"/>
<stop offset="1" stop-color="#5BC2AA"/>
</linearGradient>
<linearGradient id="paint12_linear_34_84" x1="-33.8813" y1="-10.2978" x2="8.31251" y2="-10.2978" gradientUnits="userSpaceOnUse">
<stop stop-color="#115046"/>
<stop offset="1" stop-color="#5BC2AA"/>
</linearGradient>
<linearGradient id="paint13_linear_34_84" x1="-33.8813" y1="-16.0728" x2="8.31251" y2="-16.0728" gradientUnits="userSpaceOnUse">
<stop stop-color="#115046"/>
<stop offset="1" stop-color="#5BC2AA"/>
</linearGradient>
<linearGradient id="paint14_linear_34_84" x1="-33.8813" y1="-21.8478" x2="8.31251" y2="-21.8478" gradientUnits="userSpaceOnUse">
<stop stop-color="#115046"/>
<stop offset="1" stop-color="#5BC2AA"/>
</linearGradient>
<linearGradient id="paint15_linear_34_84" x1="-33.8813" y1="-27.6228" x2="8.31251" y2="-27.6228" gradientUnits="userSpaceOnUse">
<stop stop-color="#115046"/>
<stop offset="1" stop-color="#5BC2AA"/>
</linearGradient>
<linearGradient id="paint16_linear_34_84" x1="-33.8813" y1="-33.3978" x2="8.31251" y2="-33.3978" gradientUnits="userSpaceOnUse">
<stop stop-color="#115046"/>
<stop offset="1" stop-color="#5BC2AA"/>
</linearGradient>
<linearGradient id="paint17_linear_34_84" x1="-33.8813" y1="-39.1728" x2="8.31251" y2="-39.1728" gradientUnits="userSpaceOnUse">
<stop stop-color="#115046"/>
<stop offset="1" stop-color="#5BC2AA"/>
</linearGradient>
<linearGradient id="paint18_linear_34_84" x1="-33.8813" y1="-44.9478" x2="8.31251" y2="-44.9478" gradientUnits="userSpaceOnUse">
<stop stop-color="#115046"/>
<stop offset="1" stop-color="#5BC2AA"/>
</linearGradient>
<linearGradient id="paint19_linear_34_84" x1="-33.8813" y1="-50.7228" x2="8.31251" y2="-50.7228" gradientUnits="userSpaceOnUse">
<stop stop-color="#115046"/>
<stop offset="1" stop-color="#5BC2AA"/>
</linearGradient>
</defs>
</svg>
