<svg width="121" height="20" viewBox="0 0 121 20" fill="none" xmlns="http://www.w3.org/2000/svg">
<path d="M9.5315 13.942V16H0.7955V0.879999H3.2525V13.942H9.5315ZM15.1984 5.122C15.9894 5.122 16.7034 5.2515 17.3404 5.5105C17.9844 5.7695 18.5304 6.137 18.9784 6.613C19.4334 7.089 19.7834 7.6665 20.0284 8.3455C20.2734 9.0245 20.3959 9.7875 20.3959 10.6345C20.3959 11.4815 20.2734 12.2445 20.0284 12.9235C19.7834 13.6025 19.4334 14.1835 18.9784 14.6665C18.5304 15.1425 17.9844 15.51 17.3404 15.769C16.7034 16.028 15.9894 16.1575 15.1984 16.1575C14.4004 16.1575 13.6794 16.028 13.0354 15.769C12.3984 15.51 11.8524 15.1425 11.3974 14.6665C10.9424 14.1835 10.5924 13.6025 10.3474 12.9235C10.1024 12.2445 9.97988 11.4815 9.97988 10.6345C9.97988 9.7875 10.1024 9.0245 10.3474 8.3455C10.5924 7.6665 10.9424 7.089 11.3974 6.613C11.8524 6.137 12.3984 5.7695 13.0354 5.5105C13.6794 5.2515 14.4004 5.122 15.1984 5.122ZM15.1984 14.3935C16.1644 14.3935 16.8819 14.0715 17.3509 13.4275C17.8269 12.7765 18.0649 11.849 18.0649 10.645C18.0649 9.441 17.8269 8.5135 17.3509 7.8625C16.8819 7.2045 16.1644 6.8755 15.1984 6.8755C14.2184 6.8755 13.4904 7.2045 13.0144 7.8625C12.5384 8.5135 12.3004 9.441 12.3004 10.645C12.3004 11.849 12.5384 12.7765 13.0144 13.4275C13.4904 14.0715 14.2184 14.3935 15.1984 14.3935ZM26.3049 10.5505C27.0049 10.5505 27.5299 10.372 27.8799 10.015C28.2299 9.658 28.4049 9.1925 28.4049 8.6185C28.4049 8.0305 28.2299 7.565 27.8799 7.222C27.5299 6.879 27.0049 6.7075 26.3049 6.7075C25.6119 6.7075 25.0869 6.879 24.7299 7.222C24.3799 7.565 24.2049 8.0305 24.2049 8.6185C24.2049 8.8985 24.2504 9.1575 24.3414 9.3955C24.4324 9.6335 24.5654 9.84 24.7404 10.015C24.9154 10.183 25.1324 10.316 25.3914 10.414C25.6574 10.505 25.9619 10.5505 26.3049 10.5505ZM29.4444 16.525C29.4444 16.287 29.3744 16.098 29.2344 15.958C29.1014 15.811 28.9194 15.699 28.6884 15.622C28.4574 15.538 28.1879 15.4785 27.8799 15.4435C27.5719 15.4015 27.2429 15.3735 26.8929 15.3595C26.5499 15.3385 26.1964 15.321 25.8324 15.307C25.4754 15.286 25.1289 15.251 24.7929 15.202C24.4569 15.377 24.1804 15.587 23.9634 15.832C23.7534 16.077 23.6484 16.3605 23.6484 16.6825C23.6484 16.8925 23.7009 17.0885 23.8059 17.2705C23.9179 17.4525 24.0859 17.61 24.3099 17.743C24.5409 17.876 24.8314 17.981 25.1814 18.058C25.5384 18.135 25.9654 18.1735 26.4624 18.1735C27.4564 18.1735 28.2019 18.0195 28.6989 17.7115C29.1959 17.4035 29.4444 17.008 29.4444 16.525ZM31.7124 5.6785V6.5185C31.7124 6.7985 31.5444 6.97 31.2084 7.033L30.1374 7.2115C30.3194 7.6175 30.4104 8.069 30.4104 8.566C30.4104 9.091 30.3054 9.567 30.0954 9.994C29.8924 10.421 29.6089 10.785 29.2449 11.086C28.8809 11.387 28.4469 11.618 27.9429 11.779C27.4389 11.94 26.8929 12.0205 26.3049 12.0205C26.0809 12.0205 25.8604 12.01 25.6434 11.989C25.4334 11.961 25.2269 11.926 25.0239 11.884C24.8209 12.003 24.6704 12.129 24.5724 12.262C24.4744 12.395 24.4254 12.5315 24.4254 12.6715C24.4254 12.9025 24.5269 13.074 24.7299 13.186C24.9329 13.298 25.1989 13.3785 25.5279 13.4275C25.8639 13.4765 26.2454 13.508 26.6724 13.522C27.0994 13.536 27.5334 13.5605 27.9744 13.5955C28.4154 13.6305 28.8494 13.69 29.2764 13.774C29.7034 13.851 30.0814 13.984 30.4104 14.173C30.7464 14.355 31.0159 14.6035 31.2189 14.9185C31.4219 15.2335 31.5234 15.643 31.5234 16.147C31.5234 16.609 31.4079 17.0605 31.1769 17.5015C30.9459 17.9425 30.6099 18.3345 30.1689 18.6775C29.7349 19.0205 29.2029 19.2935 28.5729 19.4965C27.9429 19.7065 27.2254 19.8115 26.4204 19.8115C25.6224 19.8115 24.9259 19.7345 24.3309 19.5805C23.7429 19.4265 23.2494 19.2165 22.8504 18.9505C22.4584 18.6915 22.1644 18.3905 21.9684 18.0475C21.7794 17.7045 21.6849 17.3475 21.6849 16.9765C21.6849 16.4725 21.8424 16.042 22.1574 15.685C22.4794 15.328 22.9134 15.048 23.4594 14.845C23.1654 14.705 22.9274 14.5125 22.7454 14.2675C22.5704 14.0225 22.4829 13.7005 22.4829 13.3015C22.4829 12.9865 22.5984 12.6575 22.8294 12.3145C23.0604 11.9715 23.4069 11.681 23.8689 11.443C23.3369 11.149 22.9169 10.7605 22.6089 10.2775C22.3009 9.7875 22.1469 9.217 22.1469 8.566C22.1469 8.034 22.2484 7.5545 22.4514 7.1275C22.6614 6.7005 22.9519 6.3365 23.3229 6.0355C23.6939 5.7345 24.1314 5.5035 24.6354 5.3425C25.1464 5.1815 25.7029 5.101 26.3049 5.101C27.2289 5.101 28.0339 5.2935 28.7199 5.6785H31.7124ZM35.8476 5.29V16H33.5901V5.29H35.8476ZM36.2256 2.056C36.2256 2.259 36.1836 2.4515 36.0996 2.6335C36.0226 2.8155 35.9141 2.9765 35.7741 3.1165C35.6341 3.2495 35.4696 3.358 35.2806 3.442C35.0986 3.519 34.9026 3.5575 34.6926 3.5575C34.4896 3.5575 34.2971 3.519 34.1151 3.442C33.9401 3.358 33.7861 3.2495 33.6531 3.1165C33.5201 2.9765 33.4116 2.8155 33.3276 2.6335C33.2506 2.4515 33.2121 2.259 33.2121 2.056C33.2121 1.846 33.2506 1.65 33.3276 1.468C33.4116 1.286 33.5201 1.1285 33.6531 0.9955C33.7861 0.855499 33.9401 0.746999 34.1151 0.67C34.2971 0.585999 34.4896 0.543999 34.6926 0.543999C34.9026 0.543999 35.0986 0.585999 35.2806 0.67C35.4696 0.746999 35.6341 0.855499 35.7741 0.9955C35.9141 1.1285 36.0226 1.286 36.0996 1.468C36.1836 1.65 36.2256 1.846 36.2256 2.056ZM40.7946 6.7075C41.0256 6.4695 41.2636 6.256 41.5086 6.067C41.7606 5.871 42.0266 5.703 42.3066 5.563C42.5866 5.423 42.8841 5.3145 43.1991 5.2375C43.5141 5.1605 43.8571 5.122 44.2281 5.122C44.8161 5.122 45.3306 5.22 45.7716 5.416C46.2196 5.612 46.5941 5.8885 46.8951 6.2455C47.2031 6.6025 47.4341 7.033 47.5881 7.537C47.7421 8.034 47.8191 8.5835 47.8191 9.1855V16H45.5721V9.1855C45.5721 8.4645 45.4041 7.9045 45.0681 7.5055C44.7391 7.1065 44.2351 6.907 43.5561 6.907C43.0521 6.907 42.5831 7.0225 42.1491 7.2535C41.7221 7.4845 41.3196 7.7995 40.9416 8.1985V16H38.6841V5.29H40.0491C40.3571 5.29 40.5531 5.4335 40.6371 5.7205L40.7946 6.7075ZM51.8941 16.1155C51.7891 16.4025 51.6211 16.616 51.3901 16.756C51.1591 16.903 50.9246 16.9765 50.6866 16.9765H49.7311L55.9471 1.2685C56.0451 1.0095 56.1956 0.809999 56.3986 0.67C56.6086 0.53 56.8466 0.46 57.1126 0.46H58.0681L51.8941 16.1155ZM68.4413 3.463C68.3643 3.589 68.2838 3.6835 68.1998 3.7465C68.1158 3.8025 68.0108 3.8305 67.8848 3.8305C67.7518 3.8305 67.6013 3.7745 67.4333 3.6625C67.2723 3.5505 67.0693 3.428 66.8243 3.295C66.5863 3.155 66.3028 3.029 65.9738 2.917C65.6448 2.798 65.2528 2.7385 64.7978 2.7385C64.3778 2.7385 64.0068 2.791 63.6848 2.896C63.3698 3.001 63.1038 3.148 62.8868 3.337C62.6698 3.526 62.5053 3.75 62.3933 4.009C62.2883 4.261 62.2358 4.5375 62.2358 4.8385C62.2358 5.2235 62.3373 5.5455 62.5403 5.8045C62.7433 6.0565 63.0093 6.2735 63.3383 6.4555C63.6743 6.6375 64.0558 6.7985 64.4828 6.9385C64.9098 7.0715 65.3438 7.215 65.7848 7.369C66.2328 7.523 66.6703 7.698 67.0973 7.894C67.5243 8.09 67.9023 8.3385 68.2313 8.6395C68.5673 8.9405 68.8368 9.308 69.0398 9.742C69.2428 10.176 69.3443 10.7045 69.3443 11.3275C69.3443 11.9995 69.2288 12.6295 68.9978 13.2175C68.7668 13.8055 68.4308 14.32 67.9898 14.761C67.5558 15.195 67.0168 15.538 66.3728 15.79C65.7358 16.042 65.0078 16.168 64.1888 16.168C63.7058 16.168 63.2333 16.119 62.7713 16.021C62.3163 15.93 61.8788 15.8005 61.4588 15.6325C61.0458 15.4575 60.6573 15.2475 60.2933 15.0025C59.9293 14.7575 59.6038 14.4845 59.3168 14.1835L60.0308 13.0075C60.0938 12.9095 60.1743 12.8325 60.2723 12.7765C60.3703 12.7205 60.4788 12.6925 60.5978 12.6925C60.7588 12.6925 60.9373 12.7695 61.1333 12.9235C61.3293 13.0705 61.5638 13.235 61.8368 13.417C62.1168 13.592 62.4528 13.7565 62.8448 13.9105C63.2368 14.0575 63.7058 14.131 64.2518 14.131C65.1408 14.131 65.8268 13.914 66.3098 13.48C66.7998 13.046 67.0448 12.4475 67.0448 11.6845C67.0448 11.2575 66.9433 10.911 66.7403 10.645C66.5373 10.372 66.2678 10.1445 65.9318 9.9625C65.6028 9.7805 65.2248 9.6265 64.7978 9.5005C64.3708 9.3745 63.9368 9.2415 63.4958 9.1015C63.0548 8.9545 62.6208 8.7865 62.1938 8.5975C61.7668 8.4015 61.3853 8.1495 61.0493 7.8415C60.7203 7.5265 60.4543 7.1415 60.2513 6.6865C60.0483 6.2245 59.9468 5.6505 59.9468 4.9645C59.9468 4.4185 60.0518 3.89 60.2618 3.379C60.4788 2.868 60.7903 2.4165 61.1963 2.0245C61.6093 1.6255 62.1168 1.307 62.7188 1.069C63.3208 0.830999 64.0068 0.711999 64.7768 0.711999C65.6448 0.711999 66.4393 0.848499 67.1603 1.1215C67.8883 1.3945 68.5148 1.783 69.0398 2.287L68.4413 3.463ZM73.8486 5.29V16H71.5911V5.29H73.8486ZM74.2266 2.056C74.2266 2.259 74.1846 2.4515 74.1006 2.6335C74.0236 2.8155 73.9151 2.9765 73.7751 3.1165C73.6351 3.2495 73.4706 3.358 73.2816 3.442C73.0996 3.519 72.9036 3.5575 72.6936 3.5575C72.4906 3.5575 72.2981 3.519 72.1161 3.442C71.9411 3.358 71.7871 3.2495 71.6541 3.1165C71.5211 2.9765 71.4126 2.8155 71.3286 2.6335C71.2516 2.4515 71.2131 2.259 71.2131 2.056C71.2131 1.846 71.2516 1.65 71.3286 1.468C71.4126 1.286 71.5211 1.1285 71.6541 0.9955C71.7871 0.855499 71.9411 0.746999 72.1161 0.67C72.2981 0.585999 72.4906 0.543999 72.6936 0.543999C72.9036 0.543999 73.0996 0.585999 73.2816 0.67C73.4706 0.746999 73.6351 0.855499 73.7751 0.9955C73.9151 1.1285 74.0236 1.286 74.1006 1.468C74.1846 1.65 74.2266 1.846 74.2266 2.056ZM80.5071 10.5505C81.2071 10.5505 81.7321 10.372 82.0821 10.015C82.4321 9.658 82.6071 9.1925 82.6071 8.6185C82.6071 8.0305 82.4321 7.565 82.0821 7.222C81.7321 6.879 81.2071 6.7075 80.5071 6.7075C79.8141 6.7075 79.2891 6.879 78.9321 7.222C78.5821 7.565 78.4071 8.0305 78.4071 8.6185C78.4071 8.8985 78.4526 9.1575 78.5436 9.3955C78.6346 9.6335 78.7676 9.84 78.9426 10.015C79.1176 10.183 79.3346 10.316 79.5936 10.414C79.8596 10.505 80.1641 10.5505 80.5071 10.5505ZM83.6466 16.525C83.6466 16.287 83.5766 16.098 83.4366 15.958C83.3036 15.811 83.1216 15.699 82.8906 15.622C82.6596 15.538 82.3901 15.4785 82.0821 15.4435C81.7741 15.4015 81.4451 15.3735 81.0951 15.3595C80.7521 15.3385 80.3986 15.321 80.0346 15.307C79.6776 15.286 79.3311 15.251 78.9951 15.202C78.6591 15.377 78.3826 15.587 78.1656 15.832C77.9556 16.077 77.8506 16.3605 77.8506 16.6825C77.8506 16.8925 77.9031 17.0885 78.0081 17.2705C78.1201 17.4525 78.2881 17.61 78.5121 17.743C78.7431 17.876 79.0336 17.981 79.3836 18.058C79.7406 18.135 80.1676 18.1735 80.6646 18.1735C81.6586 18.1735 82.4041 18.0195 82.9011 17.7115C83.3981 17.4035 83.6466 17.008 83.6466 16.525ZM85.9146 5.6785V6.5185C85.9146 6.7985 85.7466 6.97 85.4106 7.033L84.3396 7.2115C84.5216 7.6175 84.6126 8.069 84.6126 8.566C84.6126 9.091 84.5076 9.567 84.2976 9.994C84.0946 10.421 83.8111 10.785 83.4471 11.086C83.0831 11.387 82.6491 11.618 82.1451 11.779C81.6411 11.94 81.0951 12.0205 80.5071 12.0205C80.2831 12.0205 80.0626 12.01 79.8456 11.989C79.6356 11.961 79.4291 11.926 79.2261 11.884C79.0231 12.003 78.8726 12.129 78.7746 12.262C78.6766 12.395 78.6276 12.5315 78.6276 12.6715C78.6276 12.9025 78.7291 13.074 78.9321 13.186C79.1351 13.298 79.4011 13.3785 79.7301 13.4275C80.0661 13.4765 80.4476 13.508 80.8746 13.522C81.3016 13.536 81.7356 13.5605 82.1766 13.5955C82.6176 13.6305 83.0516 13.69 83.4786 13.774C83.9056 13.851 84.2836 13.984 84.6126 14.173C84.9486 14.355 85.2181 14.6035 85.4211 14.9185C85.6241 15.2335 85.7256 15.643 85.7256 16.147C85.7256 16.609 85.6101 17.0605 85.3791 17.5015C85.1481 17.9425 84.8121 18.3345 84.3711 18.6775C83.9371 19.0205 83.4051 19.2935 82.7751 19.4965C82.1451 19.7065 81.4276 19.8115 80.6226 19.8115C79.8246 19.8115 79.1281 19.7345 78.5331 19.5805C77.9451 19.4265 77.4516 19.2165 77.0526 18.9505C76.6606 18.6915 76.3666 18.3905 76.1706 18.0475C75.9816 17.7045 75.8871 17.3475 75.8871 16.9765C75.8871 16.4725 76.0446 16.042 76.3596 15.685C76.6816 15.328 77.1156 15.048 77.6616 14.845C77.3676 14.705 77.1296 14.5125 76.9476 14.2675C76.7726 14.0225 76.6851 13.7005 76.6851 13.3015C76.6851 12.9865 76.8006 12.6575 77.0316 12.3145C77.2626 11.9715 77.6091 11.681 78.0711 11.443C77.5391 11.149 77.1191 10.7605 76.8111 10.2775C76.5031 9.7875 76.3491 9.217 76.3491 8.566C76.3491 8.034 76.4506 7.5545 76.6536 7.1275C76.8636 6.7005 77.1541 6.3365 77.5251 6.0355C77.8961 5.7345 78.3336 5.5035 78.8376 5.3425C79.3486 5.1815 79.9051 5.101 80.5071 5.101C81.4311 5.101 82.2361 5.2935 82.9221 5.6785H85.9146ZM89.8083 6.7075C90.0393 6.4695 90.2773 6.256 90.5223 6.067C90.7743 5.871 91.0403 5.703 91.3203 5.563C91.6003 5.423 91.8978 5.3145 92.2128 5.2375C92.5278 5.1605 92.8708 5.122 93.2418 5.122C93.8298 5.122 94.3443 5.22 94.7853 5.416C95.2333 5.612 95.6078 5.8885 95.9088 6.2455C96.2168 6.6025 96.4478 7.033 96.6018 7.537C96.7558 8.034 96.8328 8.5835 96.8328 9.1855V16H94.5858V9.1855C94.5858 8.4645 94.4178 7.9045 94.0818 7.5055C93.7528 7.1065 93.2488 6.907 92.5698 6.907C92.0658 6.907 91.5968 7.0225 91.1628 7.2535C90.7358 7.4845 90.3333 7.7995 89.9553 8.1985V16H87.6978V5.29H89.0628C89.3708 5.29 89.5668 5.4335 89.6508 5.7205L89.8083 6.7075ZM108.499 5.29V16H107.134C106.833 16 106.641 15.8565 106.557 15.5695L106.389 14.572C106.165 14.81 105.927 15.027 105.675 15.223C105.43 15.419 105.167 15.587 104.887 15.727C104.607 15.867 104.306 15.9755 103.984 16.0525C103.669 16.1295 103.33 16.168 102.966 16.168C102.378 16.168 101.86 16.07 101.412 15.874C100.964 15.678 100.586 15.4015 100.278 15.0445C99.9768 14.6875 99.7493 14.2605 99.5953 13.7635C99.4413 13.2595 99.3643 12.7065 99.3643 12.1045V5.29H101.622V12.1045C101.622 12.8255 101.786 13.3855 102.115 13.7845C102.451 14.1835 102.959 14.383 103.638 14.383C104.135 14.383 104.597 14.271 105.024 14.047C105.458 13.816 105.864 13.501 106.242 13.102V5.29H108.499ZM113.498 13.312C113.813 13.718 114.156 14.005 114.527 14.173C114.905 14.334 115.322 14.4145 115.777 14.4145C116.659 14.4145 117.345 14.0925 117.835 13.4485C118.332 12.8045 118.58 11.8455 118.58 10.5715C118.58 9.9135 118.524 9.3535 118.412 8.8915C118.3 8.4225 118.139 8.041 117.929 7.747C117.719 7.453 117.464 7.2395 117.163 7.1065C116.862 6.9735 116.522 6.907 116.144 6.907C115.57 6.907 115.073 7.033 114.653 7.285C114.24 7.53 113.855 7.8835 113.498 8.3455V13.312ZM113.383 6.844C113.831 6.319 114.338 5.8955 114.905 5.5735C115.479 5.2515 116.144 5.0905 116.9 5.0905C117.502 5.0905 118.048 5.213 118.538 5.458C119.028 5.696 119.448 6.046 119.798 6.508C120.148 6.97 120.418 7.544 120.607 8.23C120.803 8.909 120.901 9.6895 120.901 10.5715C120.901 11.3625 120.792 12.101 120.575 12.787C120.365 13.466 120.061 14.0575 119.662 14.5615C119.263 15.0585 118.78 15.4505 118.213 15.7375C117.646 16.0175 117.005 16.1575 116.291 16.1575C115.661 16.1575 115.126 16.056 114.685 15.853C114.251 15.65 113.855 15.37 113.498 15.013V19.5595H111.241V5.29H112.606C112.914 5.29 113.11 5.4335 113.194 5.7205L113.383 6.844Z" fill="black"/>
</svg>
