<svg width="238" height="195" viewBox="0 0 238 195" fill="none" xmlns="http://www.w3.org/2000/svg">
<g clip-path="url(#clip0_84_1293)">
<path d="M177.089 152.834H103.295C102.117 152.832 100.988 152.364 100.154 151.531C99.3214 150.698 98.8528 149.569 98.8514 148.391V95.348C98.8528 94.1701 99.3214 93.0408 100.154 92.208C100.988 91.3751 102.117 90.9066 103.295 90.9053H177.089C178.267 90.9066 179.397 91.3751 180.23 92.208C181.063 93.0409 181.531 94.1701 181.533 95.348V148.391C181.531 149.569 181.063 150.698 180.23 151.531C179.397 152.364 178.267 152.832 177.089 152.834Z" fill="#E6E6E6"/>
<path d="M104.659 149.292H175.725C176.296 149.292 176.844 149.065 177.248 148.661C177.652 148.257 177.879 147.709 177.879 147.138V96.6008C177.879 96.0295 177.652 95.4816 177.248 95.0777C176.844 94.6737 176.296 94.4468 175.725 94.4468H104.659C104.088 94.4468 103.54 94.6737 103.136 95.0777C102.732 95.4816 102.505 96.0295 102.505 96.6008V147.138C102.505 147.709 102.732 148.257 103.136 148.661C103.54 149.065 104.088 149.292 104.659 149.292Z" fill="white"/>
<path d="M78.2374 81.6227H4.44378C3.26562 81.6214 2.1361 81.1529 1.30302 80.32C0.46994 79.4871 0.00133084 78.3579 0 77.18V24.1371C0.00133013 22.9593 0.46994 21.83 1.30302 20.9972C2.1361 20.1643 3.26562 19.6958 4.44378 19.6945H78.2374C79.4155 19.6958 80.5451 20.1643 81.3781 20.9972C82.2112 21.83 82.6798 22.9593 82.6812 24.1371V77.18C82.6798 78.3579 82.2112 79.4871 81.3781 80.32C80.5451 81.1529 79.4155 81.6214 78.2374 81.6227Z" fill="#E6E6E6"/>
<path d="M5.80776 78.0813H76.8733C77.4447 78.0813 77.9928 77.8544 78.3968 77.4504C78.8009 77.0465 79.0279 76.4986 79.0279 75.9273V25.39C79.0279 24.8187 78.8009 24.2708 78.3968 23.8669C77.9928 23.4629 77.4447 23.236 76.8733 23.236H5.80776C5.23633 23.236 4.68831 23.4629 4.28425 23.8669C3.88019 24.2708 3.6532 24.8187 3.6532 25.39V75.9273C3.6532 76.4986 3.88019 77.0465 4.28425 77.4504C4.68831 77.8544 5.23633 78.0813 5.80776 78.0813Z" fill="white"/>
<path d="M167.254 110.15H121.86C121.647 110.15 121.436 110.192 121.239 110.273C121.043 110.354 120.864 110.474 120.713 110.624C120.563 110.775 120.443 110.954 120.362 111.15C120.28 111.347 120.239 111.558 120.239 111.77C120.239 111.983 120.28 112.194 120.362 112.391C120.443 112.587 120.563 112.766 120.713 112.917C120.864 113.067 121.043 113.186 121.239 113.268C121.436 113.349 121.647 113.391 121.86 113.391H167.254C167.684 113.391 168.096 113.221 168.4 112.917C168.704 112.613 168.875 112.2 168.875 111.77C168.875 111.341 168.704 110.928 168.4 110.624C168.096 110.32 167.684 110.15 167.254 110.15Z" fill="#E6E6E6"/>
<path d="M121.86 120.124C121.647 120.124 121.436 120.166 121.239 120.247C121.043 120.329 120.864 120.448 120.713 120.599C120.563 120.749 120.443 120.928 120.362 121.124C120.28 121.321 120.239 121.532 120.239 121.745C120.239 121.958 120.28 122.168 120.362 122.365C120.443 122.562 120.563 122.74 120.713 122.891C120.864 123.041 121.043 123.161 121.239 123.242C121.436 123.324 121.647 123.366 121.86 123.366H167.254C167.684 123.366 168.096 123.195 168.4 122.891C168.704 122.587 168.875 122.175 168.875 121.745C168.875 121.315 168.704 120.903 168.4 120.599C168.096 120.295 167.684 120.124 167.254 120.124H121.86Z" fill="#E6E6E6"/>
<path d="M121.86 130.098C121.43 130.098 121.017 130.269 120.713 130.573C120.409 130.877 120.239 131.289 120.239 131.719C120.239 132.149 120.409 132.561 120.713 132.865C121.017 133.169 121.43 133.34 121.86 133.34H167.254C167.684 133.34 168.096 133.169 168.4 132.865C168.704 132.561 168.875 132.149 168.875 131.719C168.875 131.289 168.704 130.877 168.4 130.573C168.096 130.269 167.684 130.098 167.254 130.098H121.86Z" fill="#E6E6E6"/>
<path d="M113.255 113.89C114.357 113.89 115.25 112.997 115.25 111.895C115.25 110.793 114.357 109.9 113.255 109.9C112.153 109.9 111.26 110.793 111.26 111.895C111.26 112.997 112.153 113.89 113.255 113.89Z" fill="#23A390"/>
<path d="M113.255 123.864C114.357 123.864 115.25 122.971 115.25 121.869C115.25 120.768 114.357 119.875 113.255 119.875C112.153 119.875 111.26 120.768 111.26 121.869C111.26 122.971 112.153 123.864 113.255 123.864Z" fill="#E6E6E6"/>
<path d="M113.255 133.838C114.357 133.838 115.25 132.945 115.25 131.844C115.25 130.742 114.357 129.849 113.255 129.849C112.153 129.849 111.26 130.742 111.26 131.844C111.26 132.945 112.153 133.838 113.255 133.838Z" fill="#E6E6E6"/>
<path d="M149.171 111.77C149.171 111.983 149.129 112.194 149.048 112.391C148.966 112.587 148.847 112.766 148.696 112.917C148.546 113.067 148.367 113.186 148.17 113.268C147.974 113.349 147.763 113.391 147.55 113.391H121.918C121.518 113.397 121.129 113.258 120.823 113C120.517 112.742 120.314 112.382 120.253 111.986C120.222 111.757 120.241 111.524 120.308 111.303C120.375 111.082 120.488 110.878 120.641 110.704C120.793 110.53 120.98 110.391 121.19 110.295C121.401 110.2 121.629 110.15 121.86 110.15H147.55C147.98 110.15 148.392 110.32 148.696 110.624C149 110.928 149.171 111.341 149.171 111.77V111.77Z" fill="#23A390"/>
<path d="M140.192 84.0919C143.774 84.0919 146.677 81.1892 146.677 77.6086C146.677 74.028 143.774 71.1254 140.192 71.1254C136.611 71.1254 133.707 74.028 133.707 77.6086C133.707 81.1892 136.611 84.0919 140.192 84.0919Z" fill="#E6E6E6"/>
<path d="M143.393 78.1279C143.679 76.3607 142.479 74.6957 140.711 74.4089C138.944 74.1221 137.278 75.3222 136.991 77.0894C136.705 78.8566 137.905 80.5217 139.673 80.8084C141.44 81.0952 143.106 79.8951 143.393 78.1279Z" fill="white"/>
<path d="M11.0611 49.1185C10.635 49.1185 10.2264 49.2878 9.92505 49.589C9.62374 49.8902 9.45447 50.2988 9.45447 50.7248C9.45447 51.1508 9.62374 51.5594 9.92505 51.8606C10.2264 52.1618 10.635 52.3311 11.0611 52.3311H71.6199C72.0461 52.3311 72.4547 52.1618 72.756 51.8606C73.0573 51.5594 73.2266 51.1508 73.2266 50.7248C73.2266 50.2988 73.0573 49.8902 72.756 49.589C72.4547 49.2878 72.0461 49.1185 71.6199 49.1185H11.0611Z" fill="#E6E6E6"/>
<path d="M11.0611 59.0032C10.635 59.0032 10.2264 59.1724 9.92505 59.4736C9.62374 59.7749 9.45447 60.1834 9.45447 60.6094C9.45447 61.0354 9.62374 61.444 9.92505 61.7452C10.2264 62.0465 10.635 62.2157 11.0611 62.2157H71.6199C72.0461 62.2157 72.4547 62.0465 72.756 61.7452C73.0573 61.444 73.2266 61.0354 73.2266 60.6094C73.2266 60.1834 73.0573 59.7749 72.756 59.4736C72.4547 59.1724 72.0461 59.0032 71.6199 59.0032H11.0611Z" fill="#E6E6E6"/>
<path d="M38.1273 69.3822C37.7012 69.3822 37.2925 69.5514 36.9912 69.8527C36.6899 70.1539 36.5206 70.5625 36.5206 70.9885C36.5206 71.4145 36.6899 71.823 36.9912 72.1243C37.2925 72.4255 37.7012 72.5947 38.1273 72.5947H44.5539C44.9801 72.5947 45.3887 72.4255 45.69 72.1243C45.9913 71.823 46.1606 71.4145 46.1606 70.9885C46.1606 70.5625 45.9913 70.1539 45.69 69.8527C45.3887 69.5514 44.9801 69.3822 44.5539 69.3822H38.1273Z" fill="#23A390"/>
<path d="M32.729 28.7225C32.5979 28.7227 32.4722 28.7748 32.3796 28.8674C32.2869 28.9601 32.2347 29.0857 32.2346 29.2168V41.7629C32.2347 41.894 32.2869 42.0196 32.3796 42.1123C32.4722 42.2049 32.5979 42.257 32.729 42.2572H49.9523C50.0834 42.257 50.2091 42.2049 50.3017 42.1123C50.3944 42.0196 50.4465 41.894 50.4467 41.7629V29.2168C50.4465 29.0857 50.3944 28.9601 50.3017 28.8674C50.2091 28.7748 50.0834 28.7227 49.9523 28.7225L32.729 28.7225Z" fill="#23A390"/>
<path d="M41.3406 36.8205C42.8422 36.8205 44.0595 35.6035 44.0595 34.1022C44.0595 32.6009 42.8422 31.3839 41.3406 31.3839C39.8389 31.3839 38.6216 32.6009 38.6216 34.1022C38.6216 35.6035 39.8389 36.8205 41.3406 36.8205Z" fill="white"/>
<path d="M45.7898 41.0215C45.7907 41.4511 45.6891 41.8747 45.4932 42.2571H37.188C36.9763 41.8427 36.8746 41.3809 36.8927 40.9159C36.9107 40.4509 37.0478 39.9984 37.2909 39.6016C37.534 39.2048 37.875 38.877 38.2811 38.6497C38.6872 38.4223 39.1449 38.303 39.6103 38.3032H43.0708C43.7915 38.3028 44.4829 38.5887 44.9928 39.0979C45.5027 39.6071 45.7894 40.2979 45.7898 41.0184V41.0215Z" fill="white"/>
<path d="M41.3406 36.8205C42.8422 36.8205 44.0595 35.6035 44.0595 34.1022C44.0595 32.6009 42.8422 31.3839 41.3406 31.3839C39.8389 31.3839 38.6216 32.6009 38.6216 34.1022C38.6216 35.6035 39.8389 36.8205 41.3406 36.8205Z" fill="white"/>
<path d="M45.7898 41.0215C45.7907 41.4511 45.6891 41.8747 45.4932 42.2571H37.188C36.9763 41.8427 36.8746 41.3809 36.8927 40.9159C36.9107 40.4509 37.0478 39.9984 37.2909 39.6016C37.534 39.2048 37.875 38.877 38.2811 38.6497C38.6872 38.4223 39.1449 38.303 39.6103 38.3032H43.0708C43.7915 38.3028 44.4829 38.5887 44.9928 39.0979C45.5027 39.6071 45.7894 40.2979 45.7898 41.0184V41.0215Z" fill="white"/>
<path d="M41.3406 12.8501C44.8899 12.8501 47.7672 9.97353 47.7672 6.42506C47.7672 2.8766 44.8899 0 41.3406 0C37.7913 0 34.9139 2.8766 34.9139 6.42506C34.9139 9.97353 37.7913 12.8501 41.3406 12.8501Z" fill="#E6E6E6"/>
<path d="M41.3406 9.63758C43.1153 9.63758 44.554 8.19929 44.554 6.42505C44.554 4.65082 43.1153 3.21252 41.3406 3.21252C39.566 3.21252 38.1273 4.65082 38.1273 6.42505C38.1273 8.19929 39.566 9.63758 41.3406 9.63758Z" fill="#23A390"/>
<path d="M201.483 191.504L198.404 191.503L196.94 179.63L201.484 179.631L201.483 191.504Z" fill="#FFB8B8"/>
<path d="M196.205 190.624H202.143V194.362H192.466C192.466 193.871 192.563 193.385 192.751 192.931C192.939 192.478 193.214 192.066 193.561 191.719C193.909 191.372 194.321 191.096 194.774 190.908C195.228 190.721 195.714 190.624 196.205 190.624Z" fill="#2F2E41"/>
<path d="M218.079 191.504L215 191.503L213.536 179.63L218.08 179.631L218.079 191.504Z" fill="#FFB8B8"/>
<path d="M212.801 190.624H218.739V194.362H209.062C209.062 193.871 209.159 193.385 209.347 192.931C209.535 192.478 209.81 192.066 210.157 191.719C210.504 191.372 210.917 191.096 211.37 190.908C211.824 190.721 212.31 190.624 212.801 190.624Z" fill="#2F2E41"/>
<path d="M209.062 107.1C212.715 107.1 215.677 104.139 215.677 100.486C215.677 96.8341 212.715 93.8733 209.062 93.8733C205.409 93.8733 202.447 96.8341 202.447 100.486C202.447 104.139 205.409 107.1 209.062 107.1Z" fill="#FFB8B8"/>
<path d="M186.444 143.615C186.49 143.249 186.616 142.897 186.813 142.585C187.01 142.272 187.273 142.007 187.583 141.807C187.894 141.608 188.244 141.479 188.61 141.429C188.976 141.379 189.348 141.41 189.701 141.52L193.397 137.09L196.638 138.679L191.33 144.862C191.106 145.442 190.677 145.92 190.125 146.205C189.573 146.49 188.935 146.562 188.333 146.408C187.73 146.255 187.205 145.885 186.857 145.37C186.509 144.856 186.362 144.231 186.444 143.615Z" fill="#FFB8B8"/>
<path d="M218.26 148.096C218.102 147.762 218.02 147.398 218.018 147.028C218.017 146.659 218.096 146.294 218.251 145.959C218.406 145.624 218.632 145.327 218.915 145.089C219.197 144.851 219.528 144.678 219.884 144.581L220.626 138.86L224.214 138.463L223.052 146.528C223.175 147.137 223.069 147.77 222.756 148.307C222.443 148.844 221.943 149.247 221.353 149.44C220.762 149.633 220.121 149.603 219.551 149.355C218.981 149.108 218.521 148.659 218.26 148.096L218.26 148.096Z" fill="#FFB8B8"/>
<path d="M214.59 112.977C214.942 112.526 215.407 112.175 215.937 111.96C216.468 111.746 217.046 111.675 217.613 111.755C218.18 111.835 218.715 112.063 219.166 112.416C219.616 112.769 219.966 113.235 220.179 113.766L225.6 127.294C226.154 128.676 226.331 130.181 226.112 131.654L224.346 143.544C224.323 143.697 224.268 143.844 224.183 143.974C224.098 144.104 223.987 144.214 223.855 144.296C223.724 144.379 223.577 144.433 223.423 144.453C223.269 144.474 223.113 144.461 222.964 144.415L220.638 143.701C220.397 143.627 220.189 143.471 220.052 143.26C219.914 143.049 219.855 142.796 219.884 142.546C220.705 135.546 219.62 128.454 216.743 122.02L214.187 116.304C213.946 115.765 213.856 115.171 213.927 114.585C213.998 113.999 214.227 113.443 214.59 112.977Z" fill="#23A390"/>
<path d="M210.673 107.099C211.668 107.121 212.657 106.931 213.574 106.544C214.491 106.156 215.316 105.578 215.994 104.849C216.672 104.12 217.188 103.256 217.508 102.313C217.828 101.371 217.945 100.371 217.851 99.3797C217.757 98.3886 217.455 97.4286 216.963 96.5628C216.472 95.6969 215.802 94.9449 215 94.356C214.197 93.7672 213.278 93.3549 212.304 93.1462C211.331 92.9375 210.324 92.9372 209.35 93.1452C207.896 92.2622 206.204 91.668 204.509 91.8191C202.814 91.9703 201.138 92.9764 200.504 94.5553C199.87 96.1343 200.551 98.2156 202.127 98.8573C203.138 99.2686 204.279 99.0691 205.357 98.9032C206.435 98.7373 207.612 98.6291 208.55 99.1853C209.489 99.7416 209.911 101.233 209.07 101.929C208.624 102.312 208.306 102.822 208.158 103.39C208.01 103.959 208.038 104.559 208.239 105.111C208.662 106.203 209.815 107.081 210.673 107.099Z" fill="#2F2E41"/>
<path d="M218.88 143.353L220.053 187.872C220.057 188.02 220.03 188.168 219.974 188.305C219.918 188.443 219.835 188.567 219.728 188.671C219.622 188.775 219.495 188.855 219.357 188.908C219.218 188.96 219.069 188.983 218.921 188.976L215.056 188.778C214.809 188.766 214.574 188.669 214.391 188.504C214.207 188.339 214.086 188.116 214.047 187.872L209.449 158.957C209.43 158.833 209.367 158.72 209.273 158.638C209.179 158.555 209.059 158.507 208.934 158.503C208.809 158.499 208.686 158.539 208.587 158.616C208.488 158.693 208.419 158.802 208.392 158.924L202.168 186.764C202.135 186.913 202.07 187.053 201.979 187.175C201.888 187.297 201.771 187.398 201.638 187.472C201.504 187.546 201.357 187.59 201.205 187.603C201.053 187.615 200.9 187.595 200.756 187.544L196.92 187.31C196.698 187.231 196.508 187.081 196.379 186.884C196.25 186.687 196.189 186.453 196.206 186.218L199.555 142.932L218.88 143.353Z" fill="#2F2E41"/>
<path d="M220.763 122.209C221.41 115.463 216.448 109.361 209.687 108.881C206.773 108.674 202.25 108.6 200.759 112.418C196.267 123.918 204.13 123.639 201.421 133.603C198.712 143.568 196.32 144.139 200.037 144.858C203.754 145.578 220.469 149.825 219.783 142.812C219.361 138.501 220.117 128.938 220.763 122.209Z" fill="#23A390"/>
<path d="M201.554 111.248C202.088 111.041 202.667 110.979 203.233 111.068C203.798 111.156 204.33 111.392 204.776 111.752C205.221 112.112 205.563 112.583 205.768 113.118C205.973 113.652 206.033 114.231 205.943 114.796L203.831 127.987C203.47 130.243 202.516 132.362 201.067 134.128L194.21 142.481C194.112 142.601 193.988 142.698 193.849 142.766C193.71 142.834 193.557 142.871 193.402 142.875C193.247 142.878 193.093 142.848 192.95 142.787C192.808 142.725 192.681 142.634 192.577 142.519L190.948 140.71C190.779 140.523 190.682 140.283 190.672 140.031C190.662 139.779 190.741 139.532 190.895 139.332L191.375 138.71C195.364 133.535 197.88 127.378 198.659 120.891L199.498 113.895C199.568 113.308 199.797 112.752 200.159 112.286C200.521 111.82 201.004 111.461 201.554 111.248Z" fill="#23A390"/>
<path d="M237.731 195H168.246C168.175 195 168.106 194.972 168.056 194.921C168.005 194.871 167.977 194.802 167.977 194.731C167.977 194.659 168.005 194.591 168.056 194.54C168.106 194.49 168.175 194.461 168.246 194.461H237.731C237.802 194.461 237.871 194.49 237.921 194.54C237.972 194.591 238 194.659 238 194.731C238 194.802 237.972 194.871 237.921 194.921C237.871 194.972 237.802 195 237.731 195Z" fill="#CCCCCC"/>
</g>
<defs>
<clipPath id="clip0_84_1293">
<rect width="238" height="195" fill="white"/>
</clipPath>
</defs>
</svg>
