<svg width="292" height="181" viewBox="0 0 292 181" fill="none" xmlns="http://www.w3.org/2000/svg">
<g clip-path="url(#clip0_84_1480)">
<path d="M20.264 167.668C21.5956 168.137 23.0254 168.254 24.4155 168.009C25.8056 167.764 27.1092 167.165 28.2007 166.269C30.9806 163.933 31.8532 160.085 32.5613 156.522L34.6587 145.983L30.2675 149.01C27.1093 151.187 23.8803 153.434 21.6935 156.587C19.5068 159.74 18.5524 164.044 20.3092 167.456" fill="#E6E6E6"/>
<path d="M20.6394 180.428C20.195 177.187 19.7379 173.904 20.0496 170.628C20.3266 167.719 21.213 164.878 23.0182 162.548C23.9764 161.314 25.1423 160.256 26.4635 159.423C26.8081 159.206 27.1249 159.752 26.7821 159.968C24.4961 161.415 22.728 163.55 21.7326 166.067C20.6333 168.866 20.4568 171.918 20.6477 174.891C20.7624 176.689 21.005 178.475 21.2499 180.259C21.2696 180.34 21.2577 180.425 21.2167 180.498C21.1757 180.57 21.1086 180.624 21.0293 180.648C20.9485 180.67 20.8624 180.659 20.7897 180.618C20.717 180.576 20.6635 180.508 20.6409 180.427L20.6394 180.428Z" fill="#F2F2F2"/>
<path d="M108.707 110.601C108.384 110.754 108.033 110.837 107.676 110.844L74.5478 111.754C73.1689 111.784 71.8347 111.264 70.8385 110.31C69.8423 109.355 69.2658 108.043 69.2358 106.663C69.2059 105.282 69.7249 103.947 70.6787 102.95C71.6324 101.952 72.9429 101.375 74.3217 101.345L107.45 100.435C108.121 100.421 108.77 100.674 109.255 101.139C109.739 101.604 110.02 102.242 110.036 102.913L110.152 108.255C110.162 108.744 110.031 109.225 109.775 109.641C109.518 110.057 109.147 110.391 108.707 110.601Z" fill="#23A390"/>
<path d="M66.1995 180.495H60.862C60.1908 180.495 59.5474 180.227 59.0728 179.752C58.5983 179.277 58.3313 178.633 58.3306 177.961V133.429C58.3313 132.757 58.5983 132.113 59.0728 131.638C59.5474 131.163 60.1908 130.895 60.862 130.895H66.1995C66.8706 130.895 67.5141 131.163 67.9886 131.638C68.4632 132.113 68.7302 132.757 68.7309 133.429V177.961C68.7302 178.633 68.4632 179.277 67.9886 179.752C67.5141 180.227 66.8706 180.495 66.1995 180.495Z" fill="#23A390"/>
<path d="M80.3727 180.495H75.0351C74.3639 180.495 73.7205 180.227 73.2459 179.752C72.7714 179.277 72.5044 178.633 72.5037 177.961V133.429C72.5044 132.757 72.7714 132.113 73.2459 131.638C73.7205 131.163 74.3639 130.895 75.0351 130.895H80.3727C81.0438 130.895 81.6873 131.163 82.1618 131.638C82.6364 132.113 82.9033 132.757 82.9041 133.429V177.961C82.9033 178.633 82.6364 179.277 82.1618 179.752C81.6873 180.227 81.0438 180.495 80.3727 180.495Z" fill="#23A390"/>
<path d="M71.1385 84.6011C81.3244 84.6011 89.5817 76.3351 89.5817 66.1385C89.5817 55.9419 81.3244 47.6759 71.1385 47.6759C60.9526 47.6759 52.6953 55.9419 52.6953 66.1385C52.6953 76.3351 60.9526 84.6011 71.1385 84.6011Z" fill="#23A390"/>
<path d="M77.3988 146.686H64.1308C61.3736 146.696 58.6626 145.977 56.2721 144.602C53.8817 143.226 51.8967 141.243 50.5181 138.853C49.1395 136.462 48.4162 133.75 48.4214 130.99C48.4266 128.23 49.1602 125.52 50.5478 123.135L69.1028 90.9628C69.3091 90.6051 69.6059 90.308 69.9632 90.1015C70.3205 89.895 70.7259 89.7863 71.1385 89.7863C71.5511 89.7863 71.9565 89.895 72.3138 90.1015C72.6711 90.308 72.9679 90.6051 73.1742 90.9628L91.3556 122.487C92.77 124.939 93.5146 127.721 93.5146 130.553C93.5146 133.385 92.7699 136.167 91.3555 138.62C89.941 141.072 87.9066 143.109 85.4567 144.525C83.0068 145.941 80.2277 146.686 77.3988 146.686Z" fill="#2F2E41"/>
<path d="M75.4915 73.8888C76.6871 73.8556 78.1749 73.814 79.3212 72.9758C79.6625 72.716 79.943 72.3846 80.1429 72.0048C80.3428 71.625 80.4573 71.2061 80.4785 70.7774C80.4992 70.4727 80.4493 70.1673 80.3326 69.8852C80.2158 69.603 80.0355 69.3517 79.8057 69.1508C79.207 68.6444 78.3328 68.5256 77.3906 68.8028L78.3668 61.6619L77.6502 61.5636L76.5027 69.9586L77.1011 69.6838C77.7948 69.3652 78.7471 69.2031 79.3388 69.7037C79.4841 69.8346 79.5973 69.9973 79.6696 70.1791C79.7419 70.3609 79.7714 70.5569 79.7557 70.7519C79.7381 71.071 79.6522 71.3826 79.5036 71.6654C79.355 71.9483 79.1473 72.1958 78.8946 72.3911C78.0025 73.0433 76.8166 73.1275 75.4714 73.1651L75.4915 73.8888Z" fill="#2F2E41"/>
<path d="M85.806 62.2777H81.9106V63.0017H85.806V62.2777Z" fill="#2F2E41"/>
<path d="M73.5103 62.2777H69.615V63.0017H73.5103V62.2777Z" fill="#2F2E41"/>
<path d="M66.8005 142.557C66.6472 142.234 66.5645 141.882 66.5579 141.525L65.6487 108.362C65.6187 106.982 66.1377 105.646 67.0915 104.649C68.0453 103.651 69.3557 103.074 70.7346 103.044C72.1134 103.014 73.4476 103.534 74.4438 104.489C75.44 105.443 76.0165 106.755 76.0465 108.136L76.9555 141.298C76.9694 141.97 76.7166 142.62 76.2525 143.105C75.7884 143.59 75.1509 143.872 74.4799 143.887L69.1438 144.003C68.6556 144.013 68.1748 143.882 67.7591 143.626C67.3435 143.369 67.0106 142.998 66.8005 142.557Z" fill="#23A390"/>
<path d="M69.4272 52.4908C71.668 55.4243 75.2253 57.3921 78.9849 56.9262C82.5652 56.4825 85.5188 53.9844 86.2599 50.408C86.5834 48.7171 86.4961 46.9732 86.0054 45.3231C85.5147 43.673 84.635 42.1652 83.4403 40.9267C80.9062 38.2586 77.2795 36.8234 73.6897 36.3312C66.8894 35.3989 59.9053 37.7968 54.7636 42.269C52.1815 44.4924 50.1205 47.2579 48.7271 50.3691C47.3848 53.4572 46.7456 56.8055 46.8557 60.1715C47.0532 66.8234 49.9639 73.4626 54.9861 77.8741C55.6098 78.4203 56.2627 78.9322 56.9418 79.4075C57.5146 79.8098 58.0573 78.8686 57.4894 78.4698C52.3463 74.858 49.0657 68.9811 48.1653 62.8061C47.6937 59.6948 47.904 56.518 48.7816 53.4962C49.6591 50.4744 51.1829 47.6799 53.2472 45.3066C57.4003 40.5794 63.4896 37.5069 69.7965 37.2316C76.1427 36.9546 84.0734 39.7909 85.261 46.8627C85.7932 50.0324 84.6097 53.3642 81.7081 54.9511C78.6015 56.6501 74.7922 55.9509 72.1225 53.7566C71.4688 53.2215 70.8787 52.6128 70.364 51.9426C69.9456 51.3949 69.0029 51.9352 69.4273 52.4908H69.4272Z" fill="#2F2E41"/>
<path d="M256.054 4.28485L99.5754 26.9132L110.302 101.243L266.781 78.6149L256.054 4.28485Z" fill="#F1F1F1"/>
<path d="M252.5 11.3058L104.97 32.64L113.919 94.6559L261.449 73.3217L252.5 11.3058Z" fill="white"/>
<path d="M255.368 -5.99566e-05L98.8889 22.6283L99.8492 29.283L256.328 6.65463L255.368 -5.99566e-05Z" fill="#E5E5E5"/>
<path d="M104.394 27.0733C105.081 27.0733 105.639 26.5153 105.639 25.827C105.639 25.1388 105.081 24.5808 104.394 24.5808C103.706 24.5808 103.149 25.1388 103.149 25.827C103.149 26.5153 103.706 27.0733 104.394 27.0733Z" fill="white"/>
<path d="M109.071 26.397C109.758 26.397 110.316 25.839 110.316 25.1508C110.316 24.4625 109.758 23.9045 109.071 23.9045C108.383 23.9045 107.826 24.4625 107.826 25.1508C107.826 25.839 108.383 26.397 109.071 26.397Z" fill="white"/>
<path d="M113.747 25.7206C114.435 25.7206 114.992 25.1626 114.992 24.4744C114.992 23.7861 114.435 23.2281 113.747 23.2281C113.06 23.2281 112.502 23.7861 112.502 24.4744C112.502 25.1626 113.06 25.7206 113.747 25.7206Z" fill="white"/>
<path d="M292 36.2675H133.897V111.369H292V36.2675Z" fill="#E6E6E6"/>
<path d="M287.479 42.7075H138.418V105.367H287.479V42.7075Z" fill="white"/>
<path d="M291.933 31.9283H133.829V38.6521H291.933V31.9283Z" fill="#CBCBCB"/>
<path d="M138.821 37.1283C139.508 37.1283 140.066 36.5704 140.066 35.8821C140.066 35.1938 139.508 34.6359 138.821 34.6359C138.133 34.6359 137.576 35.1938 137.576 35.8821C137.576 36.5704 138.133 37.1283 138.821 37.1283Z" fill="white"/>
<path d="M143.546 37.1283C144.233 37.1283 144.791 36.5704 144.791 35.8821C144.791 35.1938 144.233 34.6359 143.546 34.6359C142.858 34.6359 142.301 35.1938 142.301 35.8821C142.301 36.5704 142.858 37.1283 143.546 37.1283Z" fill="white"/>
<path d="M148.272 37.1283C148.959 37.1283 149.516 36.5704 149.516 35.8821C149.516 35.1938 148.959 34.6359 148.272 34.6359C147.584 34.6359 147.027 35.1938 147.027 35.8821C147.027 36.5704 147.584 37.1283 148.272 37.1283Z" fill="white"/>
<path d="M245.305 52.2341H224.312V53.8137H245.305V52.2341Z" fill="#E6E6E6"/>
<path d="M256.73 56.8712H224.312V58.4508H256.73V56.8712Z" fill="#E6E6E6"/>
<path d="M251.069 61.2875H224.648V62.867H251.069V61.2875Z" fill="#E6E6E6"/>
<path d="M239.735 66.1331H224.312V67.7126H239.735V66.1331Z" fill="#E6E6E6"/>
<path d="M247.59 70.8662H224.312V72.4458H247.59V70.8662Z" fill="#E6E6E6"/>
<path d="M217.314 51.7372H214.743V54.3105H217.314V51.7372Z" fill="#E6E6E6"/>
<path d="M217.314 56.3743H214.743V58.9476H217.314V56.3743Z" fill="#E6E6E6"/>
<path d="M217.314 60.7905H214.743V63.3639H217.314V60.7905Z" fill="#E6E6E6"/>
<path d="M217.314 65.6362H214.743V68.2096H217.314V65.6362Z" fill="#E6E6E6"/>
<path d="M217.314 70.3693H214.743V72.9426H217.314V70.3693Z" fill="#E6E6E6"/>
<path d="M245.305 75.6289H224.312V77.2085H245.305V75.6289Z" fill="#E6E6E6"/>
<path d="M256.73 80.266H224.312V81.8456H256.73V80.266Z" fill="#E6E6E6"/>
<path d="M251.069 84.6823H224.648V86.2618H251.069V84.6823Z" fill="#E6E6E6"/>
<path d="M239.735 89.5278H224.312V91.1074H239.735V89.5278Z" fill="#E6E6E6"/>
<path d="M247.59 94.261H224.312V95.8406H247.59V94.261Z" fill="#E6E6E6"/>
<path d="M217.314 75.1321H214.743V77.7054H217.314V75.1321Z" fill="#E6E6E6"/>
<path d="M217.314 79.7692H214.743V82.3425H217.314V79.7692Z" fill="#E6E6E6"/>
<path d="M217.314 84.1853H214.743V86.7586H217.314V84.1853Z" fill="#E6E6E6"/>
<path d="M217.314 89.031H214.743V91.6043H217.314V89.031Z" fill="#E6E6E6"/>
<path d="M217.314 93.7642H214.743V96.3375H217.314V93.7642Z" fill="#E6E6E6"/>
<path d="M178.892 88.0192H157.899V89.5987H178.892V88.0192Z" fill="#E6E6E6"/>
<path d="M181.51 92.1235H155.09V93.7031H181.51V92.1235Z" fill="#E6E6E6"/>
<path d="M182.04 68.0935C182.04 70.4676 181.424 72.8008 180.253 74.8654C179.082 76.9299 177.396 78.6552 175.361 79.8728C173.325 81.0903 171.008 81.7585 168.637 81.812C166.266 81.8655 163.922 81.3026 161.833 80.1782L161.831 80.1755C159.697 79.0249 157.906 77.3287 156.641 75.2598C155.376 73.1908 154.681 70.823 154.627 68.3977C154.574 65.9723 155.163 63.5761 156.336 61.4532C157.509 59.3302 159.223 57.5565 161.304 56.3126C163.384 55.0688 165.757 54.3993 168.18 54.3724C170.603 54.3455 172.991 54.9622 175.098 56.1596C177.206 57.357 178.959 59.0923 180.178 61.1886C181.398 63.285 182.04 65.6676 182.04 68.0935V68.0935Z" fill="#E6E6E6"/>
<path d="M168.403 67.4274C170.461 67.4274 172.129 65.7573 172.129 63.6972C172.129 61.637 170.461 59.9669 168.403 59.9669C166.345 59.9669 164.677 61.637 164.677 63.6972C164.677 65.7573 166.345 67.4274 168.403 67.4274Z" fill="white"/>
<path d="M174.766 75.135C170.6 76.5988 166.057 76.5812 161.903 75.0852L161.9 75.0833L164.676 69.5977H172.129L174.766 75.135Z" fill="white"/>
<path d="M127.146 102.154C120.651 102.154 115.367 96.5353 115.367 89.6284C115.367 82.7218 120.651 77.1028 127.146 77.1028C133.641 77.1028 138.925 82.7218 138.925 89.6284C138.925 96.5353 133.641 102.154 127.146 102.154ZM127.146 80.2677C122.394 80.2677 118.528 84.4669 118.528 89.6284C118.528 94.79 122.394 98.9893 127.146 98.9893C131.897 98.9893 135.763 94.79 135.763 89.6284C135.763 84.4669 131.897 80.2677 127.146 80.2677Z" fill="#23A390"/>
<path d="M138.3 123.983H115.992C114.024 123.981 112.138 123.198 110.747 121.805C109.356 120.413 108.574 118.525 108.572 116.555V94.65C108.573 93.3018 109.109 92.0091 110.061 91.0558C111.013 90.1024 112.305 89.5661 113.652 89.5646H140.64C141.987 89.5661 143.278 90.1024 144.231 91.0558C145.183 92.0091 145.719 93.3018 145.72 94.65V116.555C145.718 118.525 144.936 120.413 143.545 121.805C142.154 123.198 140.267 123.981 138.3 123.983Z" fill="#3F3D56"/>
<path d="M131.493 102.026C131.494 101.253 131.288 100.493 130.898 99.8255C130.508 99.1578 129.947 98.6063 129.273 98.2278C128.599 97.8493 127.836 97.6575 127.064 97.6722C126.291 97.6868 125.536 97.9073 124.877 98.3111C124.218 98.7148 123.678 99.2872 123.313 99.9692C122.949 100.651 122.772 101.418 122.802 102.191C122.832 102.964 123.067 103.715 123.483 104.367C123.899 105.019 124.481 105.548 125.17 105.899V112.708H129.122V105.899C129.835 105.535 130.434 104.981 130.853 104.298C131.271 103.614 131.493 102.828 131.493 102.026Z" fill="white"/>
<path d="M138.143 181H0.361631C0.265721 181 0.173738 180.962 0.105919 180.894C0.0381 180.826 0 180.734 0 180.638C0 180.542 0.0381 180.45 0.105919 180.382C0.173738 180.314 0.265721 180.276 0.361631 180.276H138.143C138.239 180.276 138.331 180.314 138.399 180.382C138.467 180.45 138.505 180.542 138.505 180.638C138.505 180.734 138.467 180.826 138.399 180.894C138.331 180.962 138.239 181 138.143 181Z" fill="#3F3D56"/>
</g>
<defs>
<clipPath id="clip0_84_1480">
<rect width="292" height="181" fill="white"/>
</clipPath>
</defs>
</svg>
