<svg width="36" height="119" viewBox="0 0 36 119" fill="none" xmlns="http://www.w3.org/2000/svg">
<path d="M0.570837 116.916C1.14645 116.916 1.61308 117.382 1.61308 117.958C1.61308 118.533 1.14645 119 0.570837 119C-0.0047763 119 -0.471405 118.533 -0.471405 117.958C-0.471405 117.382 -0.0047763 116.916 0.570837 116.916Z" fill="#23A390" fill-opacity="0.5"/>
<path d="M7.44825 116.916C8.02386 116.916 8.49049 117.382 8.49049 117.958C8.49049 118.533 8.02386 119 7.44825 119C6.87263 119 6.40601 118.533 6.40601 117.958C6.40601 117.382 6.87263 116.916 7.44825 116.916Z" fill="#23A390" fill-opacity="0.5"/>
<path d="M14.3257 116.916C14.9013 116.916 15.3679 117.382 15.3679 117.958C15.3679 118.533 14.9013 119 14.3257 119C13.75 119 13.2834 118.533 13.2834 117.958C13.2834 117.382 13.75 116.916 14.3257 116.916Z" fill="#23A390" fill-opacity="0.5"/>
<path d="M21.203 116.916C21.7786 116.916 22.2452 117.382 22.2452 117.958C22.2452 118.533 21.7786 119 21.203 119C20.6274 119 20.1608 118.533 20.1608 117.958C20.1608 117.382 20.6274 116.916 21.203 116.916Z" fill="#23A390" fill-opacity="0.5"/>
<path d="M28.0804 116.916C28.656 116.916 29.1226 117.382 29.1226 117.958C29.1226 118.533 28.656 119 28.0804 119C27.5048 119 27.0381 118.533 27.0381 117.958C27.0381 117.382 27.5048 116.916 28.0804 116.916Z" fill="#23A390" fill-opacity="0.5"/>
<path d="M34.9578 116.916C35.5334 116.916 36 117.382 36 117.958C36 118.533 35.5334 119 34.9578 119C34.3822 119 33.9156 118.533 33.9156 117.958C33.9156 117.382 34.3822 116.916 34.9578 116.916Z" fill="#23A390" fill-opacity="0.5"/>
<path d="M0.570837 109.608C1.14645 109.608 1.61308 110.075 1.61308 110.651C1.61308 111.226 1.14645 111.693 0.570837 111.693C-0.0047763 111.693 -0.471405 111.226 -0.471405 110.651C-0.471405 110.075 -0.0047763 109.608 0.570837 109.608Z" fill="#23A390" fill-opacity="0.5"/>
<path d="M7.44825 109.608C8.02386 109.608 8.49049 110.075 8.49049 110.651C8.49049 111.226 8.02386 111.693 7.44825 111.693C6.87263 111.693 6.40601 111.226 6.40601 110.651C6.40601 110.075 6.87263 109.608 7.44825 109.608Z" fill="#23A390" fill-opacity="0.5"/>
<path d="M14.3257 109.608C14.9013 109.608 15.3679 110.075 15.3679 110.651C15.3679 111.226 14.9013 111.693 14.3257 111.693C13.75 111.693 13.2834 111.226 13.2834 110.651C13.2834 110.075 13.75 109.608 14.3257 109.608Z" fill="#23A390" fill-opacity="0.5"/>
<path d="M21.203 109.608C21.7786 109.608 22.2452 110.075 22.2452 110.651C22.2452 111.226 21.7786 111.693 21.203 111.693C20.6274 111.693 20.1608 111.226 20.1608 110.651C20.1608 110.075 20.6274 109.608 21.203 109.608Z" fill="#23A390" fill-opacity="0.5"/>
<path d="M28.0804 109.608C28.656 109.608 29.1226 110.075 29.1226 110.651C29.1226 111.226 28.656 111.693 28.0804 111.693C27.5048 111.693 27.0381 111.226 27.0381 110.651C27.0381 110.075 27.5048 109.608 28.0804 109.608Z" fill="#23A390" fill-opacity="0.5"/>
<path d="M34.9578 109.608C35.5334 109.608 36 110.075 36 110.651C36 111.226 35.5334 111.693 34.9578 111.693C34.3822 111.693 33.9156 111.226 33.9156 110.651C33.9156 110.075 34.3822 109.608 34.9578 109.608Z" fill="#23A390" fill-opacity="0.5"/>
<path d="M0.570837 102.301C1.14645 102.301 1.61308 102.768 1.61308 103.343C1.61308 103.919 1.14645 104.386 0.570837 104.386C-0.0047763 104.386 -0.471405 103.919 -0.471405 103.343C-0.471405 102.768 -0.0047763 102.301 0.570837 102.301Z" fill="#23A390" fill-opacity="0.5"/>
<path d="M7.44825 102.301C8.02386 102.301 8.49049 102.768 8.49049 103.343C8.49049 103.919 8.02386 104.386 7.44825 104.386C6.87263 104.386 6.40601 103.919 6.40601 103.343C6.40601 102.768 6.87263 102.301 7.44825 102.301Z" fill="#23A390" fill-opacity="0.5"/>
<path d="M14.3257 102.301C14.9013 102.301 15.3679 102.768 15.3679 103.343C15.3679 103.919 14.9013 104.386 14.3257 104.386C13.75 104.386 13.2834 103.919 13.2834 103.343C13.2834 102.768 13.75 102.301 14.3257 102.301Z" fill="#23A390" fill-opacity="0.5"/>
<path d="M21.203 102.301C21.7786 102.301 22.2452 102.768 22.2452 103.343C22.2452 103.919 21.7786 104.386 21.203 104.386C20.6274 104.386 20.1608 103.919 20.1608 103.343C20.1608 102.768 20.6274 102.301 21.203 102.301Z" fill="#23A390" fill-opacity="0.5"/>
<path d="M28.0804 102.301C28.656 102.301 29.1226 102.768 29.1226 103.343C29.1226 103.919 28.656 104.386 28.0804 104.386C27.5048 104.386 27.0381 103.919 27.0381 103.343C27.0381 102.768 27.5048 102.301 28.0804 102.301Z" fill="#23A390" fill-opacity="0.5"/>
<path d="M34.9578 102.301C35.5334 102.301 36 102.768 36 103.343C36 103.919 35.5334 104.386 34.9578 104.386C34.3822 104.386 33.9156 103.919 33.9156 103.343C33.9156 102.768 34.3822 102.301 34.9578 102.301Z" fill="#23A390" fill-opacity="0.5"/>
<path d="M0.570837 94.9939C1.14645 94.9939 1.61308 95.4605 1.61308 96.0361C1.61308 96.6117 1.14645 97.0783 0.570837 97.0783C-0.0047763 97.0783 -0.471405 96.6117 -0.471405 96.0361C-0.471405 95.4605 -0.0047763 94.9939 0.570837 94.9939Z" fill="#23A390" fill-opacity="0.5"/>
<path d="M7.44825 94.9939C8.02386 94.9939 8.49049 95.4605 8.49049 96.0361C8.49049 96.6117 8.02386 97.0783 7.44825 97.0783C6.87263 97.0783 6.40601 96.6117 6.40601 96.0361C6.40601 95.4605 6.87263 94.9939 7.44825 94.9939Z" fill="#23A390" fill-opacity="0.5"/>
<path d="M14.3257 94.9939C14.9013 94.9939 15.3679 95.4605 15.3679 96.0361C15.3679 96.6117 14.9013 97.0783 14.3257 97.0783C13.75 97.0783 13.2834 96.6117 13.2834 96.0361C13.2834 95.4605 13.75 94.9939 14.3257 94.9939Z" fill="#23A390" fill-opacity="0.5"/>
<path d="M21.203 94.9939C21.7786 94.9939 22.2452 95.4605 22.2452 96.0361C22.2452 96.6117 21.7786 97.0783 21.203 97.0783C20.6274 97.0783 20.1608 96.6117 20.1608 96.0361C20.1608 95.4605 20.6274 94.9939 21.203 94.9939Z" fill="#23A390" fill-opacity="0.5"/>
<path d="M28.0804 94.9939C28.656 94.9939 29.1226 95.4605 29.1226 96.0361C29.1226 96.6117 28.656 97.0783 28.0804 97.0783C27.5048 97.0783 27.0381 96.6117 27.0381 96.0361C27.0381 95.4605 27.5048 94.9939 28.0804 94.9939Z" fill="#23A390" fill-opacity="0.5"/>
<path d="M34.9578 94.9939C35.5334 94.9939 36 95.4605 36 96.0361C36 96.6117 35.5334 97.0783 34.9578 97.0783C34.3822 97.0783 33.9156 96.6117 33.9156 96.0361C33.9156 95.4605 34.3822 94.9939 34.9578 94.9939Z" fill="#23A390" fill-opacity="0.5"/>
<path d="M0.570837 87.6866C1.14645 87.6866 1.61308 88.1533 1.61308 88.7289C1.61308 89.3045 1.14645 89.7711 0.570837 89.7711C-0.0047763 89.7711 -0.471405 89.3045 -0.471405 88.7289C-0.471405 88.1533 -0.0047763 87.6866 0.570837 87.6866Z" fill="#23A390" fill-opacity="0.5"/>
<path d="M7.44825 87.6866C8.02386 87.6866 8.49049 88.1533 8.49049 88.7289C8.49049 89.3045 8.02386 89.7711 7.44825 89.7711C6.87263 89.7711 6.40601 89.3045 6.40601 88.7289C6.40601 88.1533 6.87263 87.6866 7.44825 87.6866Z" fill="#23A390" fill-opacity="0.5"/>
<path d="M14.3257 87.6866C14.9013 87.6866 15.3679 88.1533 15.3679 88.7289C15.3679 89.3045 14.9013 89.7711 14.3257 89.7711C13.75 89.7711 13.2834 89.3045 13.2834 88.7289C13.2834 88.1533 13.75 87.6866 14.3257 87.6866Z" fill="#23A390" fill-opacity="0.5"/>
<path d="M21.203 87.6866C21.7786 87.6866 22.2452 88.1533 22.2452 88.7289C22.2452 89.3045 21.7786 89.7711 21.203 89.7711C20.6274 89.7711 20.1608 89.3045 20.1608 88.7289C20.1608 88.1533 20.6274 87.6866 21.203 87.6866Z" fill="#23A390" fill-opacity="0.5"/>
<path d="M28.0804 87.6866C28.656 87.6866 29.1226 88.1533 29.1226 88.7289C29.1226 89.3045 28.656 89.7711 28.0804 89.7711C27.5048 89.7711 27.0381 89.3045 27.0381 88.7289C27.0381 88.1533 27.5048 87.6866 28.0804 87.6866Z" fill="#23A390" fill-opacity="0.5"/>
<path d="M34.9578 87.6866C35.5334 87.6866 36 88.1533 36 88.7289C36 89.3045 35.5334 89.7711 34.9578 89.7711C34.3822 89.7711 33.9156 89.3045 33.9156 88.7289C33.9156 88.1533 34.3822 87.6866 34.9578 87.6866Z" fill="#23A390" fill-opacity="0.5"/>
<path d="M0.570837 80.3794C1.14645 80.3794 1.61308 80.8461 1.61308 81.4217C1.61308 81.9973 1.14645 82.4639 0.570837 82.4639C-0.0047763 82.4639 -0.471405 81.9973 -0.471405 81.4217C-0.471405 80.8461 -0.0047763 80.3794 0.570837 80.3794Z" fill="#23A390" fill-opacity="0.5"/>
<path d="M7.44825 80.3794C8.02386 80.3794 8.49049 80.8461 8.49049 81.4217C8.49049 81.9973 8.02386 82.4639 7.44825 82.4639C6.87263 82.4639 6.40601 81.9973 6.40601 81.4217C6.40601 80.8461 6.87263 80.3794 7.44825 80.3794Z" fill="#23A390" fill-opacity="0.5"/>
<path d="M14.3257 80.3794C14.9013 80.3794 15.3679 80.8461 15.3679 81.4217C15.3679 81.9973 14.9013 82.4639 14.3257 82.4639C13.75 82.4639 13.2834 81.9973 13.2834 81.4217C13.2834 80.8461 13.75 80.3794 14.3257 80.3794Z" fill="#23A390" fill-opacity="0.5"/>
<path d="M21.203 80.3794C21.7786 80.3794 22.2452 80.8461 22.2452 81.4217C22.2452 81.9973 21.7786 82.4639 21.203 82.4639C20.6274 82.4639 20.1608 81.9973 20.1608 81.4217C20.1608 80.8461 20.6274 80.3794 21.203 80.3794Z" fill="#23A390" fill-opacity="0.5"/>
<path d="M28.0804 80.3794C28.656 80.3794 29.1226 80.8461 29.1226 81.4217C29.1226 81.9973 28.656 82.4639 28.0804 82.4639C27.5048 82.4639 27.0381 81.9973 27.0381 81.4217C27.0381 80.8461 27.5048 80.3794 28.0804 80.3794Z" fill="#23A390" fill-opacity="0.5"/>
<path d="M34.9578 80.3794C35.5334 80.3794 36 80.8461 36 81.4217C36 81.9973 35.5334 82.4639 34.9578 82.4639C34.3822 82.4639 33.9156 81.9973 33.9156 81.4217C33.9156 80.8461 34.3822 80.3794 34.9578 80.3794Z" fill="#23A390" fill-opacity="0.5"/>
<path d="M0.570837 73.0722C1.14645 73.0722 1.61308 73.5388 1.61308 74.1144C1.61308 74.69 1.14645 75.1567 0.570837 75.1567C-0.0047763 75.1567 -0.471405 74.69 -0.471405 74.1144C-0.471405 73.5388 -0.0047763 73.0722 0.570837 73.0722Z" fill="#23A390" fill-opacity="0.5"/>
<path d="M7.44825 73.0722C8.02386 73.0722 8.49049 73.5388 8.49049 74.1144C8.49049 74.69 8.02386 75.1567 7.44825 75.1567C6.87263 75.1567 6.40601 74.69 6.40601 74.1144C6.40601 73.5388 6.87263 73.0722 7.44825 73.0722Z" fill="#23A390" fill-opacity="0.5"/>
<path d="M14.3257 73.0722C14.9013 73.0722 15.3679 73.5388 15.3679 74.1144C15.3679 74.69 14.9013 75.1567 14.3257 75.1567C13.75 75.1567 13.2834 74.69 13.2834 74.1144C13.2834 73.5388 13.75 73.0722 14.3257 73.0722Z" fill="#23A390" fill-opacity="0.5"/>
<path d="M21.203 73.0722C21.7786 73.0722 22.2452 73.5388 22.2452 74.1144C22.2452 74.69 21.7786 75.1567 21.203 75.1567C20.6274 75.1567 20.1608 74.69 20.1608 74.1144C20.1608 73.5388 20.6274 73.0722 21.203 73.0722Z" fill="#23A390" fill-opacity="0.5"/>
<path d="M28.0804 73.0722C28.656 73.0722 29.1226 73.5388 29.1226 74.1144C29.1226 74.69 28.656 75.1567 28.0804 75.1567C27.5048 75.1567 27.0381 74.69 27.0381 74.1144C27.0381 73.5388 27.5048 73.0722 28.0804 73.0722Z" fill="#23A390" fill-opacity="0.5"/>
<path d="M34.9578 73.0722C35.5334 73.0722 36 73.5388 36 74.1144C36 74.69 35.5334 75.1567 34.9578 75.1567C34.3822 75.1567 33.9156 74.69 33.9156 74.1144C33.9156 73.5388 34.3822 73.0722 34.9578 73.0722Z" fill="#23A390" fill-opacity="0.5"/>
<path d="M0.570837 65.765C1.14645 65.765 1.61308 66.2316 1.61308 66.8072C1.61308 67.3828 1.14645 67.8495 0.570837 67.8495C-0.0047763 67.8495 -0.471405 67.3828 -0.471405 66.8072C-0.471405 66.2316 -0.0047763 65.765 0.570837 65.765Z" fill="#23A390" fill-opacity="0.5"/>
<path d="M7.44825 65.765C8.02386 65.765 8.49049 66.2316 8.49049 66.8072C8.49049 67.3828 8.02386 67.8495 7.44825 67.8495C6.87263 67.8495 6.40601 67.3828 6.40601 66.8072C6.40601 66.2316 6.87263 65.765 7.44825 65.765Z" fill="#23A390" fill-opacity="0.5"/>
<path d="M14.3257 65.765C14.9013 65.765 15.3679 66.2316 15.3679 66.8072C15.3679 67.3828 14.9013 67.8495 14.3257 67.8495C13.75 67.8495 13.2834 67.3828 13.2834 66.8072C13.2834 66.2316 13.75 65.765 14.3257 65.765Z" fill="#23A390" fill-opacity="0.5"/>
<path d="M21.203 65.765C21.7786 65.765 22.2452 66.2316 22.2452 66.8072C22.2452 67.3828 21.7786 67.8495 21.203 67.8495C20.6274 67.8495 20.1608 67.3828 20.1608 66.8072C20.1608 66.2316 20.6274 65.765 21.203 65.765Z" fill="#23A390" fill-opacity="0.5"/>
<path d="M28.0804 65.765C28.656 65.765 29.1226 66.2316 29.1226 66.8072C29.1226 67.3828 28.656 67.8495 28.0804 67.8495C27.5048 67.8495 27.0381 67.3828 27.0381 66.8072C27.0381 66.2316 27.5048 65.765 28.0804 65.765Z" fill="#23A390" fill-opacity="0.5"/>
<path d="M34.9578 65.765C35.5334 65.765 36 66.2316 36 66.8072C36 67.3828 35.5334 67.8495 34.9578 67.8495C34.3822 67.8495 33.9156 67.3828 33.9156 66.8072C33.9156 66.2316 34.3822 65.765 34.9578 65.765Z" fill="#23A390" fill-opacity="0.5"/>
<path d="M0.570837 58.4578C1.14645 58.4578 1.61308 58.9244 1.61308 59.5C1.61308 60.0756 1.14645 60.5422 0.570837 60.5422C-0.0047763 60.5422 -0.471405 60.0756 -0.471405 59.5C-0.471405 58.9244 -0.0047763 58.4578 0.570837 58.4578Z" fill="#23A390" fill-opacity="0.5"/>
<path d="M7.44825 58.4578C8.02386 58.4578 8.49049 58.9244 8.49049 59.5C8.49049 60.0756 8.02386 60.5422 7.44825 60.5422C6.87263 60.5422 6.40601 60.0756 6.40601 59.5C6.40601 58.9244 6.87263 58.4578 7.44825 58.4578Z" fill="#23A390" fill-opacity="0.5"/>
<path d="M14.3257 58.4578C14.9013 58.4578 15.3679 58.9244 15.3679 59.5C15.3679 60.0756 14.9013 60.5422 14.3257 60.5422C13.75 60.5422 13.2834 60.0756 13.2834 59.5C13.2834 58.9244 13.75 58.4578 14.3257 58.4578Z" fill="#23A390" fill-opacity="0.5"/>
<path d="M21.203 58.4578C21.7786 58.4578 22.2452 58.9244 22.2452 59.5C22.2452 60.0756 21.7786 60.5422 21.203 60.5422C20.6274 60.5422 20.1608 60.0756 20.1608 59.5C20.1608 58.9244 20.6274 58.4578 21.203 58.4578Z" fill="#23A390" fill-opacity="0.5"/>
<path d="M28.0804 58.4578C28.656 58.4578 29.1226 58.9244 29.1226 59.5C29.1226 60.0756 28.656 60.5422 28.0804 60.5422C27.5048 60.5422 27.0381 60.0756 27.0381 59.5C27.0381 58.9244 27.5048 58.4578 28.0804 58.4578Z" fill="#23A390" fill-opacity="0.5"/>
<path d="M34.9578 58.4578C35.5334 58.4578 36 58.9244 36 59.5C36 60.0756 35.5334 60.5422 34.9578 60.5422C34.3822 60.5422 33.9156 60.0756 33.9156 59.5C33.9156 58.9244 34.3822 58.4578 34.9578 58.4578Z" fill="#23A390" fill-opacity="0.5"/>
<path d="M0.570837 51.1505C1.14645 51.1505 1.61308 51.6172 1.61308 52.1928C1.61308 52.7684 1.14645 53.235 0.570837 53.235C-0.0047763 53.235 -0.471405 52.7684 -0.471405 52.1928C-0.471405 51.6172 -0.0047763 51.1505 0.570837 51.1505Z" fill="#23A390" fill-opacity="0.5"/>
<path d="M7.44825 51.1505C8.02386 51.1505 8.49049 51.6172 8.49049 52.1928C8.49049 52.7684 8.02386 53.235 7.44825 53.235C6.87263 53.235 6.40601 52.7684 6.40601 52.1928C6.40601 51.6172 6.87263 51.1505 7.44825 51.1505Z" fill="#23A390" fill-opacity="0.5"/>
<path d="M14.3257 51.1505C14.9013 51.1505 15.3679 51.6172 15.3679 52.1928C15.3679 52.7684 14.9013 53.235 14.3257 53.235C13.75 53.235 13.2834 52.7684 13.2834 52.1928C13.2834 51.6172 13.75 51.1505 14.3257 51.1505Z" fill="#23A390" fill-opacity="0.5"/>
<path d="M21.203 51.1505C21.7786 51.1505 22.2452 51.6172 22.2452 52.1928C22.2452 52.7684 21.7786 53.235 21.203 53.235C20.6274 53.235 20.1608 52.7684 20.1608 52.1928C20.1608 51.6172 20.6274 51.1505 21.203 51.1505Z" fill="#23A390" fill-opacity="0.5"/>
<path d="M28.0804 51.1505C28.656 51.1505 29.1226 51.6172 29.1226 52.1928C29.1226 52.7684 28.656 53.235 28.0804 53.235C27.5048 53.235 27.0381 52.7684 27.0381 52.1928C27.0381 51.6172 27.5048 51.1505 28.0804 51.1505Z" fill="#23A390" fill-opacity="0.5"/>
<path d="M34.9578 51.1505C35.5334 51.1505 36 51.6172 36 52.1928C36 52.7684 35.5334 53.235 34.9578 53.235C34.3822 53.235 33.9156 52.7684 33.9156 52.1928C33.9156 51.6172 34.3822 51.1505 34.9578 51.1505Z" fill="#23A390" fill-opacity="0.5"/>
<path d="M0.570837 43.8433C1.14645 43.8433 1.61308 44.31 1.61308 44.8856C1.61308 45.4612 1.14645 45.9278 0.570837 45.9278C-0.0047763 45.9278 -0.471405 45.4612 -0.471405 44.8856C-0.471405 44.31 -0.0047763 43.8433 0.570837 43.8433Z" fill="#23A390" fill-opacity="0.5"/>
<path d="M7.44825 43.8433C8.02386 43.8433 8.49049 44.31 8.49049 44.8856C8.49049 45.4612 8.02386 45.9278 7.44825 45.9278C6.87263 45.9278 6.40601 45.4612 6.40601 44.8856C6.40601 44.31 6.87263 43.8433 7.44825 43.8433Z" fill="#23A390" fill-opacity="0.5"/>
<path d="M14.3257 43.8433C14.9013 43.8433 15.3679 44.31 15.3679 44.8856C15.3679 45.4612 14.9013 45.9278 14.3257 45.9278C13.75 45.9278 13.2834 45.4612 13.2834 44.8856C13.2834 44.31 13.75 43.8433 14.3257 43.8433Z" fill="#23A390" fill-opacity="0.5"/>
<path d="M21.203 43.8433C21.7786 43.8433 22.2452 44.31 22.2452 44.8856C22.2452 45.4612 21.7786 45.9278 21.203 45.9278C20.6274 45.9278 20.1608 45.4612 20.1608 44.8856C20.1608 44.31 20.6274 43.8433 21.203 43.8433Z" fill="#23A390" fill-opacity="0.5"/>
<path d="M28.0804 43.8433C28.656 43.8433 29.1226 44.31 29.1226 44.8856C29.1226 45.4612 28.656 45.9278 28.0804 45.9278C27.5048 45.9278 27.0381 45.4612 27.0381 44.8856C27.0381 44.31 27.5048 43.8433 28.0804 43.8433Z" fill="#23A390" fill-opacity="0.5"/>
<path d="M34.9578 43.8433C35.5334 43.8433 36 44.31 36 44.8856C36 45.4612 35.5334 45.9278 34.9578 45.9278C34.3822 45.9278 33.9156 45.4612 33.9156 44.8856C33.9156 44.31 34.3822 43.8433 34.9578 43.8433Z" fill="#23A390" fill-opacity="0.5"/>
<path d="M0.570837 36.5361C1.14645 36.5361 1.61308 37.0027 1.61308 37.5783C1.61308 38.1539 1.14645 38.6206 0.570837 38.6206C-0.0047763 38.6206 -0.471405 38.1539 -0.471405 37.5783C-0.471405 37.0027 -0.0047763 36.5361 0.570837 36.5361Z" fill="#23A390" fill-opacity="0.5"/>
<path d="M7.44825 36.5361C8.02386 36.5361 8.49049 37.0027 8.49049 37.5783C8.49049 38.1539 8.02386 38.6206 7.44825 38.6206C6.87263 38.6206 6.40601 38.1539 6.40601 37.5783C6.40601 37.0027 6.87263 36.5361 7.44825 36.5361Z" fill="#23A390" fill-opacity="0.5"/>
<path d="M14.3257 36.5361C14.9013 36.5361 15.3679 37.0027 15.3679 37.5783C15.3679 38.1539 14.9013 38.6206 14.3257 38.6206C13.75 38.6206 13.2834 38.1539 13.2834 37.5783C13.2834 37.0027 13.75 36.5361 14.3257 36.5361Z" fill="#23A390" fill-opacity="0.5"/>
<path d="M21.203 36.5361C21.7786 36.5361 22.2452 37.0027 22.2452 37.5783C22.2452 38.1539 21.7786 38.6206 21.203 38.6206C20.6274 38.6206 20.1608 38.1539 20.1608 37.5783C20.1608 37.0027 20.6274 36.5361 21.203 36.5361Z" fill="#23A390" fill-opacity="0.5"/>
<path d="M28.0804 36.5361C28.656 36.5361 29.1226 37.0027 29.1226 37.5783C29.1226 38.1539 28.656 38.6206 28.0804 38.6206C27.5048 38.6206 27.0381 38.1539 27.0381 37.5783C27.0381 37.0027 27.5048 36.5361 28.0804 36.5361Z" fill="#23A390" fill-opacity="0.5"/>
<path d="M34.9578 36.5361C35.5334 36.5361 36 37.0027 36 37.5783C36 38.1539 35.5334 38.6206 34.9578 38.6206C34.3822 38.6206 33.9156 38.1539 33.9156 37.5783C33.9156 37.0027 34.3822 36.5361 34.9578 36.5361Z" fill="#23A390" fill-opacity="0.5"/>
<path d="M0.570837 29.2289C1.14645 29.2289 1.61308 29.6955 1.61308 30.2711C1.61308 30.8467 1.14645 31.3134 0.570837 31.3134C-0.0047763 31.3134 -0.471405 30.8467 -0.471405 30.2711C-0.471405 29.6955 -0.0047763 29.2289 0.570837 29.2289Z" fill="#23A390" fill-opacity="0.5"/>
<path d="M7.44825 29.2289C8.02386 29.2289 8.49049 29.6955 8.49049 30.2711C8.49049 30.8467 8.02386 31.3134 7.44825 31.3134C6.87263 31.3134 6.40601 30.8467 6.40601 30.2711C6.40601 29.6955 6.87263 29.2289 7.44825 29.2289Z" fill="#23A390" fill-opacity="0.5"/>
<path d="M14.3257 29.2289C14.9013 29.2289 15.3679 29.6955 15.3679 30.2711C15.3679 30.8467 14.9013 31.3134 14.3257 31.3134C13.75 31.3134 13.2834 30.8467 13.2834 30.2711C13.2834 29.6955 13.75 29.2289 14.3257 29.2289Z" fill="#23A390" fill-opacity="0.5"/>
<path d="M21.203 29.2289C21.7786 29.2289 22.2452 29.6955 22.2452 30.2711C22.2452 30.8467 21.7786 31.3134 21.203 31.3134C20.6274 31.3134 20.1608 30.8467 20.1608 30.2711C20.1608 29.6955 20.6274 29.2289 21.203 29.2289Z" fill="#23A390" fill-opacity="0.5"/>
<path d="M28.0804 29.2289C28.656 29.2289 29.1226 29.6955 29.1226 30.2711C29.1226 30.8467 28.656 31.3134 28.0804 31.3134C27.5048 31.3134 27.0381 30.8467 27.0381 30.2711C27.0381 29.6955 27.5048 29.2289 28.0804 29.2289Z" fill="#23A390" fill-opacity="0.5"/>
<path d="M34.9578 29.2289C35.5334 29.2289 36 29.6955 36 30.2711C36 30.8467 35.5334 31.3134 34.9578 31.3134C34.3822 31.3134 33.9156 30.8467 33.9156 30.2711C33.9156 29.6955 34.3822 29.2289 34.9578 29.2289Z" fill="#23A390" fill-opacity="0.5"/>
<path d="M0.570837 21.9216C1.14645 21.9216 1.61308 22.3883 1.61308 22.9639C1.61308 23.5395 1.14645 24.0061 0.570837 24.0061C-0.0047763 24.0061 -0.471405 23.5395 -0.471405 22.9639C-0.471405 22.3883 -0.0047763 21.9216 0.570837 21.9216Z" fill="#23A390" fill-opacity="0.5"/>
<path d="M7.44825 21.9216C8.02386 21.9216 8.49049 22.3883 8.49049 22.9639C8.49049 23.5395 8.02386 24.0061 7.44825 24.0061C6.87263 24.0061 6.40601 23.5395 6.40601 22.9639C6.40601 22.3883 6.87263 21.9216 7.44825 21.9216Z" fill="#23A390" fill-opacity="0.5"/>
<path d="M14.3257 21.9216C14.9013 21.9216 15.3679 22.3883 15.3679 22.9639C15.3679 23.5395 14.9013 24.0061 14.3257 24.0061C13.75 24.0061 13.2834 23.5395 13.2834 22.9639C13.2834 22.3883 13.75 21.9216 14.3257 21.9216Z" fill="#23A390" fill-opacity="0.5"/>
<path d="M21.203 21.9216C21.7786 21.9216 22.2452 22.3883 22.2452 22.9639C22.2452 23.5395 21.7786 24.0061 21.203 24.0061C20.6274 24.0061 20.1608 23.5395 20.1608 22.9639C20.1608 22.3883 20.6274 21.9216 21.203 21.9216Z" fill="#23A390" fill-opacity="0.5"/>
<path d="M28.0804 21.9216C28.656 21.9216 29.1226 22.3883 29.1226 22.9639C29.1226 23.5395 28.656 24.0061 28.0804 24.0061C27.5048 24.0061 27.0381 23.5395 27.0381 22.9639C27.0381 22.3883 27.5048 21.9216 28.0804 21.9216Z" fill="#23A390" fill-opacity="0.5"/>
<path d="M34.9578 21.9216C35.5334 21.9216 36 22.3883 36 22.9639C36 23.5395 35.5334 24.0061 34.9578 24.0061C34.3822 24.0061 33.9156 23.5395 33.9156 22.9639C33.9156 22.3883 34.3822 21.9216 34.9578 21.9216Z" fill="#23A390" fill-opacity="0.5"/>
<path d="M0.570837 14.6144C1.14645 14.6144 1.61308 15.0811 1.61308 15.6567C1.61308 16.2323 1.14645 16.6989 0.570837 16.6989C-0.0047763 16.6989 -0.471405 16.2323 -0.471405 15.6567C-0.471405 15.0811 -0.0047763 14.6144 0.570837 14.6144Z" fill="#23A390" fill-opacity="0.5"/>
<path d="M7.44825 14.6144C8.02386 14.6144 8.49049 15.0811 8.49049 15.6567C8.49049 16.2323 8.02386 16.6989 7.44825 16.6989C6.87263 16.6989 6.40601 16.2323 6.40601 15.6567C6.40601 15.0811 6.87263 14.6144 7.44825 14.6144Z" fill="#23A390" fill-opacity="0.5"/>
<path d="M14.3257 14.6144C14.9013 14.6144 15.3679 15.0811 15.3679 15.6567C15.3679 16.2323 14.9013 16.6989 14.3257 16.6989C13.75 16.6989 13.2834 16.2323 13.2834 15.6567C13.2834 15.0811 13.75 14.6144 14.3257 14.6144Z" fill="#23A390" fill-opacity="0.5"/>
<path d="M21.203 14.6144C21.7786 14.6144 22.2452 15.0811 22.2452 15.6567C22.2452 16.2323 21.7786 16.6989 21.203 16.6989C20.6274 16.6989 20.1608 16.2323 20.1608 15.6567C20.1608 15.0811 20.6274 14.6144 21.203 14.6144Z" fill="#23A390" fill-opacity="0.5"/>
<path d="M28.0804 14.6144C28.656 14.6144 29.1226 15.0811 29.1226 15.6567C29.1226 16.2323 28.656 16.6989 28.0804 16.6989C27.5048 16.6989 27.0381 16.2323 27.0381 15.6567C27.0381 15.0811 27.5048 14.6144 28.0804 14.6144Z" fill="#23A390" fill-opacity="0.5"/>
<path d="M34.9578 14.6144C35.5334 14.6144 36 15.0811 36 15.6567C36 16.2323 35.5334 16.6989 34.9578 16.6989C34.3822 16.6989 33.9156 16.2323 33.9156 15.6567C33.9156 15.0811 34.3822 14.6144 34.9578 14.6144Z" fill="#23A390" fill-opacity="0.5"/>
<path d="M0.570837 7.30721C1.14645 7.30721 1.61308 7.77384 1.61308 8.34945C1.61308 8.92506 1.14645 9.39169 0.570837 9.39169C-0.0047763 9.39169 -0.471405 8.92506 -0.471405 8.34945C-0.471405 7.77384 -0.0047763 7.30721 0.570837 7.30721Z" fill="#23A390" fill-opacity="0.5"/>
<path d="M7.44825 7.30721C8.02386 7.30721 8.49049 7.77384 8.49049 8.34945C8.49049 8.92506 8.02386 9.39169 7.44825 9.39169C6.87263 9.39169 6.40601 8.92506 6.40601 8.34945C6.40601 7.77384 6.87263 7.30721 7.44825 7.30721Z" fill="#23A390" fill-opacity="0.5"/>
<path d="M14.3257 7.30721C14.9013 7.30721 15.3679 7.77384 15.3679 8.34945C15.3679 8.92506 14.9013 9.39169 14.3257 9.39169C13.75 9.39169 13.2834 8.92506 13.2834 8.34945C13.2834 7.77384 13.75 7.30721 14.3257 7.30721Z" fill="#23A390" fill-opacity="0.5"/>
<path d="M21.203 7.30721C21.7786 7.30721 22.2452 7.77384 22.2452 8.34945C22.2452 8.92506 21.7786 9.39169 21.203 9.39169C20.6274 9.39169 20.1608 8.92506 20.1608 8.34945C20.1608 7.77384 20.6274 7.30721 21.203 7.30721Z" fill="#23A390" fill-opacity="0.5"/>
<path d="M28.0804 7.30721C28.656 7.30721 29.1226 7.77384 29.1226 8.34945C29.1226 8.92506 28.656 9.39169 28.0804 9.39169C27.5048 9.39169 27.0381 8.92506 27.0381 8.34945C27.0381 7.77384 27.5048 7.30721 28.0804 7.30721Z" fill="#23A390" fill-opacity="0.5"/>
<path d="M34.9578 7.30721C35.5334 7.30721 36 7.77384 36 8.34945C36 8.92506 35.5334 9.39169 34.9578 9.39169C34.3822 9.39169 33.9156 8.92506 33.9156 8.34945C33.9156 7.77384 34.3822 7.30721 34.9578 7.30721Z" fill="#23A390" fill-opacity="0.5"/>
<path d="M0.570837 3.57628e-06C1.14645 3.57628e-06 1.61308 0.466632 1.61308 1.04225C1.61308 1.61786 1.14645 2.08449 0.570837 2.08449C-0.0047763 2.08449 -0.471405 1.61786 -0.471405 1.04225C-0.471405 0.466632 -0.0047763 3.57628e-06 0.570837 3.57628e-06Z" fill="#23A390" fill-opacity="0.5"/>
<path d="M7.44825 3.57628e-06C8.02386 3.57628e-06 8.49049 0.466632 8.49049 1.04225C8.49049 1.61786 8.02386 2.08449 7.44825 2.08449C6.87263 2.08449 6.40601 1.61786 6.40601 1.04225C6.40601 0.466632 6.87263 3.57628e-06 7.44825 3.57628e-06Z" fill="#23A390" fill-opacity="0.5"/>
<path d="M14.3257 3.57628e-06C14.9013 3.57628e-06 15.3679 0.466632 15.3679 1.04225C15.3679 1.61786 14.9013 2.08449 14.3257 2.08449C13.75 2.08449 13.2834 1.61786 13.2834 1.04225C13.2834 0.466632 13.75 3.57628e-06 14.3257 3.57628e-06Z" fill="#23A390" fill-opacity="0.5"/>
<path d="M21.203 3.57628e-06C21.7786 3.57628e-06 22.2452 0.466632 22.2452 1.04225C22.2452 1.61786 21.7786 2.08449 21.203 2.08449C20.6274 2.08449 20.1608 1.61786 20.1608 1.04225C20.1608 0.466632 20.6274 3.57628e-06 21.203 3.57628e-06Z" fill="#23A390" fill-opacity="0.5"/>
<path d="M28.0804 3.57628e-06C28.656 3.57628e-06 29.1226 0.466632 29.1226 1.04225C29.1226 1.61786 28.656 2.08449 28.0804 2.08449C27.5048 2.08449 27.0381 1.61786 27.0381 1.04225C27.0381 0.466632 27.5048 3.57628e-06 28.0804 3.57628e-06Z" fill="#23A390" fill-opacity="0.5"/>
<path d="M34.9578 3.57628e-06C35.5334 3.57628e-06 36 0.466632 36 1.04225C36 1.61786 35.5334 2.08449 34.9578 2.08449C34.3822 2.08449 33.9156 1.61786 33.9156 1.04225C33.9156 0.466632 34.3822 3.57628e-06 34.9578 3.57628e-06Z" fill="#23A390" fill-opacity="0.5"/>
</svg>
