<svg width="26" height="34" viewBox="0 0 26 34" fill="none" xmlns="http://www.w3.org/2000/svg">
<path d="M21.5 0H4.5C3.37283 0 2.29183 0.447767 1.4948 1.2448C0.697766 2.04183 0.25 3.12283 0.25 4.25V29.75C0.25 30.8772 0.697766 31.9582 1.4948 32.7552C2.29183 33.5522 3.37283 34 4.5 34H21.5C22.6272 34 23.7082 33.5522 24.5052 32.7552C25.3022 31.9582 25.75 30.8772 25.75 29.75V4.25C25.75 3.12283 25.3022 2.04183 24.5052 1.2448C23.7082 0.447767 22.6272 0 21.5 0V0ZM19.375 14.875C19.375 16.5658 18.7034 18.1873 17.5078 19.3828C16.3123 20.5784 14.6908 21.25 13 21.25C11.3092 21.25 9.68774 20.5784 8.49219 19.3828C7.29665 18.1873 6.625 16.5658 6.625 14.875C6.625 13.1842 7.29665 11.5627 8.49219 10.3672C9.68774 9.17165 11.3092 8.5 13 8.5C14.6908 8.5 16.3123 9.17165 17.5078 10.3672C18.7034 11.5627 19.375 13.1842 19.375 14.875ZM13 23.375C18.5739 23.375 21.8102 25.1303 23.625 27.1044V29.75C23.625 30.3136 23.4011 30.8541 23.0026 31.2526C22.6041 31.6511 22.0636 31.875 21.5 31.875H4.5C3.93641 31.875 3.39591 31.6511 2.9974 31.2526C2.59888 30.8541 2.375 30.3136 2.375 29.75V27.1044C4.18975 25.1281 7.42613 23.375 13 23.375Z" fill="#115046"/>
</svg>
