<svg width="123" height="114" viewBox="0 0 123 114" fill="none" xmlns="http://www.w3.org/2000/svg">
<path opacity="0.76" d="M85.6794 4.31454L86.574 9.38772C87.0749 12.2287 85.2363 14.8545 82.3953 15.3554L81.5008 10.2823C80.9999 7.44128 82.8385 4.81549 85.6794 4.31454Z" fill="#23A390"/>
<path opacity="0.79" d="M108.274 -1.23489L108.087 4.11848C107.982 7.11637 105.544 9.38959 102.546 9.28491L102.733 3.93153C102.838 0.933646 105.276 -1.33958 108.274 -1.23489Z" fill="#23A390"/>
<g opacity="0.26" filter="url(#filter0_f_60_26)">
<path d="M10.4641 106.414L9.27734 105.048C8.61275 104.284 8.69127 103.161 9.45579 102.496L10.6426 103.862C11.3072 104.626 11.2286 105.749 10.4641 106.414Z" fill="#23A390"/>
</g>
<g opacity="0.54" filter="url(#filter1_f_60_26)">
<path d="M38.321 80.4553L41.915 79.6255C43.9277 79.1609 45.8741 80.3771 46.3388 82.3898L42.7448 83.2195C40.7321 83.6842 38.7857 82.4679 38.321 80.4553Z" fill="#23A390"/>
</g>
<g opacity="0.47" filter="url(#filter2_f_60_26)">
<path d="M26.0315 41.9728L28.3732 39.7892C29.6845 38.5663 31.6756 38.6359 32.8985 39.9472L30.5568 42.1309C29.2455 43.3537 27.2543 43.2842 26.0315 41.9728Z" fill="#23A390"/>
</g>
<path opacity="0.68" d="M62.3618 81.0578L65.5723 84.3823C67.3701 86.244 67.3199 89.1194 65.4582 90.9173L62.2477 87.5928C60.4499 85.731 60.5001 82.8556 62.3618 81.0578Z" fill="#23A390"/>
<path opacity="0.69" d="M66.3442 -9.74332L69.4062 -6.22096C71.1209 -4.24844 70.9183 -1.35135 68.9458 0.363333L65.8838 -3.15902C64.1691 -5.13154 64.3717 -8.02863 66.3442 -9.74332Z" fill="#23A390"/>
<path opacity="0.76" d="M85.887 67.8096L86.7815 72.8827C87.2824 75.7237 85.4438 78.3495 82.6029 78.8505L81.7083 73.7773C81.2074 70.9363 83.046 68.3105 85.887 67.8096Z" fill="#23A390"/>
<g opacity="0.47" filter="url(#filter3_f_60_26)">
<path d="M26.2389 16.2428L28.5806 14.0592C29.8919 12.8363 31.883 12.9059 33.1059 14.2172L30.7642 16.4009C29.4529 17.6237 27.4617 17.5542 26.2389 16.2428Z" fill="#23A390"/>
</g>
<path opacity="0.79" d="M106.404 60.3959L106.217 65.7459C106.113 68.742 103.677 71.0138 100.681 70.9092L100.867 65.5591C100.972 62.5631 103.408 60.2913 106.404 60.3959Z" fill="#23A390"/>
<path opacity="0.77" d="M126.142 3.91351L126.865 9.05848C127.27 11.9397 125.324 14.5216 122.443 14.9265L121.72 9.78156C121.315 6.90038 123.261 4.31844 126.142 3.91351Z" fill="#23A390"/>
<path opacity="0.67" d="M62.5935 38.3389L66.0231 41.3202C67.9437 42.9897 68.1409 45.8106 66.4714 47.7311L63.0418 44.7498C61.1212 43.0803 60.924 40.2595 62.5935 38.3389Z" fill="#23A390"/>
<path opacity="0.76" d="M86.0945 47.6821L86.989 52.7552C87.49 55.5962 85.6514 58.222 82.8104 58.7229L81.9158 53.6498C81.4149 50.8088 83.2535 48.183 86.0945 47.6821Z" fill="#23A390"/>
<path opacity="0.78" d="M122.395 24.5414L122.761 29.7794C122.967 32.7126 120.823 35.1785 117.89 35.3836L117.523 30.1456C117.318 27.2124 119.462 24.7466 122.395 24.5414Z" fill="#23A390"/>
<path opacity="0.79" d="M106.404 38.4008L106.217 43.7509C106.113 46.7469 103.677 49.0188 100.681 48.9141L100.867 43.5641C100.972 40.568 103.408 38.2962 106.404 38.4008Z" fill="#23A390"/>
<g opacity="0.4" filter="url(#filter4_f_60_26)">
<path d="M8.57715 4.41885L9.27681 1.80767C9.66862 0.345407 11.1254 -0.495661 12.5877 -0.103849L11.888 2.50733C11.4962 3.9696 10.0394 4.81067 8.57715 4.41885Z" fill="#23A390"/>
</g>
<path opacity="0.75" d="M73.7708 100.132L75.2473 104.962C76.0742 107.666 74.5989 110.441 71.8942 111.268L70.4176 106.438C69.5908 103.734 71.0661 100.959 73.7708 100.132Z" fill="#23A390"/>
<g opacity="0.47" filter="url(#filter5_f_60_26)">
<path d="M24.7865 67.0803L27.1282 64.8967C28.4395 63.6738 30.4307 63.7434 31.6535 65.0547L29.3118 67.2383C28.0005 68.4612 26.0093 68.3917 24.7865 67.0803Z" fill="#23A390"/>
</g>
<g opacity="0.57" filter="url(#filter6_f_60_26)">
<path d="M42.3427 53.8962L46.2051 53.7613C48.368 53.6858 50.1268 55.3259 50.2023 57.4888L46.3399 57.6237C44.177 57.6992 42.4182 56.0591 42.3427 53.8962Z" stroke="#23A390" stroke-width="1.11752"/>
</g>
<path opacity="0.82" d="M122.111 98.3993L120.966 103.782C120.326 106.796 117.454 108.661 114.44 108.021L115.584 102.638C116.224 99.6236 119.096 97.7586 122.111 98.3993Z" stroke="#23A390" stroke-width="1.59124"/>
<g opacity="0.4" filter="url(#filter7_f_60_26)">
<path d="M28.658 104.407L29.4059 101.799C29.8247 100.338 31.3015 99.5193 32.7622 99.9381L32.0142 102.546C31.5954 104.007 30.1186 104.826 28.658 104.407Z" stroke="#23A390" stroke-width="0.784613"/>
</g>
<path opacity="0.75" d="M83.9301 26.4786L85.2436 31.3807C85.9791 34.1259 84.4002 36.8608 81.655 37.5963L80.3415 32.6942C79.6059 29.9491 81.1849 27.2142 83.9301 26.4786Z" stroke="#23A390" stroke-width="1.46748"/>
<path opacity="0.67" d="M62.1786 60.9564L65.6082 63.9377C67.5288 65.6072 67.726 68.428 66.0565 70.3486L62.6269 67.3673C60.7063 65.6978 60.5091 62.877 62.1786 60.9564Z" stroke="#23A390" stroke-width="1.31401"/>
<g opacity="0.56" filter="url(#filter8_f_60_26)">
<path d="M47.295 102.061L51.0867 101.729C53.21 101.543 55.0243 103.066 55.21 105.189L51.4184 105.521C49.2951 105.707 47.4808 104.184 47.295 102.061Z" stroke="#23A390" stroke-width="1.10056"/>
</g>
<g opacity="0.39" filter="url(#filter9_f_60_26)">
<path d="M8.58142 49.1021L9.08352 46.519C9.3647 45.0724 10.7222 44.1568 12.1687 44.438L11.6666 47.0211C11.3854 48.4676 10.028 49.3832 8.58142 49.1021Z" stroke="#23A390" stroke-width="0.7609"/>
</g>
<path opacity="0.84" d="M101.775 101.643L99.7489 106.92C98.6143 109.876 95.4007 111.307 92.4452 110.172L94.4711 104.895C95.6057 101.939 98.8193 100.508 101.775 101.643Z" stroke="#23A390" stroke-width="1.63466"/>
<defs>
<filter id="filter0_f_60_26" x="4.64177" y="98.3119" width="10.6364" height="12.2863" filterUnits="userSpaceOnUse" color-interpolation-filters="sRGB">
<feFlood flood-opacity="0" result="BackgroundImageFix"/>
<feBlend mode="normal" in="SourceGraphic" in2="BackgroundImageFix" result="shape"/>
<feGaussianBlur stdDeviation="2.09226" result="effect1_foregroundBlur_60_26"/>
</filter>
<filter id="filter1_f_60_26" x="36.899" y="78.1046" width="10.8619" height="6.63579" filterUnits="userSpaceOnUse" color-interpolation-filters="sRGB">
<feFlood flood-opacity="0" result="BackgroundImageFix"/>
<feBlend mode="normal" in="SourceGraphic" in2="BackgroundImageFix" result="shape"/>
<feGaussianBlur stdDeviation="0.711041" result="effect1_foregroundBlur_60_26"/>
</filter>
<filter id="filter2_f_60_26" x="24.7971" y="37.6815" width="9.33583" height="6.55699" filterUnits="userSpaceOnUse" color-interpolation-filters="sRGB">
<feFlood flood-opacity="0" result="BackgroundImageFix"/>
<feBlend mode="normal" in="SourceGraphic" in2="BackgroundImageFix" result="shape"/>
<feGaussianBlur stdDeviation="0.617221" result="effect1_foregroundBlur_60_26"/>
</filter>
<filter id="filter3_f_60_26" x="25.0044" y="11.9515" width="9.33583" height="6.55699" filterUnits="userSpaceOnUse" color-interpolation-filters="sRGB">
<feFlood flood-opacity="0" result="BackgroundImageFix"/>
<feBlend mode="normal" in="SourceGraphic" in2="BackgroundImageFix" result="shape"/>
<feGaussianBlur stdDeviation="0.617221" result="effect1_foregroundBlur_60_26"/>
</filter>
<filter id="filter4_f_60_26" x="6.49268" y="-2.28433" width="8.17944" height="8.88366" filterUnits="userSpaceOnUse" color-interpolation-filters="sRGB">
<feFlood flood-opacity="0" result="BackgroundImageFix"/>
<feBlend mode="normal" in="SourceGraphic" in2="BackgroundImageFix" result="shape"/>
<feGaussianBlur stdDeviation="1.04223" result="effect1_foregroundBlur_60_26"/>
</filter>
<filter id="filter5_f_60_26" x="23.5521" y="62.789" width="9.33583" height="6.55699" filterUnits="userSpaceOnUse" color-interpolation-filters="sRGB">
<feFlood flood-opacity="0" result="BackgroundImageFix"/>
<feBlend mode="normal" in="SourceGraphic" in2="BackgroundImageFix" result="shape"/>
<feGaussianBlur stdDeviation="0.617221" result="effect1_foregroundBlur_60_26"/>
</filter>
<filter id="filter6_f_60_26" x="40.2747" y="51.71" width="11.9956" height="7.96501" filterUnits="userSpaceOnUse" color-interpolation-filters="sRGB">
<feFlood flood-opacity="0" result="BackgroundImageFix"/>
<feBlend mode="normal" in="SourceGraphic" in2="BackgroundImageFix" result="shape"/>
<feGaussianBlur stdDeviation="0.745014" result="effect1_foregroundBlur_60_26"/>
</filter>
<filter id="filter7_f_60_26" x="26.0804" y="97.344" width="9.25931" height="9.65695" filterUnits="userSpaceOnUse" color-interpolation-filters="sRGB">
<feFlood flood-opacity="0" result="BackgroundImageFix"/>
<feBlend mode="normal" in="SourceGraphic" in2="BackgroundImageFix" result="shape"/>
<feGaussianBlur stdDeviation="1.04615" result="effect1_foregroundBlur_60_26"/>
</filter>
<filter id="filter8_f_60_26" x="45.2314" y="99.6961" width="12.0421" height="7.85778" filterUnits="userSpaceOnUse" color-interpolation-filters="sRGB">
<feFlood flood-opacity="0" result="BackgroundImageFix"/>
<feBlend mode="normal" in="SourceGraphic" in2="BackgroundImageFix" result="shape"/>
<feGaussianBlur stdDeviation="0.73371" result="effect1_foregroundBlur_60_26"/>
</filter>
<filter id="filter9_f_60_26" x="6.10631" y="41.9777" width="8.5375" height="9.58465" filterUnits="userSpaceOnUse" color-interpolation-filters="sRGB">
<feFlood flood-opacity="0" result="BackgroundImageFix"/>
<feBlend mode="normal" in="SourceGraphic" in2="BackgroundImageFix" result="shape"/>
<feGaussianBlur stdDeviation="1.01453" result="effect1_foregroundBlur_60_26"/>
</filter>
</defs>
</svg>
