<svg width="174" height="117" viewBox="0 0 174 117" fill="none" xmlns="http://www.w3.org/2000/svg">
<path d="M17.242 6.5215C17.057 6.8175 16.8597 7.0395 16.65 7.1875C16.4527 7.3355 16.1937 7.4095 15.873 7.4095C15.5893 7.4095 15.281 7.32317 14.948 7.1505C14.6273 6.9655 14.2573 6.762 13.838 6.54C13.431 6.318 12.9623 6.12067 12.432 5.948C11.9017 5.763 11.2973 5.6705 10.619 5.6705C9.44733 5.6705 8.57167 5.92333 7.992 6.429C7.42467 6.92233 7.141 7.5945 7.141 8.4455C7.141 8.98817 7.31367 9.43833 7.659 9.796C8.00433 10.1537 8.4545 10.462 9.0095 10.721C9.57683 10.98 10.2182 11.2205 10.9335 11.4425C11.6612 11.6522 12.4012 11.8927 13.1535 12.164C13.9058 12.423 14.6397 12.7313 15.355 13.089C16.0827 13.4467 16.724 13.903 17.279 14.458C17.8463 15.013 18.3027 15.6913 18.648 16.493C18.9933 17.2823 19.166 18.2382 19.166 19.3605C19.166 20.6062 18.9502 21.7717 18.5185 22.857C18.0868 23.9423 17.4578 24.892 16.6315 25.706C15.8175 26.5077 14.8062 27.1428 13.5975 27.6115C12.4012 28.0678 11.0383 28.296 9.509 28.296C8.67033 28.296 7.81317 28.2097 6.9375 28.037C6.07417 27.8643 5.2355 27.6238 4.4215 27.3155C3.6075 26.9948 2.84283 26.6187 2.1275 26.187C1.41217 25.7553 0.789333 25.2743 0.259 24.744L2.109 21.821C2.24467 21.599 2.43583 21.4202 2.6825 21.2845C2.92917 21.1488 3.19433 21.081 3.478 21.081C3.848 21.081 4.218 21.1982 4.588 21.4325C4.97033 21.6668 5.39583 21.9258 5.8645 22.2095C6.3455 22.4932 6.89433 22.7522 7.511 22.9865C8.12767 23.2208 8.85533 23.338 9.694 23.338C10.8287 23.338 11.7105 23.0913 12.3395 22.598C12.9685 22.0923 13.283 21.2968 13.283 20.2115C13.283 19.5825 13.1103 19.0707 12.765 18.676C12.4197 18.2813 11.9633 17.9545 11.396 17.6955C10.841 17.4365 10.2058 17.2083 9.4905 17.011C8.77517 16.8137 8.04133 16.5978 7.289 16.3635C6.53667 16.1168 5.80283 15.8208 5.0875 15.4755C4.37217 15.1178 3.73083 14.6553 3.1635 14.088C2.6085 13.5083 2.15833 12.793 1.813 11.942C1.46767 11.0787 1.295 10.018 1.295 8.76C1.295 7.74866 1.4985 6.762 1.9055 5.8C2.3125 4.838 2.91067 3.98083 3.7 3.2285C4.48933 2.47616 5.4575 1.878 6.6045 1.434C7.7515 0.977665 9.065 0.749499 10.545 0.749499C11.3713 0.749499 12.173 0.817333 12.95 0.953C13.7393 1.07633 14.4855 1.2675 15.1885 1.5265C15.8915 1.77317 16.5452 2.07533 17.1495 2.433C17.7662 2.77833 18.315 3.173 18.796 3.617L17.242 6.5215ZM47.3597 28H42.5127C41.97 28 41.5199 27.8767 41.1622 27.63C40.8169 27.371 40.5764 27.0442 40.4407 26.6495L38.8497 21.9505H28.6007L27.0097 26.6495C26.8864 26.9948 26.6459 27.3093 26.2882 27.593C25.9305 27.8643 25.4927 28 24.9747 28H20.0907L30.5247 1.0455H36.9257L47.3597 28ZM30.0437 17.6955H37.4067L34.9277 10.314C34.7674 9.84533 34.5762 9.2965 34.3542 8.6675C34.1445 8.02617 33.9349 7.3355 33.7252 6.5955C33.5279 7.34783 33.3244 8.04467 33.1147 8.686C32.905 9.32733 32.7077 9.88233 32.5227 10.351L30.0437 17.6955ZM74.011 14.5135C74.011 16.4622 73.6718 18.2628 72.9935 19.9155C72.3275 21.5558 71.384 22.9803 70.163 24.189C68.942 25.3853 67.4682 26.3227 65.7415 27.001C64.0272 27.667 62.1217 28 60.025 28H49.554V1.0455H60.025C62.1217 1.0455 64.0272 1.38467 65.7415 2.063C67.4682 2.74133 68.942 3.67867 70.163 4.875C71.384 6.07133 72.3275 7.49583 72.9935 9.1485C73.6718 10.7888 74.011 12.5772 74.011 14.5135ZM67.61 14.5135C67.61 13.1815 67.4373 11.979 67.092 10.906C66.7467 9.833 66.2472 8.9265 65.5935 8.1865C64.9522 7.43416 64.1628 6.86067 63.2255 6.466C62.2882 6.059 61.2213 5.8555 60.025 5.8555H55.844V23.19H60.025C61.2213 23.19 62.2882 22.9927 63.2255 22.598C64.1628 22.191 64.9522 21.6175 65.5935 20.8775C66.2472 20.1252 66.7467 19.2125 67.092 18.1395C67.4373 17.0665 67.61 15.8578 67.61 14.5135ZM19.573 45.0455V49.8555H8.51V56.682H17.723V61.5105H8.51V72H2.22V45.0455H19.573ZM28.7357 52.8155V72H23.0007V52.8155H28.7357ZM29.4017 47.5615C29.4017 48.0178 29.3092 48.4495 29.1242 48.8565C28.9392 49.2512 28.6864 49.6027 28.3657 49.911C28.045 50.207 27.6689 50.4475 27.2372 50.6325C26.8179 50.8052 26.3677 50.8915 25.8867 50.8915C25.418 50.8915 24.9802 50.8052 24.5732 50.6325C24.1662 50.4475 23.8024 50.207 23.4817 49.911C23.1734 49.6027 22.9267 49.2512 22.7417 48.8565C22.569 48.4495 22.4827 48.0178 22.4827 47.5615C22.4827 47.0928 22.569 46.655 22.7417 46.248C22.9267 45.841 23.1734 45.4833 23.4817 45.175C23.8024 44.8667 24.1662 44.6262 24.5732 44.4535C24.9802 44.2808 25.418 44.1945 25.8867 44.1945C26.3677 44.1945 26.8179 44.2808 27.2372 44.4535C27.6689 44.6262 28.045 44.8667 28.3657 45.175C28.6864 45.4833 28.9392 45.841 29.1242 46.248C29.3092 46.655 29.4017 47.0928 29.4017 47.5615ZM39.6195 67.005H49.6095V72H33.3665V45.0455H39.6195V67.005ZM60.0444 52.5195C61.3147 52.5195 62.474 52.7168 63.5224 53.1115C64.583 53.5062 65.4895 54.0797 66.2419 54.832C67.0065 55.5843 67.5985 56.5093 68.0179 57.607C68.4495 58.6923 68.6654 59.9257 68.6654 61.307C68.6654 61.7387 68.6469 62.0902 68.6099 62.3615C68.5729 62.6328 68.505 62.8487 68.4064 63.009C68.3077 63.1693 68.172 63.2803 67.9994 63.342C67.839 63.4037 67.6294 63.4345 67.3704 63.4345H56.3074C56.4924 65.0378 56.9795 66.2033 57.7689 66.931C58.5582 67.6463 59.5757 68.004 60.8214 68.004C61.4874 68.004 62.0609 67.9238 62.5419 67.7635C63.0229 67.6032 63.4484 67.4243 63.8184 67.227C64.2007 67.0297 64.546 66.8508 64.8544 66.6905C65.175 66.5302 65.508 66.45 65.8534 66.45C66.3097 66.45 66.655 66.6165 66.8894 66.9495L68.5544 69.003C67.9624 69.6813 67.321 70.2363 66.6304 70.668C65.952 71.0873 65.249 71.4203 64.5214 71.667C63.806 71.9013 63.0845 72.0617 62.3569 72.148C61.6415 72.2467 60.957 72.296 60.3034 72.296C58.959 72.296 57.6949 72.0802 56.5109 71.6485C55.3392 71.2045 54.3094 70.5508 53.4214 69.6875C52.5457 68.8242 51.8489 67.7512 51.3309 66.4685C50.8252 65.1858 50.5724 63.6935 50.5724 61.9915C50.5724 60.7088 50.7882 59.494 51.2199 58.347C51.6639 57.2 52.2929 56.1948 53.1069 55.3315C53.9332 54.4682 54.926 53.7837 56.0854 53.278C57.257 52.7723 58.5767 52.5195 60.0444 52.5195ZM60.1554 56.4785C59.0577 56.4785 58.2005 56.793 57.5839 57.422C56.9672 58.0387 56.5602 58.9328 56.3629 60.1045H63.5224C63.5224 59.6482 63.4607 59.2042 63.3374 58.7725C63.2264 58.3408 63.0352 57.9585 62.7639 57.6255C62.5049 57.2802 62.1595 57.0027 61.7279 56.793C61.2962 56.5833 60.772 56.4785 60.1554 56.4785ZM16.0025 103.679C16.2492 104.148 16.4835 104.635 16.7055 105.14C16.9398 105.646 17.1618 106.164 17.3715 106.694C17.5812 106.152 17.8032 105.628 18.0375 105.122C18.2718 104.604 18.5123 104.104 18.759 103.623L25.678 90.0075C25.8013 89.7732 25.9247 89.5943 26.048 89.471C26.1837 89.3353 26.3317 89.2367 26.492 89.175C26.6523 89.1133 26.8312 89.0763 27.0285 89.064C27.2382 89.0517 27.4787 89.0455 27.75 89.0455H32.523V116H27.01V100.497C27.01 99.7447 27.047 98.9307 27.121 98.055L19.98 111.911C19.758 112.343 19.4558 112.67 19.0735 112.892C18.7035 113.114 18.278 113.225 17.797 113.225H16.946C16.465 113.225 16.0333 113.114 15.651 112.892C15.281 112.67 14.985 112.343 14.763 111.911L7.585 98.0365C7.63433 98.4682 7.67133 98.8998 7.696 99.3315C7.72067 99.7508 7.733 100.139 7.733 100.497V116H2.22V89.0455H6.993C7.26433 89.0455 7.49867 89.0517 7.696 89.064C7.90567 89.0763 8.09067 89.1133 8.251 89.175C8.41133 89.2367 8.55317 89.3353 8.6765 89.471C8.81217 89.5943 8.94167 89.7732 9.065 90.0075L16.0025 103.679ZM50.2258 116C49.6831 116 49.2699 115.926 48.9863 115.778C48.7149 115.63 48.4868 115.322 48.3018 114.853L47.8948 113.798C47.4138 114.205 46.9513 114.563 46.5073 114.871C46.0633 115.18 45.6008 115.445 45.1198 115.667C44.6511 115.877 44.1454 116.031 43.6028 116.13C43.0724 116.241 42.4804 116.296 41.8268 116.296C40.9511 116.296 40.1556 116.185 39.4403 115.963C38.7249 115.729 38.1144 115.389 37.6088 114.945C37.1154 114.501 36.7331 113.953 36.4618 113.299C36.1904 112.633 36.0548 111.868 36.0548 111.005C36.0548 110.327 36.2274 109.63 36.5728 108.914C36.9181 108.199 37.5163 107.552 38.3673 106.972C39.2183 106.38 40.3653 105.887 41.8083 105.492C43.2513 105.097 45.0704 104.875 47.2658 104.826V104.012C47.2658 102.89 47.0314 102.082 46.5628 101.588C46.1064 101.083 45.4528 100.83 44.6018 100.83C43.9234 100.83 43.3684 100.904 42.9368 101.052C42.5051 101.2 42.1166 101.366 41.7713 101.551C41.4383 101.736 41.1114 101.903 40.7908 102.051C40.4701 102.199 40.0878 102.273 39.6438 102.273C39.2491 102.273 38.9099 102.18 38.6263 101.995C38.3549 101.798 38.1391 101.558 37.9788 101.274L36.9428 99.4795C38.1021 98.4558 39.3848 97.6973 40.7908 97.204C42.2091 96.6983 43.7261 96.4455 45.3418 96.4455C46.5011 96.4455 47.5433 96.6367 48.4683 97.019C49.4056 97.389 50.1949 97.9132 50.8363 98.5915C51.4899 99.2575 51.9894 100.053 52.3348 100.978C52.6801 101.903 52.8528 102.914 52.8528 104.012V116H50.2258ZM43.6398 112.503C44.3798 112.503 45.0273 112.374 45.5823 112.115C46.1373 111.856 46.6984 111.437 47.2658 110.857V108.193C46.1188 108.242 45.1753 108.341 44.4353 108.489C43.6953 108.637 43.1094 108.822 42.6778 109.044C42.2461 109.266 41.9439 109.519 41.7713 109.802C41.6109 110.086 41.5308 110.394 41.5308 110.727C41.5308 111.381 41.7096 111.844 42.0673 112.115C42.4249 112.374 42.9491 112.503 43.6398 112.503ZM60.2181 89.0455C60.4894 89.0455 60.7176 89.0578 60.9026 89.0825C61.0876 89.1072 61.2541 89.1565 61.4021 89.2305C61.5501 89.2922 61.6919 89.3847 61.8276 89.508C61.9632 89.6313 62.1174 89.7978 62.2901 90.0075L75.0921 106.195C75.0427 105.677 75.0057 105.177 74.9811 104.696C74.9564 104.203 74.9441 103.741 74.9441 103.309V89.0455H80.4571V116H77.2011C76.7201 116 76.3131 115.926 75.9801 115.778C75.6471 115.63 75.3264 115.359 75.0181 114.964L62.3086 98.906C62.3456 99.3747 62.3764 99.8372 62.4011 100.293C62.4257 100.737 62.4381 101.157 62.4381 101.551V116H56.9251V89.0455H60.2181ZM98.1379 116C97.5952 116 97.182 115.926 96.8984 115.778C96.627 115.63 96.3989 115.322 96.2139 114.853L95.8069 113.798C95.3259 114.205 94.8634 114.563 94.4194 114.871C93.9754 115.18 93.5129 115.445 93.0319 115.667C92.5632 115.877 92.0575 116.031 91.5149 116.13C90.9845 116.241 90.3925 116.296 89.7389 116.296C88.8632 116.296 88.0677 116.185 87.3524 115.963C86.637 115.729 86.0265 115.389 85.5209 114.945C85.0275 114.501 84.6452 113.953 84.3739 113.299C84.1025 112.633 83.9669 111.868 83.9669 111.005C83.9669 110.327 84.1395 109.63 84.4849 108.914C84.8302 108.199 85.4284 107.552 86.2794 106.972C87.1304 106.38 88.2774 105.887 89.7204 105.492C91.1634 105.097 92.9825 104.875 95.1779 104.826V104.012C95.1779 102.89 94.9435 102.082 94.4749 101.588C94.0185 101.083 93.3649 100.83 92.5139 100.83C91.8355 100.83 91.2805 100.904 90.8489 101.052C90.4172 101.2 90.0287 101.366 89.6834 101.551C89.3504 101.736 89.0235 101.903 88.7029 102.051C88.3822 102.199 87.9999 102.273 87.5559 102.273C87.1612 102.273 86.822 102.18 86.5384 101.995C86.267 101.798 86.0512 101.558 85.8909 101.274L84.8549 99.4795C86.0142 98.4558 87.2969 97.6973 88.7029 97.204C90.1212 96.6983 91.6382 96.4455 93.2539 96.4455C94.4132 96.4455 95.4554 96.6367 96.3804 97.019C97.3177 97.389 98.107 97.9132 98.7484 98.5915C99.402 99.2575 99.9015 100.053 100.247 100.978C100.592 101.903 100.765 102.914 100.765 104.012V116H98.1379ZM91.5519 112.503C92.2919 112.503 92.9394 112.374 93.4944 112.115C94.0494 111.856 94.6105 111.437 95.1779 110.857V108.193C94.0309 108.242 93.0874 108.341 92.3474 108.489C91.6074 108.637 91.0215 108.822 90.5899 109.044C90.1582 109.266 89.856 109.519 89.6834 109.802C89.523 110.086 89.4429 110.394 89.4429 110.727C89.4429 111.381 89.6217 111.844 89.9794 112.115C90.337 112.374 90.8612 112.503 91.5519 112.503ZM117.528 111.486C118.392 111.486 119.156 111.412 119.822 111.264C120.488 111.116 121.117 110.919 121.709 110.672V106.583H119.045C118.651 106.583 118.342 106.479 118.12 106.269C117.898 106.059 117.787 105.794 117.787 105.473V102.032H127.37V113.41C126.68 113.916 125.958 114.353 125.206 114.723C124.466 115.081 123.67 115.377 122.819 115.611C121.981 115.846 121.08 116.019 120.118 116.13C119.169 116.241 118.145 116.296 117.047 116.296C115.074 116.296 113.249 115.951 111.571 115.26C109.894 114.557 108.439 113.595 107.205 112.374C105.984 111.141 105.022 109.685 104.319 108.008C103.629 106.318 103.283 104.487 103.283 102.513C103.283 100.503 103.616 98.6593 104.282 96.982C104.948 95.2923 105.898 93.837 107.131 92.616C108.377 91.395 109.875 90.4453 111.627 89.767C113.39 89.0887 115.358 88.7495 117.528 88.7495C118.651 88.7495 119.705 88.842 120.692 89.027C121.678 89.212 122.585 89.4648 123.411 89.7855C124.25 90.1062 125.015 90.4885 125.705 90.9325C126.396 91.3765 127.013 91.8575 127.555 92.3755L125.742 95.132C125.57 95.391 125.36 95.5945 125.113 95.7425C124.879 95.8905 124.62 95.9645 124.336 95.9645C123.966 95.9645 123.584 95.8412 123.189 95.5945C122.696 95.2985 122.227 95.0457 121.783 94.836C121.352 94.614 120.908 94.4352 120.451 94.2995C119.995 94.1638 119.514 94.0652 119.008 94.0035C118.503 93.9418 117.935 93.911 117.306 93.911C116.135 93.911 115.08 94.1207 114.143 94.54C113.205 94.947 112.404 95.5267 111.738 96.279C111.084 97.0313 110.578 97.9378 110.221 98.9985C109.863 100.047 109.684 101.218 109.684 102.513C109.684 103.944 109.882 105.214 110.276 106.324C110.671 107.434 111.214 108.372 111.904 109.136C112.607 109.901 113.434 110.487 114.383 110.894C115.345 111.289 116.394 111.486 117.528 111.486ZM139.392 96.5195C140.662 96.5195 141.822 96.7168 142.87 97.1115C143.931 97.5062 144.837 98.0797 145.59 98.832C146.354 99.5843 146.946 100.509 147.366 101.607C147.797 102.692 148.013 103.926 148.013 105.307C148.013 105.739 147.995 106.09 147.958 106.361C147.921 106.633 147.853 106.849 147.754 107.009C147.655 107.169 147.52 107.28 147.347 107.342C147.187 107.404 146.977 107.434 146.718 107.434H135.655C135.84 109.038 136.327 110.203 137.117 110.931C137.906 111.646 138.923 112.004 140.169 112.004C140.835 112.004 141.409 111.924 141.89 111.763C142.371 111.603 142.796 111.424 143.166 111.227C143.548 111.03 143.894 110.851 144.202 110.69C144.523 110.53 144.856 110.45 145.201 110.45C145.657 110.45 146.003 110.616 146.237 110.949L147.902 113.003C147.31 113.681 146.669 114.236 145.978 114.668C145.3 115.087 144.597 115.42 143.869 115.667C143.154 115.901 142.432 116.062 141.705 116.148C140.989 116.247 140.305 116.296 139.651 116.296C138.307 116.296 137.043 116.08 135.859 115.648C134.687 115.204 133.657 114.551 132.769 113.688C131.893 112.824 131.197 111.751 130.679 110.468C130.173 109.186 129.92 107.693 129.92 105.991C129.92 104.709 130.136 103.494 130.568 102.347C131.012 101.2 131.641 100.195 132.455 99.3315C133.281 98.4682 134.274 97.7837 135.433 97.278C136.605 96.7723 137.924 96.5195 139.392 96.5195ZM139.503 100.478C138.405 100.478 137.548 100.793 136.932 101.422C136.315 102.039 135.908 102.933 135.711 104.104H142.87C142.87 103.648 142.808 103.204 142.685 102.772C142.574 102.341 142.383 101.958 142.112 101.625C141.853 101.28 141.507 101.003 141.076 100.793C140.644 100.583 140.12 100.478 139.503 100.478ZM157.557 106.028V116H151.304V89.0455H160.073C162.022 89.0455 163.68 89.249 165.049 89.656C166.431 90.0507 167.553 90.6057 168.416 91.321C169.292 92.0363 169.927 92.8812 170.322 93.8555C170.717 94.8298 170.914 95.8905 170.914 97.0375C170.914 97.9132 170.797 98.7395 170.562 99.5165C170.328 100.293 169.977 101.015 169.508 101.681C169.052 102.335 168.484 102.92 167.806 103.438C167.14 103.956 166.369 104.382 165.493 104.715C165.913 104.925 166.301 105.184 166.659 105.492C167.029 105.8 167.35 106.176 167.621 106.62L173.356 116H167.695C166.647 116 165.894 115.605 165.438 114.816L160.961 106.99C160.764 106.645 160.529 106.398 160.258 106.25C159.999 106.102 159.629 106.028 159.148 106.028H157.557ZM157.557 101.718H160.073C160.924 101.718 161.645 101.613 162.237 101.403C162.842 101.181 163.335 100.879 163.717 100.497C164.1 100.115 164.377 99.6707 164.55 99.165C164.723 98.647 164.809 98.092 164.809 97.5C164.809 96.316 164.42 95.391 163.643 94.725C162.879 94.059 161.689 93.726 160.073 93.726H157.557V101.718Z" fill="black"/>
</svg>
